<svg id="design" xmlns="http://www.w3.org/2000/svg" xmlns:xlink="http://www.w3.org/1999/xlink" viewBox="0 0 56 56"><defs><style>.cls-1{fill:url(#linear-gradient);}.cls-2,.cls-3{fill:none;}.cls-2{stroke:#333;}.cls-2,.cls-3,.cls-4{stroke-linecap:round;stroke-linejoin:round;stroke-width:2px;}.cls-3,.cls-4{stroke:#ffd545;}.cls-4{fill:#ffd545;}</style><linearGradient id="linear-gradient" x1="14.69" y1="55" x2="14.69" y2="1" gradientUnits="userSpaceOnUse"><stop offset="0" stop-color="#ffd545"/><stop offset="0" stop-color="#ffd546" stop-opacity="0.99"/><stop offset="0.27" stop-color="#ffeba5" stop-opacity="0.47"/><stop offset="0.45" stop-color="#fff9e1" stop-opacity="0.13"/><stop offset="0.54" stop-color="#fffef9" stop-opacity="0"/></linearGradient></defs><path class="cls-1" d="M1.19,32.84V23.16H6a22.56,22.56,0,0,1,3.09-7.44l-3.4-3.39,6.84-6.84,3.4,3.39A22.54,22.54,0,0,1,23.35,5.8V1h4.84V18.77a9.23,9.23,0,0,0,0,18.46V55H23.35V50.2a22.54,22.54,0,0,1-7.44-3.08l-3.4,3.39L5.67,43.67l3.4-3.39A22.56,22.56,0,0,1,6,32.84Z"/><path class="cls-2" d="M1.19,32.84V23.16H6a22.56,22.56,0,0,1,3.09-7.44l-3.4-3.39,6.84-6.84,3.4,3.39A22.54,22.54,0,0,1,23.35,5.8V1h4.84V18.77a9.23,9.23,0,0,0,0,18.46V55H23.35V50.2a22.54,22.54,0,0,1-7.44-3.08l-3.4,3.39L5.67,43.67l3.4-3.39A22.56,22.56,0,0,1,6,32.84Z"/><rect class="cls-3" x="47.9" y="24.54" width="6.92" height="6.92" transform="translate(102.71 56) rotate(-180)"/><rect class="cls-4" x="47.9" y="10.37" width="6.92" height="6.92" transform="translate(102.71 27.65) rotate(-180)"/><rect class="cls-4" x="47.9" y="38.72" width="6.92" height="6.92" transform="translate(102.71 84.35) rotate(-180)"/><rect class="cls-2" x="34.69" y="17.45" width="6.92" height="6.92" transform="translate(76.29 41.82) rotate(-180)"/><rect class="cls-2" x="34.69" y="3.28" width="6.92" height="6.92" transform="translate(76.29 13.47) rotate(-180)"/><rect class="cls-4" x="34.69" y="31.63" width="6.92" height="6.92" transform="translate(76.29 70.18) rotate(-180)"/><rect class="cls-2" x="34.69" y="45.8" width="6.92" height="6.92" transform="translate(76.29 98.53) rotate(-180)"/></svg>