<?xml version="1.0" encoding="utf-8"?>
<!-- Generator: Adobe Illustrator 28.2.0, SVG Export Plug-In . SVG Version: 6.00 Build 0)  -->
<svg version="1.1" id="Layer_2" xmlns="http://www.w3.org/2000/svg" xmlns:xlink="http://www.w3.org/1999/xlink" x="0px" y="0px"
	 viewBox="0 0 617 400" style="enable-background:new 0 0 617 400;" xml:space="preserve">
<style type="text/css">
	.st0{fill:#7289F7;}
	.st1{fill:#FFFFFF;}
	.st2{fill:#F97091;}
	.st3{fill:#006CC4;}
	.st4{fill:#FFC533;}
	.st5{fill:#53BC6C;}
	.st6{fill:#C0CDF9;}
	.st7{fill:#6876EA;}
	.st8{fill:#F4CB56;}
	.st9{fill:#F2F2F2;}
	.st10{fill:#E6E6E6;}
	.st11{fill:#E2295E;}
	.st12{fill:#333333;}
	.st13{fill:#AA3B1D;}
	.st14{fill:#FFABC3;}
	.st15{fill:#FF8DBB;}
	.st16{fill:#302D2D;}
	.st17{fill:#303030;}
	.st18{fill:#FFE9B8;}
	.st19{fill:none;stroke:#FFFFFF;stroke-width:1.2;}
	.st20{fill:none;stroke:#FFFFFF;stroke-width:1.2;stroke-linecap:round;}
	
		.st21{fill-rule:evenodd;clip-rule:evenodd;fill:none;stroke:#FFFFFF;stroke-width:1.2;stroke-linecap:round;stroke-linejoin:round;}
</style>
<g>
	<g>
		<g>
			<g>
				<g>
					<g>
						<path class="st0" d="M87.9,50.1h48.9c6.4,0,11.6,5.2,11.6,11.6v28.2c0,6.4-5.2,11.6-11.6,11.6H128l-15.1,12.1l-14.3-12.1H87.9
							c-6.4,0-11.6-5.2-11.6-11.6V61.7C76.2,55.3,81.5,50.1,87.9,50.1z"/>
					</g>
				</g>
			</g>
			<g>
				<g>
					<g>
						<path class="st1" d="M119.3,92.3c-0.1,0.3-0.1,0.6-0.1,0.9c0,0.3,0,0.5,0.1,0.8h-12.5c0.1-0.3,0.1-0.5,0.1-0.8
							c0-0.3,0-0.6-0.1-0.9H119.3z"/>
					</g>
				</g>
				<g>
					<g>
						<path class="st1" d="M130.6,93.2c0,0.5-0.4,0.9-0.9,0.9h-4.5c0.1-0.3,0.1-0.5,0.1-0.8c0-0.3,0-0.6-0.1-0.9h4.5
							C130.2,92.3,130.6,92.7,130.6,93.2z"/>
					</g>
				</g>
				<g>
					<g>
						<path class="st1" d="M133.1,64.5v19c0,2.9-2.3,5.2-5.2,5.2H96.7c-1,0-1.8,0.8-1.8,1.8c0,1,0.8,1.8,1.8,1.8h4.1
							c-0.1,0.3-0.1,0.6-0.1,0.9c0,0.3,0,0.5,0.1,0.8h-4c-1.9,0-3.5-1.6-3.5-3.5s1.6-3.5,3.5-3.5h31.1c1.9,0,3.5-1.6,3.5-3.5V65.3
							H94.8c-0.5,0-0.9-0.4-0.9-0.9c0-0.5,0.4-0.9,0.9-0.9h37.4C132.7,63.6,133.1,64,133.1,64.5z"/>
					</g>
				</g>
				<g>
					<g>
						<path class="st1" d="M98.1,88.4c-0.4,0-0.8-0.3-0.8-0.7l-4.1-26l-3.3-0.3c-0.5,0-0.8-0.5-0.8-0.9c0-0.5,0.5-0.8,0.9-0.8l4,0.4
							c0.4,0,0.7,0.3,0.8,0.7l4.3,26.7c0.1,0.5-0.2,0.9-0.7,1C98.2,88.4,98.1,88.4,98.1,88.4z"/>
					</g>
				</g>
				<g>
					<g>
						<path class="st1" d="M103.6,88.4c-0.5,0-0.9-0.4-0.9-0.9v-23c0-0.5,0.4-0.9,0.9-0.9c0.5,0,0.9,0.4,0.9,0.9v23
							C104.5,88,104.1,88.4,103.6,88.4z"/>
					</g>
				</g>
				<g>
					<g>
						<path class="st1" d="M110.8,88.4c-0.5,0-0.9-0.4-0.9-0.9v-23c0-0.5,0.4-0.9,0.9-0.9c0.5,0,0.9,0.4,0.9,0.9v23
							C111.6,88,111.3,88.4,110.8,88.4z"/>
					</g>
				</g>
				<g>
					<g>
						<path class="st1" d="M118.2,88.4c-0.5,0-0.9-0.4-0.9-0.9v-23c0-0.5,0.4-0.9,0.9-0.9c0.5,0,0.9,0.4,0.9,0.9v23
							C119.1,88,118.7,88.4,118.2,88.4z"/>
					</g>
				</g>
				<g>
					<g>
						<path class="st1" d="M125.5,88.4c-0.5,0-0.9-0.4-0.9-0.9v-23c0-0.5,0.4-0.9,0.9-0.9s0.9,0.4,0.9,0.9v23
							C126.3,88,126,88.4,125.5,88.4z"/>
					</g>
				</g>
				<g>
					<g>
						<path class="st1" d="M87.4,63c-1.7,0-3.1-1.4-3.1-3.1s1.4-3.1,3.1-3.1c1.7,0,3.1,1.4,3.1,3.1S89.1,63,87.4,63z M87.4,58.6
							c-0.7,0-1.4,0.6-1.4,1.4c0,0.7,0.6,1.4,1.4,1.4c0.7,0,1.4-0.6,1.4-1.4C88.7,59.2,88.1,58.6,87.4,58.6z"/>
					</g>
				</g>
				<g>
					<g>
						<g>
							<path class="st1" d="M103.8,97.2c-2.2,0-4-1.8-4-4c0-2.2,1.8-4,4-4c2.2,0,4,1.8,4,4C107.7,95.4,105.9,97.2,103.8,97.2z
								 M103.8,91c-1.2,0-2.2,1-2.2,2.2c0,1.2,1,2.2,2.2,2.2c1.2,0,2.2-1,2.2-2.2C106,92,105,91,103.8,91z"/>
						</g>
					</g>
				</g>
				<g>
					<g>
						<g>
							<path class="st1" d="M122.3,97.2c-2.2,0-4-1.8-4-4c0-2.2,1.8-4,4-4c2.2,0,4,1.8,4,4C126.2,95.4,124.4,97.2,122.3,97.2z
								 M122.3,91c-1.2,0-2.2,1-2.2,2.2c0,1.2,1,2.2,2.2,2.2c1.2,0,2.2-1,2.2-2.2C124.5,92,123.5,91,122.3,91z"/>
						</g>
					</g>
				</g>
			</g>
		</g>
		<g>
			
				<ellipse transform="matrix(0.7071 -0.7071 0.7071 0.7071 4.9236 118.4504)" class="st2" cx="145.4" cy="53.3" rx="9.2" ry="9.2"/>
		</g>
		<g>
			<path class="st1" d="M148.6,55.2c0,1-0.3,1.8-1,2.3c-0.7,0.5-1.4,0.8-2.4,0.8c-0.8,0-1.5-0.2-2.1-0.6c-0.6-0.4-1-0.9-1.2-1.6
				l1.9-0.6c0.1,0.3,0.3,0.6,0.5,0.8c0.3,0.2,0.5,0.3,0.9,0.3c0.4,0,0.7-0.1,0.9-0.3c0.2-0.2,0.4-0.5,0.4-0.9c0-0.5-0.2-0.8-0.5-1
				c-0.3-0.2-0.8-0.3-1.3-0.3c-0.7,0-1.4,0.1-2.1,0.4l0.2-5h5.3v1.8h-3.5l-0.1,1.4c0.2-0.1,0.5-0.1,0.9-0.1c0.9,0,1.7,0.2,2.3,0.7
				C148.3,53.6,148.6,54.3,148.6,55.2z"/>
		</g>
	</g>
	<g>
		<g>
			<g>
				<g>
					<path class="st3" d="M251.1,327.9c0,0.7,0,1.1-0.2,1.9c0,0,0,0.1,0,0.1c-0.2,0.4-0.4,0.9-0.6,1.3c-0.3,0.6-0.7,0.9-1.1,1.3
						c-0.5,0.5-1.1,0.9-1.8,1.1c-0.7,0.3-1.4,0.4-2.1,0.4c-0.5-0.1-1-0.2-1.5-0.3c-0.7-0.2-1.3-0.6-1.8-1.1c-0.4-0.3-0.7-0.6-1-1
						c-0.5-0.6-0.8-1.2-0.9-1.9c0-0.5-0.1-1-0.1-1.5c0-1,0.3-1.9,0.9-2.8c0.3-0.4,0.7-1,1-1.2c0.4-0.3,0.8-0.6,1.1-0.8
						c0.2-0.1,0.5-0.2,0.7-0.3c0.4-0.2,0.9-0.4,1.4-0.3c0.3,0,0.5-0.1,0.8-0.1c0,0,0.1,0,0.1,0c0.7,0,1.4,0.1,2,0.4
						c0.6,0.2,1.2,0.6,1.7,1.1c0.3,0.3,0.5,0.7,0.8,1C250.8,326.1,251.1,327,251.1,327.9L251.1,327.9z"/>
				</g>
			</g>
		</g>
		<g>
			<g>
				<g>
					<path class="st3" d="M229.1,345.9c0.9,0.5,1.3,1.7,1.4,2.7c0.1,1-0.1,2-0.4,2.9c-0.2,0.6-0.6,1.2-1,1.7
						c-1.1,1.6-2.9,2.3-4.8,2.1c-1.9-0.2-3.5-1.6-4.1-3.4c-0.5-1.7,0-4,1.6-5.1c1.1-0.8,2.3-1.3,3.7-1.1c0.2,0,0.4,0.1,0.6,0.1
						c-0.4,0-0.8,0-1.2,0c0.3,0,0.5,0,0.8-0.1c-0.3,0.1-0.7,0.2-1,0.3c0.3-0.1,0.6-0.2,0.9-0.3c-0.3,0.2-0.5,0.3-0.8,0.5
						c0.5-0.3,1-0.6,1.6-0.7c0.5-0.1,0.5-0.1,1-0.1C228,345.3,228.5,345.5,229.1,345.9L229.1,345.9z"/>
				</g>
			</g>
		</g>
		<g>
			<g>
				<g>
					<path class="st3" d="M204.3,342.5c-0.8,2.5-3.2,4.5-5.8,4.9c-1.4,0.2-2.8-0.5-3.6-1.6c-0.7-1-1.1-2.8-0.4-3.9
						c0.3-0.4,0.5-0.9,0.9-1.2c0.5-0.5,1-0.9,1.7-1.2c0.3-0.2,0.7-0.4,1-0.5c1.1-0.6,2.3-0.7,3.6-0.6
						C203.8,338.4,204.9,340.6,204.3,342.5L204.3,342.5z"/>
				</g>
			</g>
		</g>
		<g>
			<g>
				<g>
					<path class="st3" d="M187.4,323.2c-0.1,0.5-0.2,1-0.4,1.4c-0.3,0.7-0.8,1.2-1.3,1.7c-0.8,0.8-1.7,1.4-2.8,1.7
						c-1.3,0.3-3-0.6-3.5-1.9c-0.2-0.5-0.3-1.1-0.3-1.7c0-0.7,0.6-1.8,1.2-2.2c0.4-0.3,0.8-0.5,1.3-0.7c0.3-0.1,0.5-0.2,0.8-0.3
						c0.1-0.1,0.2-0.1,0.3-0.2c0.2-0.1,0.1-0.1-0.3,0.2c0.2-0.1,0.4-0.3,0.7-0.4c0.3-0.1,0.6-0.2,0.9-0.3c0.2,0,0.7-0.2-0.1,0
						c0.9-0.3,1.8-0.3,2.6,0.3C187,321.4,187.5,322.3,187.4,323.2L187.4,323.2z"/>
				</g>
			</g>
		</g>
		<g>
			<g>
				<g>
					<path class="st3" d="M178,347.1c0,0.1,0.1,0.2,0.1,0.3c0.1,0.4,0.1,0.9,0.2,1.3c-0.1,0.5-0.1,0.9-0.2,1.4c0,0.1,0,0.2,0,0.3
						c-0.1,0.6-0.4,1.2-0.7,1.7c0,0.1-0.1,0.1-0.1,0.2c-0.3,0.4-0.6,0.7-0.9,1.1c-0.4,0.3-0.8,0.6-1.1,0.8c-0.1,0-0.1,0.1-0.2,0.1
						c-0.6,0.4-1.3,0.6-2.1,0.6c-0.7,0.1-1.5,0.1-2.2-0.1c-0.4-0.2-0.9-0.4-1.3-0.6c-0.6-0.4-1.1-0.8-1.5-1.4
						c-0.3-0.4-0.6-0.8-0.7-1.2c-0.3-0.7-0.5-1.4-0.4-2.1c0.1-0.5,0.2-1,0.2-1.5c0.3-0.9,0.8-1.7,1.5-2.4c0.8-0.8,1.7-1.3,2.8-1.6
						c0.6-0.2,1.3-0.2,1.9-0.2c0.9,0,1.8,0.3,2.6,0.7c0,0,0.1,0,0.1,0.1c0.3,0.2,0.6,0.4,0.9,0.7C177.4,345.7,177.8,346.4,178,347.1
						L178,347.1z"/>
				</g>
			</g>
		</g>
		<g>
			<g>
				<g>
					<path class="st3" d="M199.6,364.6c-0.1,0.1-0.1,0.3-0.2,0.4c0.1-0.3,0.2-0.5,0.2-0.8c-0.2,1.1-0.8,1.9-1.6,2.5
						c-0.7,0.5-1.6,0.8-2.5,0.7c-0.8-0.1-1.7-0.6-2.2-1.3c-0.5-0.7-0.9-1.6-0.7-2.5c0.1-0.8,0.5-1.8,1.3-2.2
						c0.4-0.2,0.8-0.5,1.2-0.7c0.7-0.3,1.3-0.2,2-0.2c-0.3,0-0.6,0-0.8,0c0.2,0,0.3,0,0.5,0c0.5-0.1,1,0,1.5,0.2
						c0.5,0.2,0.8,0.5,1.1,0.9C200,362.6,200,363.6,199.6,364.6L199.6,364.6z"/>
				</g>
			</g>
		</g>
	</g>
	<g>
		<path class="st4" d="M383,226.6l-0.5,2.1c-0.2,0.7-0.7,1.2-1.4,1.4l-1.2,0.2c-1.9,0.4-2,3.1-0.1,3.6l1.4,0.4
			c0.6,0.2,1.1,0.7,1.3,1.3l0.9,3.1c0.5,1.8,3.1,1.8,3.6,0l0.9-3.2c0.2-0.7,0.7-1.2,1.4-1.3l0,0c1.9-0.4,2-3.1,0.1-3.6l-0.6-0.2
			c-0.7-0.2-1.2-0.7-1.4-1.4l-0.6-2.4C386.2,224.7,383.5,224.7,383,226.6z"/>
	</g>
	<g>
		<g>
			<path class="st5" d="M242.2,46c0.1,0.4,0.2,0.7,0.2,1.1c0,0.3,0,0.6,0,0.9c0.1,0.8,0.1,1.8-0.4,2.5c-0.6,0.8-1.3,1.2-2.3,1.1
				c-0.9-0.1-1.7-0.8-1.9-1.7c-0.3-1,0.2-2,0.6-2.9c0.3-0.6,0.5-1.1,0.9-1.6C240.1,44.5,241.9,44.9,242.2,46L242.2,46z"/>
		</g>
		<g>
			<path class="st3" d="M238.5,26.4c0,0.1,0.1,0.1,0.1,0.2c-0.1-0.1-0.2-0.3-0.3-0.4c0.7,0.6,0.8,1.9,0.6,2.8
				c-0.2,0.8-0.8,1.6-1.5,1.9c-0.7,0.3-1.5,0.3-2.1-0.2c-0.6-0.4-1.1-1.2-0.9-2c0.1-0.5,0.1-0.8,0.4-1.2c0.1-0.1,0.1-0.2,0.2-0.3
				c-0.1,0.2-0.2,0.3-0.3,0.5c0.1-0.3,0.3-0.6,0.4-0.9c-0.1,0.2-0.2,0.3-0.2,0.5c0.2-0.4,0.2-0.7,0.5-1c-0.1,0.3-0.2,0.6-0.3,0.9
				c0-0.1,0-0.1,0-0.2c0.1-0.8,0.7-1.6,1.5-1.7C237.4,25.2,238.1,25.6,238.5,26.4L238.5,26.4z"/>
		</g>
		<g>
			<path class="st3" d="M228.7,40.8c-0.3,0.5-0.4,1-0.7,1.4c-0.5,1-1.6,1.6-2.7,1.3c-1-0.3-1.8-1.4-1.6-2.5c0.1-0.6,0.3-1.2,0.7-1.7
				c0.3-0.4,0.6-0.7,1-1c0.7-0.6,2-0.5,2.6,0C228.8,38.8,229.2,40,228.7,40.8L228.7,40.8z"/>
		</g>
		<g>
			<path class="st5" d="M221.7,55.3c0.2,0.9,0,1.8-0.5,2.6c-0.2,0.3-0.4,0.6-0.7,0.9c-0.3,0.3-0.8,0.6-1.2,0.6c-0.2,0-0.4,0-0.6,0.1
				c-0.7-0.1-0.8-0.1-0.2,0c-0.7-0.1-1.2-0.3-1.7-0.9c-0.4-0.5-0.6-1.2-0.4-1.8c0.2-0.5,0.3-1,0.8-1.3c0.1-0.1,0.2-0.1,0.2-0.2
				c0.1-0.1,0.1-0.1,0,0c-0.1,0.2-0.1,0.2,0,0c0.1-0.1,0.1-0.2,0.2-0.2c0.2-0.3,0.2-0.3,0,0c0-0.1,0.1-0.2,0.1-0.3
				c0.3-0.8,1.3-1.4,2.1-1.2C220.9,53.7,221.5,54.4,221.7,55.3L221.7,55.3z"/>
		</g>
		<g>
			<path class="st3" d="M213.8,34.2c0.1,0.3,0.2,0.6,0.2,0.9c-0.1-0.3-0.2-0.6-0.4-0.8c0.9,1,0.6,2.4,0,3.4c-0.3,0.5-1,0.9-1.5,1
				c-0.5,0.1-1,0-1.4-0.2c-1-0.5-1.5-1.7-1.1-2.8c0.5-1.2,1.5-2.1,2.9-2c-0.4,0.1-0.9,0.2-1.3,0.4c0.3-0.2,0.6-0.4,0.9-0.5
				C212.7,33.3,213.6,33.6,213.8,34.2L213.8,34.2z"/>
		</g>
		<g>
			<path class="st5" d="M206.8,56.3c0,0.1,0.1,0.1,0.1,0.2c-0.1-0.3-0.2-0.4,0,0c0.1,0.1,0.1,0.2,0.1,0.3c0.1,0.4,0.1,0.9,0,1.3
				c-0.2,0.8-0.6,1.4-1.3,1.8c-0.7,0.5-1.8,0.4-2.5-0.2c-0.6-0.6-1-1.6-0.5-2.4c0.2-0.4,0.5-0.7,0.7-1c0.1-0.1,0.2-0.2,0.3-0.3
				c0.2-0.1,0.3-0.3,0.5-0.4c-0.4,0.5-0.5,0.6-0.3,0.3c0.3-0.6,1-0.9,1.6-0.8C206.2,55.2,206.6,55.6,206.8,56.3L206.8,56.3z"/>
		</g>
		<g>
			<path class="st5" d="M254.3,58.9c-0.1,0.3-0.2,0.6-0.4,0.9c-0.2,0.3-0.4,0.5-0.7,0.8c-0.5,0.4-1.1,0.7-1.7,0.7
				c-0.6,0-1.2-0.3-1.6-0.7c-0.4-0.5-0.7-1.1-0.7-1.7c0-0.6,0.2-1.2,0.7-1.6c0.3-0.2,0.7-0.6,0.9-0.7c0.3-0.2,0.7-0.2,1.1-0.3
				c0.7-0.1,1.5,0.1,1.9,0.7C254.4,57.4,254.5,58.2,254.3,58.9L254.3,58.9z"/>
		</g>
	</g>
	<g>
		<g>
			<g>
				<g>
					<g>
						<g>
							<g>
								<path class="st0" d="M81,284.7c0.6,4.2,3.9,8,8.9,8.5l222.4,19.9c3,0.3,6-0.8,8.1-3l80.1-81.7c2-2.1,3.4-4.7,4.1-7.5
									l37.2-162.7c1.3-5.7-1.8-11.2-6.8-13.3c0.4,1.7,0.4,3.5,0,5.3L397.8,213c-0.6,2.8-2.1,5.4-4.1,7.5l-80.1,81.7
									c-2.1,2.1-5.1,3.2-8.1,3L83.1,285.2C82.4,285.1,81.7,285,81,284.7z"/>
							</g>
						</g>
						<g>
							<g>
								<path class="st6" d="M81,284.7c0.7,0.2,1.4,0.4,2.1,0.4l222.4,19.9c3,0.3,6-0.8,8.1-3l80.1-81.7c2-2.1,3.4-4.7,4.1-7.5
									L435,50.3c0.4-1.8,0.4-3.6,0-5.3c-1.4-0.6-2.9-0.9-4.5-0.9l-230.3,0.5c-5.3,0-10,3.7-11.2,8.8L150.3,210l-66.5,66.2
									C81.4,278.7,80.6,281.8,81,284.7z"/>
							</g>
						</g>
						<g>
							<g>
								<polygon class="st1" points="421.9,55.7 199.7,56.8 163.5,201.6 385.8,215.3 								"/>
							</g>
						</g>
						<g>
							<g>
								<path class="st0" d="M166.8,217.1l182.1,12.4c4.5,0.3,6.6,5.6,3.6,9l-20.8,23.2c-1.1,1.3-2.8,1.9-4.5,1.8l-180.8-18.2
									c-4.7-0.5-6.5-6.2-3-9.4l19.4-17.4C163.9,217.5,165.3,217,166.8,217.1z"/>
							</g>
						</g>
						<g>
							<g>
								<path class="st0" d="M192.6,257.9l43.9,4.1c5,0.5,7.4,6.5,4,10.2l-4.8,5.4c-1.3,1.4-3.2,2.2-5.1,2l-45-3.8
									c-5.2-0.4-7.5-6.8-3.8-10.5l5.9-5.7C189,258.4,190.8,257.8,192.6,257.9z"/>
							</g>
						</g>
						<g>
							<g>
								<path class="st1" d="M332.7,241.2c0.3,0,0.5-0.2,0.5-0.5c0-0.3-0.2-0.5-0.5-0.5l-163.6-12c-0.3,0-0.5,0.2-0.5,0.5
									s0.2,0.5,0.5,0.5L332.7,241.2C332.7,241.2,332.7,241.2,332.7,241.2z"/>
							</g>
						</g>
						<g>
							<g>
								<path class="st1" d="M273.4,248l-91.6-7.7c-0.3,0-0.5,0.2-0.6,0.5c0,0.3,0.2,0.5,0.5,0.6l91.5,7.7
									C273.2,248.7,273.3,248.3,273.4,248z"/>
							</g>
						</g>
					</g>
				</g>
			</g>
		</g>
		<g>
			<g>
				<g>
					<polygon class="st6" points="323.9,140.6 382.3,143.6 369.9,193.9 311.5,191 					"/>
				</g>
			</g>
			<g>
				<g>
					<path class="st7" d="M278.8,140.4l27.3,1.4c1.7,0.1,2.7,1.5,2.3,3.1l0,0c-0.5,1.6-2.2,2.9-3.9,2.8l-27.3-1.4
						c-1.7-0.1-2.7-1.5-2.3-3.1l0,0C275.3,141.6,277.1,140.4,278.8,140.4z"/>
				</g>
			</g>
			<g>
				<g>
					<path class="st0" d="M303.1,157.5c0.3,0,0.5-0.2,0.5-0.5c0-0.3-0.2-0.5-0.5-0.5l-101.7-5.2c-0.3,0-0.5,0.2-0.5,0.5
						c0,0.3,0.2,0.5,0.5,0.5L303.1,157.5C303.1,157.5,303.1,157.5,303.1,157.5z"/>
				</g>
			</g>
			<g>
				<g>
					<path class="st0" d="M300.5,166.7c0.3,0,0.5-0.2,0.5-0.5c0-0.3-0.2-0.5-0.5-0.5l-49.9-2.5c-0.3,0-0.5,0.2-0.5,0.5
						c0,0.3,0.2,0.5,0.5,0.5L300.5,166.7C300.5,166.7,300.5,166.7,300.5,166.7z"/>
				</g>
			</g>
			<g>
				<g>
					<path class="st0" d="M245.6,163.9c0.3,0,0.5-0.2,0.5-0.5c0-0.3-0.2-0.5-0.5-0.5l-49.9-2.5c-0.3,0-0.5,0.2-0.5,0.5
						c0,0.3,0.2,0.5,0.5,0.5L245.6,163.9C245.6,163.9,245.6,163.9,245.6,163.9z"/>
				</g>
			</g>
			<g>
				<g>
					<path class="st8" d="M290.4,175.2l-2.9,3.5c-0.2,0.2-0.4,0.4-0.7,0.4l-4.3,0.4c-0.7,0.1-1.2,0.8-0.8,1.3l2.2,2.9
						c0.1,0.2,0.2,0.4,0,0.7l-1.8,3.9c-0.3,0.6,0.3,1.1,0.9,0.9l4.2-1.7c0.3-0.1,0.5-0.1,0.7,0l3.2,2c0.5,0.3,1.3-0.1,1.4-0.7l0.4-4
						c0-0.2,0.2-0.5,0.4-0.7l3.8-2.6c0.6-0.4,0.6-1.2-0.1-1.3l-4-0.8c-0.2,0-0.4-0.2-0.5-0.4l-0.8-3.7
						C291.7,174.7,290.8,174.7,290.4,175.2z"/>
				</g>
			</g>
			<g>
				<g>
					<path class="st8" d="M271.9,174.3l-2.9,3.5c-0.2,0.2-0.4,0.4-0.7,0.4l-4.3,0.4c-0.7,0.1-1.2,0.8-0.8,1.3l2.2,2.9
						c0.1,0.2,0.2,0.4,0,0.7l-1.8,3.9c-0.3,0.6,0.3,1.1,0.9,0.9l4.2-1.7c0.3-0.1,0.5-0.1,0.7,0l3.2,2c0.5,0.3,1.3-0.1,1.4-0.7l0.4-4
						c0-0.2,0.2-0.5,0.4-0.7l3.8-2.6c0.6-0.4,0.6-1.2-0.1-1.3l-4-0.8c-0.2,0-0.4-0.2-0.5-0.4l-0.8-3.7
						C273.2,173.8,272.4,173.7,271.9,174.3z"/>
				</g>
			</g>
			<g>
				<g>
					<path class="st8" d="M254,173.4l-2.9,3.5c-0.2,0.2-0.4,0.4-0.7,0.4l-4.3,0.4c-0.7,0.1-1.2,0.8-0.8,1.3l2.2,2.9
						c0.1,0.2,0.2,0.4,0,0.7l-1.8,3.9c-0.3,0.6,0.3,1.1,0.9,0.9l4.2-1.7c0.3-0.1,0.5-0.1,0.7,0l3.2,2c0.5,0.3,1.3-0.1,1.4-0.7l0.4-4
						c0-0.2,0.2-0.5,0.4-0.7l3.8-2.6c0.6-0.4,0.6-1.2-0.1-1.3l-4-0.8c-0.2,0-0.4-0.2-0.5-0.4l-0.8-3.7
						C255.3,172.9,254.5,172.8,254,173.4z"/>
				</g>
			</g>
			<g>
				<g>
					<path class="st8" d="M235.2,172.4l-2.9,3.5c-0.2,0.2-0.4,0.4-0.7,0.4l-4.3,0.4c-0.7,0.1-1.2,0.8-0.8,1.3l2.2,2.9
						c0.1,0.2,0.2,0.4,0,0.7l-1.8,3.9c-0.3,0.6,0.3,1.1,0.9,0.9l4.2-1.7c0.3-0.1,0.5-0.1,0.7,0l3.2,2c0.5,0.3,1.3-0.1,1.4-0.7l0.4-4
						c0-0.2,0.2-0.5,0.4-0.7l3.8-2.6c0.6-0.4,0.6-1.2-0.1-1.3l-4-0.8c-0.2,0-0.4-0.2-0.5-0.4l-0.8-3.7
						C236.5,171.9,235.6,171.9,235.2,172.4z"/>
				</g>
			</g>
		</g>
		<g>
			<g>
				<g>
					<polygon class="st6" points="337.9,81.1 396.3,84.1 384,134.4 325.5,131.4 					"/>
				</g>
			</g>
			<g>
				<g>
					<path class="st0" d="M319.2,98.3c0.3,0,0.5-0.2,0.5-0.5c0-0.3-0.2-0.5-0.5-0.5l-101.7-5.2c-0.3,0-0.5,0.2-0.5,0.5
						c0,0.3,0.2,0.5,0.5,0.5L319.2,98.3C319.2,98.3,319.2,98.3,319.2,98.3z"/>
				</g>
			</g>
			<g>
				<g>
					<path class="st0" d="M316.6,107.4c0.3,0,0.5-0.2,0.5-0.5c0-0.3-0.2-0.5-0.5-0.5l-49.9-2.5c-0.3,0-0.5,0.2-0.5,0.5
						c0,0.3,0.2,0.5,0.5,0.5L316.6,107.4C316.6,107.4,316.6,107.4,316.6,107.4z"/>
				</g>
			</g>
			<g>
				<g>
					<path class="st0" d="M261.8,104.7c0.3,0,0.5-0.2,0.5-0.5c0-0.3-0.2-0.5-0.5-0.5l-49.9-2.5c-0.3,0-0.5,0.2-0.5,0.5
						c0,0.3,0.2,0.5,0.5,0.5L261.8,104.7C261.8,104.7,261.8,104.7,261.8,104.7z"/>
				</g>
			</g>
			<g>
				<g>
					<path class="st8" d="M306.5,115.9l-2.9,3.5c-0.2,0.2-0.4,0.4-0.7,0.4l-4.3,0.4c-0.7,0.1-1.2,0.8-0.8,1.3l2.2,2.9
						c0.1,0.2,0.2,0.4,0,0.7l-1.8,3.9c-0.3,0.6,0.3,1.1,0.9,0.9l4.2-1.7c0.3-0.1,0.5-0.1,0.7,0l3.2,2c0.5,0.3,1.3-0.1,1.4-0.7l0.4-4
						c0-0.2,0.2-0.5,0.4-0.7l3.8-2.6c0.6-0.4,0.6-1.2-0.1-1.3l-4-0.8c-0.2,0-0.4-0.2-0.5-0.4L308,116
						C307.8,115.4,307,115.4,306.5,115.9z"/>
				</g>
			</g>
			<g>
				<g>
					<path class="st8" d="M288.1,115l-2.9,3.5c-0.2,0.2-0.4,0.4-0.7,0.4l-4.3,0.4c-0.7,0.1-1.2,0.8-0.8,1.3l2.2,2.9
						c0.1,0.2,0.2,0.4,0,0.7l-1.8,3.9c-0.3,0.6,0.3,1.1,0.9,0.9l4.2-1.7c0.3-0.1,0.5-0.1,0.7,0l3.2,2c0.5,0.3,1.3-0.1,1.4-0.7l0.4-4
						c0-0.2,0.2-0.5,0.4-0.7l3.8-2.6c0.6-0.4,0.6-1.2-0.1-1.3l-4-0.8c-0.2,0-0.4-0.2-0.5-0.4l-0.8-3.7
						C289.4,114.5,288.6,114.5,288.1,115z"/>
				</g>
			</g>
			<g>
				<g>
					<path class="st8" d="M270.2,114.1l-2.9,3.5c-0.2,0.2-0.4,0.4-0.7,0.4l-4.3,0.4c-0.7,0.1-1.2,0.8-0.8,1.3l2.2,2.9
						c0.1,0.2,0.2,0.4,0,0.7l-1.8,3.9c-0.3,0.6,0.3,1.1,0.9,0.9l4.2-1.7c0.3-0.1,0.5-0.1,0.7,0l3.2,2c0.5,0.3,1.3-0.1,1.4-0.7l0.4-4
						c0-0.2,0.2-0.5,0.4-0.7l3.8-2.6c0.6-0.4,0.6-1.2-0.1-1.3l-4-0.8c-0.2,0-0.4-0.2-0.5-0.4l-0.8-3.7
						C271.5,113.6,270.6,113.5,270.2,114.1z"/>
				</g>
			</g>
			<g>
				<g>
					<path class="st8" d="M251.3,113.1l-2.9,3.5c-0.2,0.2-0.4,0.4-0.7,0.4l-4.3,0.4c-0.7,0.1-1.2,0.8-0.8,1.3l2.2,2.9
						c0.1,0.2,0.2,0.4,0,0.7l-1.8,3.9c-0.3,0.6,0.3,1.1,0.9,0.9l4.2-1.7c0.3-0.1,0.5-0.1,0.7,0l3.2,2c0.5,0.3,1.3-0.1,1.4-0.7l0.4-4
						c0-0.2,0.2-0.5,0.4-0.7l3.8-2.6c0.6-0.4,0.6-1.2-0.1-1.3l-4-0.8c-0.2,0-0.4-0.2-0.5-0.4l-0.8-3.7
						C252.6,112.6,251.8,112.6,251.3,113.1z"/>
				</g>
			</g>
		</g>
		<g>
			<g>
				<g>
					<polygon class="st9" points="394.8,42.1 364.3,65.3 163.4,67.5 193.9,44.3 					"/>
				</g>
			</g>
			<g>
				<g>
					<polygon class="st9" points="394.8,42.1 364.3,65.3 324,65.8 354.5,42.6 					"/>
				</g>
			</g>
			<g>
				<g>
					<polygon class="st2" points="354.5,42.6 324,65.8 283.6,66.2 314.2,43 					"/>
				</g>
			</g>
			<g>
				<g>
					<polygon class="st9" points="314.2,43 283.6,66.2 243.7,66.6 274.2,43.4 					"/>
				</g>
			</g>
			<g>
				<g>
					<polygon class="st2" points="274.2,43.4 243.7,66.6 203.7,67 234.3,43.8 					"/>
				</g>
			</g>
			<g>
				<g>
					<path class="st10" d="M335.1,86.2l3.8,0c10.1-0.1,20.7-7.9,23.7-17.3l1.1-3.5l-40.3,0.4l-1.1,3.5
						C319.3,78.8,325,86.3,335.1,86.2z"/>
				</g>
			</g>
			<g>
				<g>
					<path class="st11" d="M295.1,86.7l3.8,0c10.1-0.1,20.7-7.9,23.7-17.3l1.1-3.5l-40.3,0.4l-1.1,3.5
						C279.4,79.2,285.1,86.8,295.1,86.7z"/>
				</g>
			</g>
			<g>
				<g>
					<path class="st10" d="M254.8,87.1l3.8,0c10.1-0.1,20.7-7.9,23.7-17.3l1.1-3.5l-40.3,0.4l-1.1,3.5
						C239,79.6,244.8,87.2,254.8,87.1z"/>
				</g>
			</g>
			<g>
				<g>
					<path class="st11" d="M214.9,87.5l3.8,0c10.1-0.1,20.7-7.9,23.7-17.3l1.1-3.5L203.2,67l-1.1,3.5
						C199.1,80,204.8,87.6,214.9,87.5z"/>
				</g>
			</g>
			<g>
				<g>
					<path class="st10" d="M174.9,88l3.8,0c10.1-0.1,20.7-7.9,23.7-17.3l1.1-3.5l-40.3,0.4l-1.1,3.5C159.1,80.5,164.8,88.1,174.9,88
						z"/>
				</g>
			</g>
			<g>
				<g>
					<path class="st11" d="M375.1,85.8l3.8,0c10.1-0.1,20.7-7.9,23.7-17.3l1.1-3.5l-40.3,0.4l-1.1,3.5
						C359.3,78.3,365,85.9,375.1,85.8z"/>
				</g>
			</g>
			<g>
				<g>
					<polygon class="st2" points="434.4,41.7 403.9,64.9 363.5,65.3 394.8,42.1 					"/>
				</g>
			</g>
			<g>
				<g>
					<path class="st12" d="M178.3,67.8C178.3,67.8,178.3,67.8,178.3,67.8l225.5-2.4c0.1,0,0.2,0,0.3-0.1l29.2-22.1l-7.2,19
						c-0.1,0.3,0,0.6,0.3,0.7c0.3,0.1,0.6,0,0.7-0.3l7.8-20.7c0.1-0.2,0-0.5-0.2-0.6c-0.2-0.1-0.4-0.1-0.6,0l-30.5,23.1l-225.3,2.4
						c-0.3,0-0.5,0.2-0.5,0.5C177.8,67.6,178,67.8,178.3,67.8z"/>
				</g>
			</g>
			<g>
				<g>
					<path class="st12" d="M415.3,56.8C415.3,56.8,415.3,56.8,415.3,56.8l13.9-0.1c0.3,0,0.5-0.2,0.5-0.5c0-0.3-0.2-0.5-0.5-0.5
						c0,0,0,0,0,0l-13.9,0.1c-0.3,0-0.5,0.2-0.5,0.5C414.7,56.5,415,56.8,415.3,56.8z"/>
				</g>
			</g>
		</g>
	</g>
	<g>
		<g>
			<g>
				<g>
					<path class="st13" d="M130.8,127.4c-2.9,2-1.6,5.8-2.1,8.7c-0.4,2.5-3.1,4-4.9,5.5c-2.4,2.1-2.5,5.3-1.5,8.2
						c0.5,1.4,1.2,2.7,2.1,3.8c0.8,0.9,2.1,1.8,2.4,3c0.1,0.3-0.1,0.6-0.4,0.6c-1.4,0.1-2.6-1.2-3.4-2.2c-1-1.2-1.9-2.7-2.4-4.2
						c-1-2.9-1.4-6.5,0.5-9.1c0.9-1.2,2.1-2,3.3-2.9c1.4-1,2.4-2,3.1-3.6C128.7,132.7,127.8,128.9,130.8,127.4
						C130.8,127.4,130.8,127.4,130.8,127.4L130.8,127.4z"/>
				</g>
			</g>
		</g>
		<g>
			<g>
				<path class="st13" d="M160.6,113.1c3.6,1.4,6.4,4.7,7.4,8.5c0.7,2.9,0.4,6,0.6,9.1c0.1,1.8,0.6,3.6,1.7,4.9
					c1.7,1.9,4.6,2.2,7.1,2.9c4.5,1.3,8.5,4.6,9.8,9c0.5,1.6,0.7,3.3,1.5,4.7c0.7,1.1,1.8,1.9,2.7,2.8c1.4,1.2,2.5,2.6,3.5,4.2
					c1.7,2.7,2.7,6.1,1.2,8.9c-1.4,2.7-4.8,3.8-7.9,3.4c-3-0.4-5.7-2-8.3-3.6c-2.6-1.6-5.1-3.4-8.1-4.1c-4.3-1.1-8.8,0-13.2,0.7
					c-4.4,0.7-9.3,0.8-12.8-2c-1.5-1.2-2.6-2.9-4.3-3.9c-3-1.8-6.9-0.9-10.3-1.6c-3.5-0.8-6.5-3.4-7.7-6.7c-0.6-1.5-0.7-3.3-0.2-4.8
					c1.1-2.8,4.3-4.3,5.2-7.1c1.1-3.5-1.9-7.6-0.2-10.9c0.7-1.3,2-2.1,2.8-3.3c1.2-1.6,1.6-3.6,2.5-5.3c2.2-4.3,7.3-6,11.9-5.9
					c2.2,0.1,4,0.5,6.1,0C154.9,112.3,157.6,111.9,160.6,113.1z"/>
			</g>
		</g>
		<g>
			<g>
				<path class="st14" d="M91.1,134.3c0,0-11.7,31.1-12.9,36.7c-1.2,5.6-7.9,29.4,24,20.1l19.3-31.2l-23.8,9.5l8.2-33.7L91.1,134.3z
					"/>
			</g>
		</g>
		<g>
			<g>
				<g>
					<path class="st15" d="M139.1,321l-11.1-9.2l-13.2,14.3c0,0,11.4,13.5,13.5,19.5c2.1,6,18.3-16.9,18.3-16.9L139.1,321z"/>
				</g>
			</g>
			<g>
				<g>
					<path class="st5" d="M189.4,222.6c0,0,5.7,1.7,6.8-7.3c1.1-9-1.8-34.2-1.8-38.8c0-4.6-4.4-20.4-8.3-23.9
						c-13.2-11.8-25.5,0.5-34.5,1.7c-9,1.1-23.7-1.9-36.6,4.3c-12.2,5.9-15.2,8.7-15.2,8.7l24,27.6l18.8,1.8l26.6,31.6L189.4,222.6z
						"/>
				</g>
			</g>
			<g>
				<g>
					<path class="st4" d="M189.4,222.6c0,0,23.2,55.4-5.7,56.5h-79.5l30.3,30c0,0-1.1,19.2-22.6,24.3c0,0-70.2-54.5-52.6-81.4
						c11.9-18.1,61.3-16.1,61.3-16.1s-7.3-50.9,14.1-50.9c12.4,0,42.7,37.6,42.7,37.6H189.4z"/>
				</g>
			</g>
			<g>
				<g>
					<path class="st14" d="M169.3,170.9c0,0,5.3-7.4,22.7-4.3c0,0,15.6,23.3,2.7,27.9c-12.9,4.6-62.7-4.4-62.7-4.4l-1.1-13.6l39-3.4
						L169.3,170.9z"/>
				</g>
			</g>
			<g>
				<g>
					<g>
						<g>
							<g>
								<path class="st11" d="M106,163.3h13.1c2.3,0,4.2,1.9,4.2,4.2V200c0,2.3-1.9,4.2-4.2,4.2H106c-2.3,0-4.2-1.9-4.2-4.2v-32.6
									C101.8,165.2,103.7,163.3,106,163.3z"/>
							</g>
						</g>
					</g>
				</g>
				<g>
					<g>
						<g>
							<path class="st14" d="M109.1,200.6c0.6-1.5,8.5-10.8,8.5-10.8s-3.6,1.9-7.4,4.3c-3.8,2.4-7.2,2.7-7.2,0.4
								c-0.1-2.3,13.3-11.4,13.3-11.4s-3.7-1-7-1.7c-3.3-0.6-7.4-1.1-6.6-3.6c0.8-2.5,15.8-0.1,15.8-0.1l14.6-3.1
								c0.2-0.1,0.5-0.1,0.7-0.1l29.6-0.6c0,0-16.5,4.6-16.3,9.3c0.4,9.5,5,9.9,5,9.9l-16-1.6c-5.4,2.9-8,2.2-8,2.2
								s-1.9,4.2-3.2,7.3s-3.9,3.2-4.5,2.2c-0.5-1,2.7-10.4,2.7-10.4s-3.9,4.1-8,8C111,204.9,108.6,202.1,109.1,200.6z"/>
						</g>
					</g>
				</g>
				<g>
					<g>
						<g>
							<g>
								<path class="st12" d="M106.5,165.9h3.4c0.9,0,1.6,0.7,1.6,1.6v3c0,0.9-0.7,1.6-1.6,1.6h-3.4c-0.9,0-1.6-0.7-1.6-1.6v-3
									C104.8,166.7,105.6,165.9,106.5,165.9z"/>
							</g>
						</g>
					</g>
				</g>
			</g>
			<g>
				<g>
					<g>
						<path class="st5" d="M153.9,326.2c0,0,0.6,13.8,0.1,20c-0.8,9.9-2.7,26.8-10.4,33.6c-4.4,3.8-6.5,2.8-8.3-1.4
							c-1.4-3.2-2.6-8.2-4.5-14.3c-4.5-13.9-9.3-24.8-9.3-24.8l8.7-6.6l2.4,4.3c7.3-6,6.7-13.6,6.2-16.3l0.4,0.2l9.2,3.2
							L153.9,326.2z"/>
					</g>
				</g>
				<g>
					<g>
						<path class="st9" d="M153.9,326.2c0,0,0.6,13.8,0.1,20c-0.8,9.9-2.7,26.8-10.4,33.6c-4.4,3.8-6.5,2.8-8.3-1.4
							c2.9-0.2,7.8-2.3,11.2-12.6c4.8-14.2,2.3-37.3,1.8-41.6L153.9,326.2z"/>
					</g>
				</g>
				<g>
					<g>
						<path class="st16" d="M130.3,363.2c0.1,0,0.1,0,0.2-0.1l10.6-6c0.2-0.1,0.3-0.3,0.2-0.5l-8.3-19.7c-0.1-0.2-0.3-0.3-0.6-0.2
							c-0.2,0.1-0.3,0.3-0.2,0.6l8.2,19.3l-10.3,5.8c-0.2,0.1-0.3,0.4-0.2,0.6C130,363.1,130.1,363.2,130.3,363.2z"/>
					</g>
				</g>
				<g>
					<g>
						<line class="st1" x1="128.3" y1="356.9" x2="136.2" y2="352.2"/>
					</g>
					<g>
						<path class="st16" d="M128.3,357.3c0.1,0,0.1,0,0.2-0.1l8-4.7c0.2-0.1,0.3-0.4,0.2-0.6c-0.1-0.2-0.4-0.3-0.6-0.2l-8,4.7
							c-0.2,0.1-0.3,0.4-0.2,0.6C128,357.2,128.1,357.3,128.3,357.3z"/>
					</g>
				</g>
				<g>
					<g>
						<line class="st1" x1="126.4" y1="351.9" x2="134.4" y2="347.2"/>
					</g>
					<g>
						<path class="st16" d="M126.4,352.3c0.1,0,0.1,0,0.2-0.1l8-4.7c0.2-0.1,0.3-0.4,0.2-0.6c-0.1-0.2-0.4-0.3-0.6-0.2l-8,4.7
							c-0.2,0.1-0.3,0.4-0.2,0.6C126.1,352.3,126.3,352.3,126.4,352.3z"/>
					</g>
				</g>
				<g>
					<g>
						<line class="st1" x1="124.3" y1="346.6" x2="132.3" y2="341.9"/>
					</g>
					<g>
						<path class="st16" d="M124.3,347c0.1,0,0.1,0,0.2-0.1l8-4.7c0.2-0.1,0.3-0.4,0.2-0.6c-0.1-0.2-0.4-0.3-0.6-0.2l-8,4.7
							c-0.2,0.1-0.3,0.4-0.2,0.6C124,346.9,124.2,347,124.3,347z"/>
					</g>
				</g>
				<g>
					<g>
						
							<rect x="123.6" y="338" transform="matrix(0.8184 -0.5746 0.5746 0.8184 -172.0896 134.2129)" class="st1" width="5.3" height="2.7"/>
					</g>
					<g>
						<path class="st16" d="M124.5,342.3l-1.5-2.2c-0.1-0.1-0.1-0.2-0.1-0.3c0-0.1,0.1-0.2,0.2-0.3l4.4-3.1c0.1-0.1,0.2-0.1,0.3-0.1
							c0.1,0,0.2,0.1,0.3,0.2l1.5,2.2c0.1,0.2,0.1,0.5-0.1,0.6l-4.4,3.1c-0.1,0.1-0.2,0.1-0.2,0.1
							C124.8,342.4,124.6,342.4,124.5,342.3z M127.6,337.3l-3.7,2.6l1,1.5l3.7-2.6L127.6,337.3z"/>
					</g>
				</g>
				<g>
					<g>
						<path class="st4" d="M136.4,334.9l3.8-2.4c0.3-0.2,0.7,0,0.8,0.3l1.7,9.6c0.1,0.3,0.4,0.5,0.7,0.4l2.3-0.9
							c0.3-0.1,0.7,0.1,0.7,0.5l0.2,10.8c0,0.6-0.8,0.7-1,0.2l-2.5-6.8c-0.1-0.3-0.4-0.4-0.7-0.3l-2.8,1c-0.3,0.1-0.6-0.1-0.7-0.4
							l-2.7-11.6C136.2,335.2,136.2,335,136.4,334.9z"/>
					</g>
				</g>
			</g>
			<g>
				<g>
					<path class="st16" d="M104.2,279.6c0.1,0,0.2-0.1,0.3-0.2c0.1-0.2,0.1-0.5-0.1-0.6l-15.7-12.7c-0.2-0.1-0.5-0.1-0.6,0.1
						c-0.1,0.2-0.1,0.5,0.1,0.6l15.7,12.7C104.1,279.5,104.1,279.6,104.2,279.6z"/>
				</g>
			</g>
			<g>
				<g>
					<path class="st16" d="M190,252.4c0.1,0,0.2,0,0.3-0.1c0.2-0.2,0.2-0.4,0-0.6l-38.1-39.5c-0.2-0.2-0.4-0.2-0.6,0
						c-0.2,0.2-0.2,0.4,0,0.6l38.1,39.5C189.7,252.4,189.9,252.4,190,252.4z"/>
				</g>
			</g>
			<g>
				<g>
					<path class="st15" d="M149.6,262.3l-0.2-9.3l-22.9,1.3c0,0,0.9,12.4,0,16.4s14.9,3.6,14.9,3.6l9.2-7.8L149.6,262.3z"/>
				</g>
			</g>
			<g>
				<g>
					<path class="st16" d="M123,254.9C123,254.9,123,254.9,123,254.9l28.8-1.6c0.2,0,0.4-0.2,0.4-0.4V205c0-0.2-0.2-0.4-0.4-0.4
						c-0.2,0-0.4,0.2-0.4,0.4v47.5l-28,1.6l-2.2-18.2c0-0.2-0.2-0.4-0.5-0.4c-0.2,0-0.4,0.2-0.4,0.5l2.3,18.6
						C122.6,254.7,122.8,254.9,123,254.9z"/>
				</g>
			</g>
			<g>
				<g>
					<path class="st16" d="M169.9,173.6C169.9,173.6,169.9,173.6,169.9,173.6l13.3-0.9c0.2,0,0.4-0.2,0.4-0.5c0-0.2-0.2-0.4-0.5-0.4
						l-13.3,0.9c-0.2,0-0.4,0.2-0.4,0.5C169.5,173.4,169.7,173.6,169.9,173.6z"/>
				</g>
			</g>
			<g>
				<g>
					<path class="st16" d="M127.1,314c-0.1-0.1-14-12-27.6-24.2c-27.6-24.9-27.1-27-26.8-27.8c0-0.2,0.2-0.5,0.7-0.6
						c5.6-1,46.8-1.2,48.5-1.2c0,0,0,0,0,0c0.2,0,0.4,0.2,0.4,0.4c0,0.2-0.2,0.4-0.4,0.4c-0.4,0-42.9,0.2-48.4,1.2c0,0,0,0,0,0
						c0,0.3,0.3,1.8,7.8,9.4c4.4,4.4,10.7,10.3,18.7,17.5c13.6,12.2,27.5,24.1,27.6,24.2c0.2,0.2,0.2,0.4,0,0.6
						c-0.1,0.1-0.2,0.1-0.3,0.1C127.3,314.1,127.2,314.1,127.1,314z M73.5,262.3L73.5,262.3L73.5,262.3z"/>
				</g>
			</g>
			<g>
				<g>
					<g>
						<path class="st5" d="M157.8,275.7c0,0-8.3,11-12.7,15.6c-6.9,7.1-19,19-29.4,19.4c-5.8,0.2-6.8-2-5.5-6.3
							c1-3.4,3.2-8,5.5-13.9c5.3-13.5,8.5-25.1,8.5-25.1l10.9,0.5l-0.8,4.8c9.4-0.1,13.8-6.3,15.2-8.7l0.1,0.4l5,8.3L157.8,275.7z"
							/>
					</g>
				</g>
				<g>
					<g>
						<path class="st9" d="M157.8,275.7c0,0-8.3,11-12.7,15.6c-6.9,7.1-19,19-29.4,19.4c-5.8,0.2-6.8-2-5.5-6.3
							c2.4,1.7,7.5,3.2,16.7-2.6c12.7-8,25.4-27.3,27.8-31.1L157.8,275.7z"/>
					</g>
				</g>
				<g>
					<g>
						<path class="st16" d="M128.3,291.5c0.2,0,0.4-0.1,0.4-0.3l6.1-20.5c0.1-0.2-0.1-0.5-0.3-0.5c-0.2-0.1-0.5,0.1-0.5,0.3l-6,20.1
							l-11.6-2.1c-0.2,0-0.5,0.1-0.5,0.3c0,0.2,0.1,0.5,0.3,0.5L128.3,291.5C128.2,291.5,128.3,291.5,128.3,291.5z"/>
					</g>
				</g>
				<g>
					<g>
						<line class="st1" x1="118.5" y1="283.2" x2="127.6" y2="284.6"/>
					</g>
					<g>
						<path class="st16" d="M127.6,285c0.2,0,0.4-0.1,0.4-0.4c0-0.2-0.1-0.4-0.4-0.5l-9.1-1.4c-0.2,0-0.4,0.1-0.5,0.4
							c0,0.2,0.1,0.4,0.4,0.5L127.6,285C127.5,285,127.6,285,127.6,285z"/>
					</g>
				</g>
				<g>
					<g>
						<line class="st1" x1="120.2" y1="278.2" x2="129.3" y2="279.6"/>
					</g>
					<g>
						<path class="st16" d="M129.3,280.1c0.2,0,0.4-0.1,0.4-0.4c0-0.2-0.1-0.4-0.4-0.5l-9.1-1.4c-0.2,0-0.4,0.1-0.5,0.4
							c0,0.2,0.1,0.4,0.4,0.5L129.3,280.1C129.3,280.1,129.3,280.1,129.3,280.1z"/>
					</g>
				</g>
				<g>
					<g>
						<line class="st1" x1="121.9" y1="272.8" x2="131.1" y2="274.2"/>
					</g>
					<g>
						<path class="st16" d="M131.1,274.6c0.2,0,0.4-0.1,0.4-0.4c0-0.2-0.1-0.4-0.4-0.5l-9.1-1.4c-0.2,0-0.4,0.1-0.5,0.4
							c0,0.2,0.1,0.4,0.4,0.5L131.1,274.6C131,274.6,131,274.6,131.1,274.6z"/>
					</g>
				</g>
				<g>
					<g>
						
							<rect x="125.4" y="267.1" transform="matrix(0.9972 7.454597e-02 -7.454597e-02 0.9972 20.3668 -8.7983)" class="st1" width="5.3" height="2.7"/>
					</g>
					<g>
						<path class="st16" d="M130.6,270.4l-5.3-0.4c-0.1,0-0.2-0.1-0.3-0.1c-0.1-0.1-0.1-0.2-0.1-0.3l0.2-2.7c0-0.2,0.2-0.4,0.5-0.4
							l5.3,0.4c0.1,0,0.2,0.1,0.3,0.1c0.1,0.1,0.1,0.2,0.1,0.3L131,270c0,0.1-0.1,0.2-0.1,0.3C130.8,270.4,130.7,270.4,130.6,270.4
							C130.6,270.4,130.6,270.4,130.6,270.4z M125.9,267.4l-0.1,1.8l4.5,0.3l0.1-1.8L125.9,267.4z"/>
					</g>
				</g>
				<g>
					<g>
						<path class="st4" d="M138.7,271.4l4.5,0.6c0.4,0,0.6,0.4,0.4,0.8l-4.7,8.5c-0.2,0.3,0,0.6,0.3,0.7l2.3,0.8
							c0.3,0.1,0.4,0.5,0.2,0.8L135,292c-0.4,0.4-1.1,0.1-0.9-0.5l2.3-6.8c0.1-0.3,0-0.6-0.3-0.6l-2.9-1c-0.3-0.1-0.4-0.4-0.3-0.7
							l5.2-10.7C138.3,271.5,138.5,271.3,138.7,271.4z"/>
					</g>
				</g>
			</g>
			<g>
				<g>
					<path class="st16" d="M188.6,235.8c0.1,0,0.2,0,0.3-0.1c0.2-0.2,0.2-0.4,0-0.6l-11-12.7c-0.2-0.2-0.4-0.2-0.6,0
						c-0.2,0.2-0.2,0.4,0,0.6l11,12.7C188.3,235.7,188.5,235.8,188.6,235.8z"/>
				</g>
			</g>
		</g>
		<g>
			<g>
				<g>
					<path class="st14" d="M155.1,142.9l1.2,8.3l6-0.4c0,0-14.3,16.7-27.2,3.7l6.6-1.1l-0.1-6.4L155.1,142.9z"/>
				</g>
			</g>
			<g>
				<g>
					<path class="st12" d="M153.1,143.4c0,0-0.6,10.1-11.4,10l-0.3-5.9l5.8,0.6L153.1,143.4z"/>
				</g>
			</g>
			<g>
				<g>
					<g>
						<g>
							<g>
								<path class="st14" d="M135.3,126l-0.8,6.6c-0.3,8.4,1.1,12.2,3.8,14.7c1.8,1.6,4.1,2.4,6.4,2.4c10.6-0.3,13-9.5,13-9.5
									s0.6,0.5,2.2,0.8c4.1-0.7,6.5-6.8,3.4-8.9c-2.2-1.5-4.2-0.4-5.3,0.6c-0.1-1.5,0.1-2.7,0.1-3.4c-9.5-4.1-10.9-10.3-11.8-10.8
									C142.4,117.7,137.3,119.1,135.3,126z"/>
							</g>
						</g>
					</g>
				</g>
			</g>
			<g>
				<g>
					<g>
						<g>
							<g>
								<path class="st12" d="M153.3,129.8c-0.8-1.1-2.7-1.6-3.9-1.1c-0.5,0.2-0.3,0.9,0.2,1c0.5,0.1,1.1,0.1,1.7,0.2
									c0.5,0.1,1.1,0.3,1.6,0.4C153.2,130.4,153.6,130.1,153.3,129.8L153.3,129.8z"/>
							</g>
						</g>
					</g>
				</g>
			</g>
			<g>
				<g>
					<g>
						<g>
							<g>
								<path class="st12" d="M137.1,128c1-0.9,3-0.9,4.1-0.1c0.5,0.4,0.1,1-0.4,0.9c-0.6,0-1.1-0.2-1.7-0.2c-0.6,0-1.1,0.1-1.7,0.1
									C137.1,128.7,136.8,128.3,137.1,128L137.1,128z"/>
							</g>
						</g>
					</g>
				</g>
			</g>
			<g>
				<g>
					<path class="st11" d="M143.8,136.5c0.1,0,0.2,0,0.2-0.1c0.2-0.1,0.3-0.4,0.2-0.7c-0.1-0.3-0.4-0.4-0.5-0.5
						c-0.1,0-0.1-0.1-0.1-0.1c-0.1-0.1-0.2-0.3-0.1-0.6c0-0.2,0.1-0.5,0.2-0.8l0.1-0.2c0.3-0.8,0.5-1.6,0.6-2.4
						c0-0.3-0.2-0.5-0.4-0.5c-0.3,0-0.5,0.2-0.5,0.4c-0.1,0.7-0.2,1.5-0.5,2.2l-0.1,0.2c-0.1,0.3-0.2,0.6-0.3,1
						c-0.1,0.6,0.1,1.1,0.5,1.4c0.1,0.1,0.2,0.1,0.3,0.2c0.1,0,0.1,0.1,0.2,0.1C143.4,136.4,143.6,136.5,143.8,136.5z"/>
				</g>
			</g>
			<g>
				<g>
					<path class="st12" d="M148.6,132.6c0.1,0,0.2,0,0.3-0.1c0.1-0.1,1.5-1.6,4.1-0.2c0.2,0.1,0.4,0,0.6-0.2c0.1-0.2,0-0.4-0.2-0.6
						c-3.3-1.8-5.1,0.3-5.1,0.3c-0.1,0.2-0.1,0.4,0,0.6C148.4,132.6,148.5,132.6,148.6,132.6z"/>
				</g>
			</g>
			<g>
				<g>
					<path class="st12" d="M140.5,131.6c0.1,0,0.1,0,0.2-0.1c0.2-0.1,0.3-0.4,0.1-0.6c0,0-1.4-2.3-4.6-1.3c-0.2,0.1-0.3,0.3-0.3,0.5
						c0.1,0.2,0.3,0.3,0.5,0.3c2.6-0.8,3.7,0.9,3.7,1C140.2,131.5,140.4,131.6,140.5,131.6z"/>
				</g>
			</g>
			
				<image style="overflow:visible;" width="25" height="26" xlink:href="F5E5C0B9.png"  transform="matrix(0.24 0 0 0.24 148.08 135.84)">
			</image>
			
				<image style="overflow:visible;" width="25" height="26" xlink:href="F5E5C0BB.png"  transform="matrix(0.24 0 0 0.24 135.6 135.12)">
			</image>
			<g>
				<g>
					<path class="st12" d="M158.6,138.5C158.7,138.5,158.7,138.5,158.6,138.5c0.3,0,0.4-0.2,0.4-0.4c-0.1-1.9,0.2-3.1,1-3.7
						c1.1-0.8,2.7-0.2,2.7-0.1c0.2,0.1,0.4,0,0.5-0.2c0.1-0.2,0-0.4-0.2-0.5c-0.1,0-2.1-0.8-3.5,0.2c-1,0.8-1.5,2.2-1.4,4.4
						C158.3,138.4,158.4,138.5,158.6,138.5z"/>
				</g>
			</g>
			<g>
				<g>
					<path class="st12" d="M161,136.8c0.1,0,0.1,0,0.2,0c0.2-0.1,0.3-0.3,0.2-0.5c0-0.1-0.5-1-1.3-1.3c-0.3-0.1-0.7-0.1-1.3,0.2
						c-0.2,0.1-0.2,0.4-0.1,0.6c0.1,0.2,0.4,0.2,0.6,0.1c0.2-0.1,0.4-0.2,0.6-0.1c0.4,0.1,0.7,0.6,0.8,0.8
						C160.7,136.8,160.8,136.8,161,136.8z"/>
				</g>
			</g>
			<g>
				<g>
					<path class="st4" d="M158.8,142.8c-0.4-0.4-0.7-0.9-0.8-1.4c-0.1-0.6,0-1.2,0.3-1.7c0.3-0.5,0.9-0.9,1.5-1
						c0.2,0,0.5,0.1,0.6,0.2c0.1,0.2,0.1,0.4,0.1,0.5c-0.1,0.2-0.4,0.4-0.6,0.3c-0.3,0.1-0.5,0.3-0.7,0.5c-0.2,0.3-0.3,0.7-0.2,1
						c0.1,0.3,0.2,0.7,0.4,0.9c0.2,0.2,0.5,0.3,0.8,0.3c0.1,0,0.3-0.1,0.4-0.2c0.3-0.2,0.5-0.4,0.6-0.7c0.1-0.3,0-0.6-0.1-0.8
						c-0.2-0.2-0.1-0.5,0.1-0.7c0.2-0.2,0.5-0.1,0.7,0.1c0.4,0.5,0.5,1.1,0.3,1.7c-0.2,0.5-0.5,1-1,1.3c-0.3,0.2-0.5,0.3-0.8,0.3
						c-0.1,0-0.1,0-0.2,0C159.7,143.4,159.1,143.2,158.8,142.8z M159.6,139L159.6,139L159.6,139z"/>
				</g>
			</g>
			<g>
				<g>
					<path class="st4" d="M162.3,138.2c-0.2,0-0.4-0.2-0.4-0.3c-0.1-0.1-0.1-0.2-0.1-0.3c0-0.2,0.1-0.3,0.4-0.4c0,0,0,0,0,0l0.1,0
						c0.2-0.1,0.5,0,0.6,0.3l0.1,0.1c0.1,0.2,0,0.4-0.1,0.5c-0.1,0.2-0.3,0.2-0.5,0.2C162.4,138.2,162.3,138.2,162.3,138.2z
						 M162.3,137.2l0,0.3l0.1-0.3C162.4,137.2,162.4,137.2,162.3,137.2z"/>
				</g>
			</g>
			<g>
				<g>
					<path class="st12" d="M139.8,131.7c0.1-0.6-0.3-1.2-1-1.3s-1.2,0.3-1.3,1s0.3,1.2,1,1.3C139.1,132.8,139.7,132.3,139.8,131.7z"
						/>
				</g>
			</g>
			<g>
				<g>
					<path class="st12" d="M152.5,132.9c0.1-0.6-0.3-1.2-1-1.3s-1.2,0.3-1.3,1s0.3,1.2,1,1.3C151.8,133.9,152.4,133.5,152.5,132.9z"
						/>
				</g>
			</g>
			<g>
				<g>
					<path class="st1" d="M144.9,140.1c0.4-0.1,2.7-1.6,3.1-1.4c0.8,0.3,0.7,0.9,0.6,1.5c-0.1,1.2-0.9,2.3-1.9,2.9
						c-1.1,0.6-2.4,0.7-3.5,0.3c-1-0.4-2-1.2-2.1-2.3C140.6,138.6,143.4,140.4,144.9,140.1z"/>
				</g>
			</g>
		</g>
		<g>
			<g>
				<path class="st13" d="M155.5,144.5c0.7,4.1-0.8,6.9,0.5,11.5c1.3,4.6,5.6,4.8,7.9,2.1c2.3-2.7,1.1-7.9,4.5-8.4
					c3.4-0.5,5.2-2.9,5.2-2.9l-5.2-1.6L155.5,144.5z"/>
			</g>
		</g>
		<g>
			<g>
				<g>
					<path class="st13" d="M166.6,123.1c0.9,3.9,1.8,8.2,5.2,10.7c1.9,1.4,4.1,1.4,6.4,1.4c2,0,4,0.5,5.8,1.3
						c3.4,1.4,6.2,4.1,7.2,7.7c0.5,1.9,0.4,4,1.5,5.7c1.1,1.6,2.9,2.2,4.4,3.2c3.2,2.1,5.7,6.6,4.1,10.4c-0.6,1.3-2.4,0.7-2.4-0.6
						c0.1-1.6,0.1-3.1-0.6-4.6c-0.8-1.7-2.3-2.7-3.9-3.6c-1.7-1-3.3-2-4.4-3.6c-1.2-1.7-1.4-3.6-1.8-5.6c-0.6-3.8-3.9-6.3-7.4-7.4
						c-2-0.7-4.2-1-6.3-1.4c-1.7-0.3-3.2-1.1-4.5-2.3C167.2,131.6,166.7,127.1,166.6,123.1C166.6,123.1,166.6,123.1,166.6,123.1
						L166.6,123.1z"/>
				</g>
			</g>
		</g>
	</g>
	<g>
		<g>
			<path class="st2" d="M101.9,111.2c0,0-4.6-5.1-7.7-2.7c0,0-0.8-1.2-3-0.8c-2.2,0.4-3.5,4.5-3.5,4.5l6.5,13.9l4.4-0.4L101.9,111.2
				z"/>
		</g>
		<g>
			<path class="st17" d="M94.6,119.3c0.2,0,0.3-0.1,0.4-0.2l3.7-7.3c0.1-0.2,0-0.5-0.2-0.6c-0.2-0.1-0.5,0-0.6,0.2l-3.7,7.3
				c-0.1,0.2,0,0.5,0.2,0.6C94.4,119.3,94.5,119.3,94.6,119.3z"/>
		</g>
		<g>
			<path class="st17" d="M90.9,115c0.2,0,0.4-0.1,0.4-0.3c0.8-2.6,2.2-5,3.5-5.9c0.2-0.1,0.2-0.4,0.1-0.6c-0.1-0.2-0.4-0.2-0.6-0.1
				c-1.5,1-3,3.6-3.9,6.4c-0.1,0.2,0.1,0.5,0.3,0.5C90.8,115,90.9,115,90.9,115z"/>
		</g>
		<g>
			<path class="st14" d="M99.7,108.5c0.6-2.9,0.5-9.6,3.4-8.5c3.2,1.2,1.5,4.8,1.9,12c0.4,6.2,0.8,19.9,1,23.6
				c-4.4,1.5-9,2-13.6,2.5c-1-1.4-2.4-3.7-2.9-5.5c-0.7-2.8,0.7-7.2,0.2-8.8c-0.5-1.6-4.1-8.7-4.2-10.5c-0.1-1.9,4.2-2.8,5.3-0.6
				c1.2,2.2,5,8.2,6.4,8.4C98.5,121.4,99.1,111.2,99.7,108.5z"/>
		</g>
	</g>
</g>
<g>
	<g>
		<path class="st6" d="M424,226.3c-0.7-0.3-1.5-0.7-2.2-1c-0.4-0.2-0.9,0-1.1,0.4c-0.2,0.4,0,0.9,0.4,1.1c0.7,0.4,1.5,0.7,2.2,1
			c0.1,0,0.2,0.1,0.3,0.1c0.3,0,0.6-0.2,0.7-0.5C424.6,227,424.4,226.5,424,226.3z"/>
		<path class="st6" d="M452.2,232.3c-0.8,0-1.6,0-2.4-0.1c-0.5,0-0.8,0.3-0.8,0.8c0,0.4,0.3,0.8,0.8,0.8c0.8,0,1.6,0.1,2.5,0.1h0
			c0.4,0,0.8-0.4,0.8-0.8C453,232.7,452.6,232.3,452.2,232.3z"/>
		<path class="st6" d="M428.5,228.1c-0.8-0.3-1.5-0.6-2.3-0.9c-0.4-0.2-0.9,0-1.1,0.5c-0.2,0.4,0,0.9,0.5,1.1
			c0.8,0.3,1.5,0.6,2.3,0.9c0.1,0,0.2,0,0.3,0c0.3,0,0.6-0.2,0.8-0.5C429.1,228.7,428.9,228.3,428.5,228.1z"/>
		<path class="st6" d="M421.6,99c0.7-0.4,1.5-0.7,2.2-1c0.4-0.2,0.6-0.7,0.4-1.1c-0.2-0.4-0.7-0.6-1.1-0.4c-0.8,0.3-1.5,0.7-2.2,1.1
			c-0.4,0.2-0.6,0.7-0.4,1.1c0.1,0.3,0.4,0.5,0.7,0.5C421.3,99.1,421.4,99,421.6,99z"/>
		<path class="st6" d="M409.6,217.7c-0.4-0.3-0.9-0.2-1.1,0.1c-0.3,0.4-0.2,0.9,0.1,1.1c0.6,0.5,1.3,1,2,1.5
			c0.1,0.1,0.3,0.2,0.5,0.2c0.3,0,0.5-0.1,0.7-0.3c0.3-0.4,0.2-0.9-0.2-1.1C410.9,218.6,410.2,218.2,409.6,217.7z"/>
		<path class="st6" d="M430.5,95.3c0.8-0.3,1.5-0.5,2.3-0.7c0.4-0.1,0.7-0.6,0.6-1c-0.1-0.4-0.6-0.7-1-0.6c-0.8,0.2-1.6,0.5-2.4,0.7
			c-0.4,0.1-0.7,0.6-0.5,1c0.1,0.3,0.4,0.6,0.8,0.6C430.3,95.4,430.4,95.3,430.5,95.3z"/>
		<path class="st6" d="M415.5,221.8c-0.7-0.4-1.4-0.9-2-1.3c-0.4-0.3-0.9-0.2-1.1,0.2c-0.3,0.4-0.2,0.9,0.2,1.1
			c0.7,0.5,1.4,0.9,2.1,1.3c0.1,0.1,0.3,0.1,0.4,0.1c0.3,0,0.5-0.1,0.7-0.4C416,222.5,415.9,222,415.5,221.8z"/>
		<path class="st6" d="M419.7,224.2c-0.7-0.4-1.4-0.8-2.1-1.2c-0.4-0.2-0.9-0.1-1.1,0.3c-0.2,0.4-0.1,0.9,0.3,1.1
			c0.7,0.4,1.4,0.8,2.2,1.2c0.1,0.1,0.3,0.1,0.4,0.1c0.3,0,0.6-0.2,0.7-0.4C420.3,224.9,420.1,224.4,419.7,224.2z"/>
		<path class="st6" d="M426,97c0.7-0.3,1.5-0.6,2.3-0.9c0.4-0.2,0.6-0.6,0.5-1c-0.2-0.4-0.6-0.6-1-0.5c-0.8,0.3-1.5,0.6-2.3,0.9
			c-0.4,0.2-0.6,0.6-0.4,1.1c0.1,0.3,0.4,0.5,0.8,0.5C425.8,97.1,425.9,97,426,97z"/>
		<path class="st6" d="M442.5,231.6c-0.8-0.1-1.6-0.2-2.4-0.4c-0.4-0.1-0.9,0.2-0.9,0.7c-0.1,0.4,0.2,0.9,0.7,0.9
			c0.8,0.1,1.6,0.3,2.4,0.4c0,0,0.1,0,0.1,0c0.4,0,0.7-0.3,0.8-0.7C443.3,232.1,443,231.7,442.5,231.6z"/>
		<path class="st6" d="M447.3,232.1c-0.8-0.1-1.6-0.1-2.4-0.2c-0.4,0-0.8,0.3-0.9,0.7c0,0.4,0.3,0.8,0.7,0.9
			c0.8,0.1,1.6,0.2,2.5,0.2c0,0,0,0,0.1,0c0.4,0,0.8-0.3,0.8-0.8C448.1,232.6,447.8,232.2,447.3,232.1z"/>
		<path class="st6" d="M433.1,229.6c-0.8-0.2-1.5-0.5-2.3-0.7c-0.4-0.1-0.9,0.1-1,0.5c-0.1,0.4,0.1,0.9,0.5,1
			c0.8,0.3,1.6,0.5,2.4,0.7c0.1,0,0.2,0,0.2,0c0.4,0,0.7-0.2,0.8-0.6C433.8,230.2,433.5,229.7,433.1,229.6z"/>
		<path class="st6" d="M449.5,91.9c0.8,0,1.6-0.1,2.4-0.1c0.4,0,0.8-0.4,0.8-0.8c0-0.4-0.4-0.8-0.8-0.8h0c-0.8,0-1.7,0-2.5,0.1
			c-0.4,0-0.8,0.4-0.8,0.8C448.6,91.5,449,91.9,449.5,91.9C449.4,91.9,449.4,91.9,449.5,91.9z"/>
		<path class="st6" d="M444.6,92.2c0.8-0.1,1.6-0.2,2.4-0.2c0.4,0,0.8-0.4,0.7-0.9c0-0.4-0.4-0.8-0.9-0.7c-0.8,0.1-1.6,0.1-2.5,0.2
			c-0.4,0.1-0.8,0.5-0.7,0.9C443.8,91.9,444.1,92.2,444.6,92.2C444.6,92.2,444.6,92.2,444.6,92.2z"/>
		<path class="st6" d="M434.9,94c0.1,0,0.1,0,0.2,0c0.8-0.2,1.6-0.4,2.3-0.6c0.4-0.1,0.7-0.5,0.6-1c-0.1-0.4-0.5-0.7-1-0.6
			c-0.8,0.2-1.6,0.4-2.4,0.6c-0.4,0.1-0.7,0.6-0.6,1C434.3,93.7,434.6,94,434.9,94z"/>
		<path class="st6" d="M437.8,230.8c-0.8-0.2-1.6-0.4-2.4-0.5c-0.4-0.1-0.9,0.2-1,0.6c-0.1,0.4,0.2,0.9,0.6,1
			c0.8,0.2,1.6,0.4,2.4,0.6c0.1,0,0.1,0,0.2,0c0.4,0,0.7-0.3,0.8-0.6C438.5,231.3,438.2,230.9,437.8,230.8z"/>
		<path class="st6" d="M439.7,93c0,0,0.1,0,0.1,0c0.8-0.1,1.6-0.3,2.4-0.4c0.4-0.1,0.8-0.5,0.7-0.9c-0.1-0.4-0.5-0.8-0.9-0.7
			c-0.8,0.1-1.6,0.3-2.4,0.4c-0.4,0.1-0.7,0.5-0.7,0.9C439,92.7,439.3,93,439.7,93z"/>
		<path class="st6" d="M405.9,214.6c-0.3-0.3-0.9-0.3-1.1,0.1c-0.3,0.3-0.3,0.9,0.1,1.1c0.6,0.5,1.2,1.1,1.9,1.6
			c0.2,0.1,0.3,0.2,0.5,0.2c0.2,0,0.5-0.1,0.6-0.3c0.3-0.3,0.2-0.9-0.1-1.1C407.1,215.7,406.5,215.1,405.9,214.6z"/>
		<path class="st6" d="M513.7,127.4c0.4,0.7,0.8,1.4,1.2,2.1c0.1,0.3,0.4,0.4,0.7,0.4c0.1,0,0.3,0,0.4-0.1c0.4-0.2,0.6-0.7,0.3-1.1
			c-0.4-0.7-0.8-1.5-1.2-2.2c-0.2-0.4-0.7-0.5-1.1-0.3C513.6,126.5,513.5,127,513.7,127.4z"/>
		<path class="st6" d="M515.9,131.7c0.3,0.7,0.7,1.5,1,2.2c0.1,0.3,0.4,0.5,0.7,0.5c0.1,0,0.2,0,0.3-0.1c0.4-0.2,0.6-0.7,0.4-1.1
			c-0.3-0.8-0.7-1.5-1-2.2c-0.2-0.4-0.7-0.6-1.1-0.4C515.9,130.8,515.7,131.3,515.9,131.7z"/>
		<path class="st6" d="M511.1,123.3c0.4,0.7,0.9,1.4,1.3,2c0.2,0.3,0.4,0.4,0.7,0.4c0.1,0,0.3,0,0.4-0.1c0.4-0.2,0.5-0.7,0.3-1.1
			c-0.4-0.7-0.9-1.4-1.3-2.1c-0.2-0.4-0.8-0.5-1.1-0.2C511,122.4,510.9,122.9,511.1,123.3z"/>
		<path class="st6" d="M517.9,136.1c0.3,0.7,0.6,1.5,0.9,2.3c0.1,0.3,0.4,0.5,0.8,0.5c0.1,0,0.2,0,0.3,0c0.4-0.2,0.6-0.6,0.5-1
			c-0.3-0.8-0.6-1.6-0.9-2.3c-0.2-0.4-0.6-0.6-1.1-0.5C517.9,135.2,517.7,135.7,517.9,136.1z"/>
		<path class="st6" d="M523.2,153.9c-0.4,0-0.8,0.4-0.7,0.9c0.1,0.8,0.2,1.6,0.2,2.4c0,0.4,0.4,0.8,0.8,0.8c0,0,0,0,0.1,0
			c0.4,0,0.8-0.4,0.8-0.9c-0.1-0.8-0.1-1.6-0.2-2.5C524,154.2,523.6,153.9,523.2,153.9z"/>
		<path class="st6" d="M508.3,119.4c0.5,0.6,1,1.3,1.4,1.9c0.2,0.2,0.4,0.3,0.7,0.3c0.2,0,0.3,0,0.5-0.2c0.4-0.3,0.5-0.8,0.2-1.1
			c-0.5-0.7-1-1.3-1.5-2c-0.3-0.4-0.8-0.4-1.1-0.2C508.1,118.5,508.1,119,508.3,119.4z"/>
		<path class="st6" d="M521.4,144.3c-0.4,0.1-0.7,0.5-0.6,1c0.2,0.8,0.4,1.6,0.5,2.4c0.1,0.4,0.4,0.6,0.8,0.6c0.1,0,0.1,0,0.2,0
			c0.4-0.1,0.7-0.5,0.6-1c-0.2-0.8-0.3-1.6-0.5-2.4C522.3,144.5,521.8,144.2,521.4,144.3z"/>
		<path class="st6" d="M519.5,140.7c0.2,0.8,0.5,1.5,0.7,2.3c0.1,0.4,0.4,0.6,0.8,0.6c0.1,0,0.1,0,0.2,0c0.4-0.1,0.7-0.6,0.6-1
			c-0.2-0.8-0.5-1.6-0.7-2.4c-0.1-0.4-0.6-0.7-1-0.5C519.6,139.8,519.4,140.2,519.5,140.7z"/>
		<path class="st6" d="M506.8,117.5c0.2,0.2,0.4,0.3,0.6,0.3c0.2,0,0.4-0.1,0.5-0.2c0.3-0.3,0.4-0.8,0.1-1.1
			c-0.5-0.6-1.1-1.3-1.6-1.9c-0.3-0.3-0.8-0.4-1.1-0.1c-0.3,0.3-0.4,0.8-0.1,1.1C505.8,116.2,506.3,116.8,506.8,117.5z"/>
		<path class="st6" d="M394.7,202c-0.5-0.7-0.9-1.3-1.3-2c-0.2-0.4-0.7-0.5-1.1-0.2c-0.4,0.2-0.5,0.7-0.2,1.1
			c0.4,0.7,0.9,1.4,1.4,2.1c0.2,0.2,0.4,0.4,0.7,0.4c0.2,0,0.3,0,0.5-0.1C394.9,202.8,395,202.3,394.7,202z"/>
		<path class="st6" d="M397.6,205.8c-0.5-0.6-1-1.3-1.5-1.9c-0.3-0.4-0.8-0.4-1.1-0.2c-0.4,0.3-0.4,0.8-0.2,1.1c0.5,0.7,1,1.3,1.5,2
			c0.2,0.2,0.4,0.3,0.6,0.3c0.2,0,0.4-0.1,0.5-0.2C397.8,206.7,397.9,206.2,397.6,205.8z"/>
		<path class="st6" d="M399.1,207.7c-0.3-0.3-0.8-0.4-1.1-0.1c-0.3,0.3-0.4,0.8-0.1,1.1c0.5,0.6,1.1,1.2,1.6,1.9
			c0.2,0.2,0.4,0.3,0.6,0.3c0.2,0,0.4-0.1,0.5-0.2c0.3-0.3,0.4-0.8,0.1-1.2C400.2,208.9,399.6,208.3,399.1,207.7z"/>
		<path class="st6" d="M416.5,101.3c0.1,0.1,0.2,0.1,0.4,0.1c0.1,0,0.3,0,0.4-0.1c0.7-0.4,1.4-0.8,2.1-1.2c0.4-0.2,0.5-0.7,0.3-1.1
			c-0.2-0.4-0.7-0.5-1.1-0.3c-0.4,0.2-0.9,0.5-1.3,0.7C417.1,100,416.8,100.7,416.5,101.3z"/>
		<path class="st6" d="M402.4,211.3c-0.3-0.3-0.8-0.3-1.2,0c-0.3,0.3-0.3,0.8,0,1.2c0.6,0.6,1.2,1.2,1.8,1.7
			c0.2,0.2,0.4,0.2,0.6,0.2c0.2,0,0.4-0.1,0.6-0.3c0.3-0.3,0.3-0.8,0-1.2C403.5,212.4,402.9,211.8,402.4,211.3z"/>
		<path class="st6" d="M392.1,197.9c-0.4-0.7-0.8-1.4-1.2-2.1c-0.2-0.4-0.7-0.5-1.1-0.3c-0.4,0.2-0.5,0.7-0.3,1.1
			c0.4,0.7,0.8,1.4,1.2,2.1c0.2,0.3,0.4,0.4,0.7,0.4c0.1,0,0.3,0,0.4-0.1C392.2,198.8,392.3,198.3,392.1,197.9z"/>
		<path class="st6" d="M389.8,193.7c-0.4-0.7-0.7-1.4-1.1-2.2c-0.2-0.4-0.6-0.5-0.9-0.4c-0.2,0.3-0.4,0.7-0.6,1c0,0,0,0.1,0,0.1
			c0.3,0.7,0.7,1.5,1.1,2.2c0.1,0.3,0.4,0.4,0.7,0.4c0.1,0,0.2,0,0.4-0.1C389.8,194.5,390,194.1,389.8,193.7z"/>
		<path class="st6" d="M521.8,150.1c0.1,0.8,0.3,1.6,0.4,2.4c0.1,0.4,0.4,0.7,0.8,0.7c0,0,0.1,0,0.1,0c0.4-0.1,0.8-0.5,0.7-0.9
			c-0.1-0.8-0.2-1.6-0.4-2.4c-0.1-0.4-0.5-0.7-0.9-0.7C522,149.2,521.7,149.6,521.8,150.1z"/>
		<path class="st6" d="M503.9,210c-0.5,0.6-1.1,1.2-1.7,1.7c-0.3,0.3-0.3,0.8,0,1.2c0.2,0.2,0.4,0.2,0.6,0.2c0.2,0,0.4-0.1,0.6-0.2
			c0.6-0.6,1.2-1.2,1.7-1.8c0.3-0.3,0.3-0.8,0-1.2C504.7,209.7,504.2,209.7,503.9,210z"/>
		<path class="st6" d="M504.2,114.1c0.2,0,0.4-0.1,0.6-0.2c0.3-0.3,0.3-0.8,0-1.2c-0.6-0.6-1.1-1.2-1.7-1.8c-0.3-0.3-0.8-0.3-1.2,0
			c-0.3,0.3-0.3,0.8,0,1.2c0.6,0.6,1.1,1.1,1.7,1.7C503.8,114,504,114.1,504.2,114.1z"/>
		<path class="st6" d="M507.1,206.4c-0.5,0.6-1,1.2-1.6,1.8c-0.3,0.3-0.3,0.9,0.1,1.1c0.2,0.1,0.3,0.2,0.5,0.2
			c0.2,0,0.5-0.1,0.6-0.3c0.5-0.6,1.1-1.3,1.6-1.9c0.3-0.3,0.2-0.9-0.1-1.1C507.9,206,507.4,206,507.1,206.4z"/>
		<path class="st6" d="M513.7,198.2c-0.4-0.2-0.9-0.1-1.1,0.3c-0.4,0.7-0.8,1.4-1.3,2c-0.2,0.4-0.1,0.9,0.2,1.1
			c0.1,0.1,0.3,0.1,0.4,0.1c0.3,0,0.5-0.1,0.7-0.4c0.5-0.7,0.9-1.4,1.3-2.1C514.3,199,514.1,198.5,513.7,198.2z"/>
		<path class="st6" d="M496.6,107.3c0.2,0.1,0.3,0.2,0.5,0.2c0.2,0,0.5-0.1,0.6-0.3c0.3-0.4,0.2-0.9-0.1-1.1c-0.6-0.5-1.3-1-1.9-1.5
			c-0.4-0.3-0.9-0.2-1.1,0.2c-0.3,0.4-0.2,0.9,0.2,1.1C495.3,106.3,495.9,106.8,496.6,107.3z"/>
		<path class="st6" d="M500.5,213.4c-0.6,0.5-1.2,1.1-1.8,1.6c-0.3,0.3-0.4,0.8-0.1,1.1c0.2,0.2,0.4,0.3,0.6,0.3
			c0.2,0,0.4-0.1,0.5-0.2c0.6-0.5,1.2-1.1,1.8-1.7c0.3-0.3,0.3-0.8,0-1.2C501.3,213.1,500.8,213.1,500.5,213.4z"/>
		<path class="st6" d="M496.8,216.6c-0.6,0.5-1.3,1-1.9,1.5c-0.4,0.3-0.4,0.8-0.2,1.1c0.2,0.2,0.4,0.3,0.6,0.3
			c0.2,0,0.3-0.1,0.5-0.2c0.7-0.5,1.3-1,1.9-1.5c0.3-0.3,0.4-0.8,0.1-1.1C497.7,216.4,497.2,216.3,496.8,216.6z"/>
		<path class="st6" d="M500.8,110.7c0.2,0,0.4-0.1,0.6-0.3c0.3-0.3,0.3-0.8,0-1.2c-0.6-0.6-1.2-1.1-1.8-1.6
			c-0.3-0.3-0.9-0.3-1.1,0.1c-0.3,0.3-0.3,0.9,0.1,1.1c0.6,0.5,1.2,1.1,1.8,1.6C500.4,110.6,500.6,110.7,500.8,110.7z"/>
		<path class="st6" d="M510,202.5c-0.5,0.7-0.9,1.3-1.4,1.9c-0.3,0.4-0.2,0.9,0.2,1.1c0.1,0.1,0.3,0.2,0.5,0.2
			c0.2,0,0.5-0.1,0.6-0.3c0.5-0.7,1-1.3,1.5-2c0.3-0.4,0.2-0.9-0.2-1.1C510.8,202.1,510.2,202.2,510,202.5z"/>
		<path class="st6" d="M522.4,175.5c-0.4-0.1-0.9,0.2-1,0.6c-0.2,0.8-0.3,1.6-0.5,2.4c-0.1,0.4,0.2,0.9,0.6,1c0.1,0,0.1,0,0.2,0
			c0.4,0,0.7-0.3,0.8-0.6c0.2-0.8,0.4-1.6,0.5-2.4C523.1,176.1,522.8,175.6,522.4,175.5z"/>
		<path class="st6" d="M523.1,170.7c-0.4-0.1-0.9,0.3-0.9,0.7c-0.1,0.8-0.2,1.6-0.4,2.4c-0.1,0.4,0.2,0.9,0.7,0.9c0,0,0.1,0,0.1,0
			c0.4,0,0.7-0.3,0.8-0.7c0.1-0.8,0.3-1.6,0.4-2.4C523.9,171.2,523.6,170.8,523.1,170.7z"/>
		<path class="st6" d="M523.5,165.8c-0.4,0-0.8,0.3-0.9,0.8c-0.1,0.8-0.1,1.6-0.2,2.4c0,0.4,0.3,0.8,0.7,0.9c0,0,0.1,0,0.1,0
			c0.4,0,0.8-0.3,0.8-0.7c0.1-0.8,0.1-1.6,0.2-2.5C524.3,166.3,524,165.9,523.5,165.8z"/>
		<path class="st6" d="M524.4,159.6c0-0.4-0.4-0.8-0.8-0.8c0,0,0,0,0,0c-0.4,0-0.8,0.4-0.8,0.8c0,0.8,0,1.6,0,2.4c0,0.7,0,1.4,0,2.1
			c0,0.4,0.3,0.8,0.8,0.8c0,0,0,0,0,0c0.4,0,0.8-0.3,0.8-0.8c0-0.7,0-1.5,0-2.2C524.4,161.2,524.4,160.4,524.4,159.6z"/>
		<path class="st6" d="M516.1,194c-0.4-0.2-0.9-0.1-1.1,0.3c-0.4,0.7-0.8,1.4-1.1,2.1c-0.2,0.4-0.1,0.9,0.3,1.1
			c0.1,0.1,0.3,0.1,0.4,0.1c0.3,0,0.6-0.1,0.7-0.4c0.4-0.7,0.8-1.4,1.2-2.2C516.6,194.7,516.5,194.2,516.1,194z"/>
		<path class="st6" d="M456.7,91.9C456.7,91.9,456.7,91.9,456.7,91.9c0.5,0,0.8-0.3,0.9-0.8c0-0.4-0.3-0.8-0.8-0.9
			c-0.8,0-1.6-0.1-2.5-0.1c-0.4,0-0.8,0.3-0.8,0.8c0,0.4,0.3,0.8,0.8,0.8C455.1,91.8,455.9,91.9,456.7,91.9z"/>
		<path class="st6" d="M519.9,185c-0.4-0.1-0.9,0.1-1,0.5c-0.3,0.8-0.5,1.5-0.8,2.3c-0.2,0.4,0,0.9,0.5,1.1c0.1,0,0.2,0.1,0.3,0.1
			c0.3,0,0.6-0.2,0.8-0.5c0.3-0.8,0.6-1.5,0.9-2.3C520.5,185.6,520.3,185.1,519.9,185z"/>
		<path class="st6" d="M521.3,180.3c-0.4-0.1-0.9,0.1-1,0.6c-0.2,0.8-0.4,1.5-0.7,2.3c-0.1,0.4,0.1,0.9,0.5,1c0.1,0,0.2,0,0.2,0
			c0.3,0,0.7-0.2,0.8-0.6c0.2-0.8,0.5-1.6,0.7-2.4C522,180.9,521.7,180.4,521.3,180.3z"/>
		<path class="st6" d="M518.1,189.5c-0.4-0.2-0.9,0-1.1,0.4c-0.3,0.7-0.7,1.5-1,2.2c-0.2,0.4,0,0.9,0.4,1.1c0.1,0.1,0.2,0.1,0.3,0.1
			c0.3,0,0.6-0.2,0.7-0.5c0.3-0.7,0.7-1.5,1-2.2C518.7,190.2,518.5,189.7,518.1,189.5z"/>
		<path class="st6" d="M466.3,93.1c0.1,0,0.1,0,0.2,0c0.4,0,0.7-0.3,0.8-0.7c0.1-0.4-0.2-0.9-0.6-1c-0.8-0.2-1.6-0.3-2.4-0.4
			c-0.4-0.1-0.9,0.2-0.9,0.7c-0.1,0.4,0.2,0.9,0.7,0.9C464.7,92.8,465.5,93,466.3,93.1z"/>
		<path class="st6" d="M466.5,230.9c-0.8,0.2-1.6,0.3-2.4,0.4c-0.4,0.1-0.7,0.5-0.7,0.9c0.1,0.4,0.4,0.7,0.8,0.7c0,0,0.1,0,0.1,0
			c0.8-0.1,1.6-0.3,2.4-0.4c0.4-0.1,0.7-0.5,0.6-1C467.4,231.1,467,230.8,466.5,230.9z"/>
		<path class="st6" d="M468.6,93.6c0.8,0.2,1.6,0.4,2.3,0.6c0.1,0,0.1,0,0.2,0c0.4,0,0.7-0.2,0.8-0.6c0.1-0.4-0.1-0.9-0.6-1
			c-0.8-0.2-1.6-0.4-2.4-0.6c-0.4-0.1-0.9,0.2-1,0.6C467.9,93.1,468.2,93.5,468.6,93.6z"/>
		<path class="st6" d="M471.2,229.8c-0.8,0.2-1.6,0.4-2.3,0.6c-0.4,0.1-0.7,0.5-0.6,1c0.1,0.4,0.4,0.6,0.8,0.6c0.1,0,0.1,0,0.2,0
			c0.8-0.2,1.6-0.4,2.4-0.6c0.4-0.1,0.7-0.6,0.6-1C472.1,229.9,471.7,229.7,471.2,229.8z"/>
		<path class="st6" d="M473.3,94.9c0.8,0.2,1.5,0.5,2.3,0.8c0.1,0,0.2,0,0.3,0c0.3,0,0.7-0.2,0.8-0.5c0.1-0.4-0.1-0.9-0.5-1
			c-0.8-0.3-1.6-0.5-2.3-0.8c-0.4-0.1-0.9,0.1-1,0.5C472.6,94.3,472.9,94.8,473.3,94.9z"/>
		<path class="st6" d="M457,232.2c-0.8,0-1.6,0.1-2.4,0.1c-0.4,0-0.8,0.4-0.8,0.8c0,0.4,0.4,0.8,0.8,0.8c0,0,0,0,0,0
			c0.8,0,1.7-0.1,2.5-0.1c0.4,0,0.8-0.4,0.8-0.9C457.8,232.5,457.4,232.2,457,232.2z"/>
		<path class="st6" d="M461.8,231.7c-0.8,0.1-1.6,0.2-2.4,0.3c-0.4,0-0.8,0.4-0.7,0.9c0,0.4,0.4,0.7,0.8,0.7c0,0,0.1,0,0.1,0
			c0.8-0.1,1.6-0.2,2.5-0.3c0.4-0.1,0.8-0.5,0.7-0.9C462.6,232,462.2,231.7,461.8,231.7z"/>
		<path class="st6" d="M461.5,92.4c0,0,0.1,0,0.1,0c0.4,0,0.8-0.3,0.8-0.7c0.1-0.4-0.3-0.9-0.7-0.9c-0.8-0.1-1.6-0.2-2.5-0.3
			c-0.4,0-0.8,0.3-0.9,0.7c0,0.4,0.3,0.8,0.7,0.9C459.9,92.2,460.7,92.3,461.5,92.4z"/>
		<path class="st6" d="M484.7,224.5c-0.7,0.4-1.4,0.7-2.2,1.1c-0.4,0.2-0.6,0.7-0.4,1.1c0.1,0.3,0.4,0.5,0.7,0.5
			c0.1,0,0.2,0,0.3-0.1c0.7-0.4,1.5-0.7,2.2-1.1c0.4-0.2,0.6-0.7,0.4-1.1C485.6,224.5,485.1,224.3,484.7,224.5z"/>
		<path class="st6" d="M493,219.5c-0.7,0.5-1.3,0.9-2,1.4c-0.4,0.2-0.5,0.8-0.2,1.1c0.2,0.2,0.4,0.4,0.7,0.4c0.2,0,0.3,0,0.4-0.1
			c0.7-0.4,1.4-0.9,2-1.4c0.4-0.3,0.5-0.8,0.2-1.1C493.9,219.4,493.4,219.3,493,219.5z"/>
		<path class="st6" d="M488.7,101.8c0.1,0.1,0.3,0.1,0.4,0.1c0.3,0,0.5-0.1,0.7-0.4c0.2-0.4,0.1-0.9-0.3-1.1
			c-0.7-0.4-1.4-0.8-2.1-1.2c-0.4-0.2-0.9-0.1-1.1,0.3c-0.2,0.4-0.1,0.9,0.3,1.1C487.3,101,488,101.4,488.7,101.8z"/>
		<path class="st6" d="M489,222.2c-0.7,0.4-1.4,0.8-2.1,1.2c-0.4,0.2-0.5,0.7-0.3,1.1c0.1,0.3,0.4,0.4,0.7,0.4c0.1,0,0.3,0,0.4-0.1
			c0.7-0.4,1.4-0.8,2.1-1.2c0.4-0.2,0.5-0.7,0.3-1.1C489.8,222.1,489.3,221.9,489,222.2z"/>
		<path class="st6" d="M492.7,104.4c0.1,0.1,0.3,0.1,0.5,0.1c0.3,0,0.5-0.1,0.7-0.3c0.3-0.4,0.2-0.9-0.2-1.1c-0.7-0.5-1.4-0.9-2-1.4
			c-0.4-0.2-0.9-0.1-1.1,0.2c-0.2,0.4-0.1,0.9,0.2,1.1C491.4,103.5,492,103.9,492.7,104.4z"/>
		<path class="st6" d="M484.4,99.4c0.1,0.1,0.2,0.1,0.4,0.1c0.3,0,0.6-0.2,0.7-0.4c0.2-0.4,0-0.9-0.4-1.1c-0.7-0.4-1.5-0.7-2.2-1.1
			c-0.4-0.2-0.9,0-1.1,0.4c-0.2,0.4,0,0.9,0.4,1.1C483,98.7,483.7,99.1,484.4,99.4z"/>
		<path class="st6" d="M480.1,97.4c0.1,0,0.2,0.1,0.3,0.1c0.3,0,0.6-0.2,0.7-0.5c0.2-0.4,0-0.9-0.4-1.1c-0.7-0.3-1.5-0.6-2.3-0.9
			c-0.4-0.2-0.9,0-1.1,0.5c-0.2,0.4,0,0.9,0.5,1.1C478.6,96.8,479.3,97.1,480.1,97.4z"/>
		<path class="st6" d="M480.4,226.6c-0.7,0.3-1.5,0.6-2.2,0.9c-0.4,0.2-0.6,0.6-0.5,1.1c0.1,0.3,0.4,0.5,0.8,0.5
			c0.1,0,0.2,0,0.3-0.1c0.8-0.3,1.5-0.6,2.3-0.9c0.4-0.2,0.6-0.7,0.4-1.1C481.3,226.6,480.8,226.4,480.4,226.6z"/>
		<path class="st6" d="M475.9,228.4c-0.8,0.3-1.5,0.5-2.3,0.8c-0.4,0.1-0.7,0.6-0.5,1c0.1,0.3,0.4,0.6,0.8,0.6c0.1,0,0.2,0,0.2,0
			c0.8-0.2,1.6-0.5,2.4-0.8c0.4-0.1,0.6-0.6,0.5-1C476.7,228.4,476.3,228.2,475.9,228.4z"/>
	</g>
</g>
<g>
	<g>
		<path class="st0" d="M532.3,200.7c0,4-1,7.7-2.7,11c-1.6,3.2-4,5.9-6.8,8c-3.6,2.7-8,4.5-12.8,4.8c-0.5,0-1.1,0.1-1.7,0.1
			c-0.4,0-0.7,0-1.1,0c-4.9-0.2-9.5-2-13.2-4.8c-2.7-2-4.9-4.5-6.5-7.4c-1.9-3.4-3-7.4-3-11.7c0-13.2,10.7-23.9,23.9-23.9
			S532.3,187.5,532.3,200.7z"/>
	</g>
</g>
<g>
	<g>
		<path class="st0" d="M494.2,92.1c0,4-1,7.7-2.7,11c-1.6,3.2-4,5.9-6.8,8c-3.6,2.7-8,4.5-12.8,4.8c-0.5,0-1.1,0.1-1.7,0.1
			c-0.4,0-0.7,0-1.1,0c-4.9-0.2-9.5-2-13.2-4.8c-2.7-2-4.9-4.5-6.5-7.4c-1.9-3.4-3-7.4-3-11.7c0-13.2,10.7-23.9,23.9-23.9
			C483.5,68.2,494.2,78.9,494.2,92.1z"/>
	</g>
</g>
<g>
	<g>
		<path class="st0" d="M538.6,134.9c0,4-1,7.7-2.7,11c-1.6,3.2-4,5.9-6.8,8c-3.6,2.7-8,4.5-12.8,4.8c-0.5,0-1.1,0.1-1.7,0.1
			c-0.4,0-0.7,0-1.1,0c-4.9-0.2-9.5-2-13.2-4.8c-2.7-2-4.9-4.5-6.5-7.4c-1.9-3.4-3-7.4-3-11.7c0-13.2,10.7-23.9,23.9-23.9
			S538.6,121.7,538.6,134.9z"/>
	</g>
</g>
<g>
	<g>
		<g>
			<path class="st1" d="M474.9,101.2c-0.1,0.2-0.1,0.4-0.1,0.6c0,0.2,0,0.3,0.1,0.5H467c0-0.2,0.1-0.3,0.1-0.5c0-0.2,0-0.4-0.1-0.6
				H474.9z"/>
		</g>
	</g>
	<g>
		<g>
			<path class="st1" d="M481.9,101.7c0,0.3-0.2,0.5-0.5,0.5h-2.8c0-0.2,0.1-0.3,0.1-0.5c0-0.2,0-0.4-0.1-0.6h2.8
				C481.7,101.2,481.9,101.4,481.9,101.7z"/>
		</g>
	</g>
	<g>
		<g>
			<path class="st1" d="M483.5,83.8v11.9c0,1.8-1.5,3.3-3.3,3.3h-19.5c-0.6,0-1.1,0.5-1.1,1.1c0,0.6,0.5,1.1,1.1,1.1h2.5
				c-0.1,0.2-0.1,0.4-0.1,0.6c0,0.2,0,0.3,0.1,0.5h-2.5c-1.2,0-2.2-1-2.2-2.2c0-1.2,1-2.2,2.2-2.2h19.5c1.2,0,2.2-1,2.2-2.2V84.3
				h-22.8c-0.3,0-0.5-0.2-0.5-0.5c0-0.3,0.2-0.5,0.5-0.5H483C483.2,83.3,483.5,83.5,483.5,83.8z"/>
		</g>
	</g>
	<g>
		<g>
			<path class="st1" d="M461.6,98.7c-0.3,0-0.5-0.2-0.5-0.5L458.5,82l-2.1-0.2c-0.3,0-0.5-0.3-0.5-0.6c0-0.3,0.3-0.5,0.6-0.5L459,81
				c0.2,0,0.4,0.2,0.5,0.5l2.7,16.7C462.2,98.4,462,98.7,461.6,98.7C461.7,98.7,461.6,98.7,461.6,98.7z"/>
		</g>
	</g>
	<g>
		<g>
			<path class="st1" d="M465.1,98.8c-0.3,0-0.5-0.2-0.5-0.5V83.8c0-0.3,0.2-0.5,0.5-0.5s0.5,0.2,0.5,0.5v14.4
				C465.6,98.5,465.4,98.8,465.1,98.8z"/>
		</g>
	</g>
	<g>
		<g>
			<path class="st1" d="M469.5,98.8c-0.3,0-0.5-0.2-0.5-0.5V83.8c0-0.3,0.2-0.5,0.5-0.5s0.5,0.2,0.5,0.5v14.4
				C470.1,98.5,469.8,98.8,469.5,98.8z"/>
		</g>
	</g>
	<g>
		<g>
			<path class="st1" d="M474.2,98.8c-0.3,0-0.5-0.2-0.5-0.5V83.8c0-0.3,0.2-0.5,0.5-0.5s0.5,0.2,0.5,0.5v14.4
				C474.7,98.5,474.5,98.8,474.2,98.8z"/>
		</g>
	</g>
	<g>
		<g>
			<path class="st1" d="M478.7,98.8c-0.3,0-0.5-0.2-0.5-0.5V83.8c0-0.3,0.2-0.5,0.5-0.5s0.5,0.2,0.5,0.5v14.4
				C479.3,98.5,479,98.8,478.7,98.8z"/>
		</g>
	</g>
	<g>
		<g>
			<path class="st1" d="M454.9,82.9c-1.1,0-1.9-0.9-1.9-1.9s0.9-1.9,1.9-1.9c1.1,0,1.9,0.9,1.9,1.9S456,82.9,454.9,82.9z
				 M454.9,80.1c-0.5,0-0.8,0.4-0.8,0.8c0,0.5,0.4,0.8,0.8,0.8c0.5,0,0.8-0.4,0.8-0.8C455.8,80.5,455.4,80.1,454.9,80.1z"/>
		</g>
	</g>
	<g>
		<g>
			<g>
				<path class="st1" d="M465.2,104.2c-1.4,0-2.5-1.1-2.5-2.5c0-1.4,1.1-2.5,2.5-2.5s2.5,1.1,2.5,2.5
					C467.6,103.1,466.5,104.2,465.2,104.2z M465.2,100.4c-0.8,0-1.4,0.6-1.4,1.4c0,0.8,0.6,1.4,1.4,1.4s1.4-0.6,1.4-1.4
					C466.6,101,465.9,100.4,465.2,100.4z"/>
			</g>
		</g>
	</g>
	<g>
		<g>
			<g>
				<path class="st1" d="M476.7,104.2c-1.4,0-2.5-1.1-2.5-2.5c0-1.4,1.1-2.5,2.5-2.5c1.4,0,2.5,1.1,2.5,2.5
					C479.2,103.1,478.1,104.2,476.7,104.2z M476.7,100.4c-0.8,0-1.4,0.6-1.4,1.4c0,0.8,0.6,1.4,1.4,1.4c0.8,0,1.4-0.6,1.4-1.4
					C478.1,101,477.5,100.4,476.7,100.4z"/>
			</g>
		</g>
	</g>
</g>
<g>
	<g>
		
			<rect x="263.7" y="262.3" transform="matrix(-0.9444 -0.3288 0.3288 -0.9444 528.747 687.2228)" class="st18" width="117.6" height="73.3"/>
	</g>
	<g>
		<path class="st17" d="M365.5,353l-14-43l-37.7,25.1c-0.2,0.1-0.5,0.1-0.6,0c-0.2-0.1-0.3-0.4-0.2-0.6l24.1-69.3
			c0.1-0.2,0.3-0.4,0.5-0.4c0.2,0,0.4,0.2,0.5,0.4l14,43.1l37.7-25.1c0.3-0.2,0.6-0.1,0.8,0.2c0.2,0.3,0.1,0.6-0.2,0.8l-38,25.3
			l14.1,43.3c0.1,0.3-0.1,0.6-0.4,0.7c-0.1,0-0.1,0-0.2,0C365.7,353.4,365.5,353.3,365.5,353z M337.5,267.1l-23,66.2l36.6-24.4
			L337.5,267.1z"/>
	</g>
	<g>
		<g>
			<path class="st17" d="M278.4,304c-0.6-0.2-1.1-0.1-1.6,0.1c-0.2-0.5-0.6-0.9-1.2-1.1c-0.6-0.2-1.1-0.1-1.6,0.1
				c-0.2-0.5-0.6-0.9-1.2-1.1c-0.6-0.2-1.2-0.1-1.7,0.2c-0.2-0.5-0.6-1-1.2-1.2c-0.6-0.2-1.1-0.1-1.6,0.1c-0.2-0.5-0.6-0.9-1.2-1.1
				c-0.4-0.1-0.7-0.1-1.1-0.1c1.7-3,5.3-4.4,8.7-3.2c3.5,1.2,5.5,4.8,4.8,8.3C279.4,304.6,279,304.2,278.4,304z"/>
		</g>
		<g>
			<path class="st17" d="M270.5,311.9c0.7,0.3,1.5-0.1,1.8-0.9l0.2-0.7c0.1-0.2,0-0.4-0.2-0.5c-0.2-0.1-0.4,0-0.5,0.2l-0.2,0.7
				c-0.1,0.3-0.4,0.5-0.8,0.4c-0.3-0.1-0.5-0.4-0.4-0.8l2.5-7.1c0.1-0.2,0-0.4-0.2-0.5c-0.2-0.1-0.4,0-0.5,0.2l-2.5,7.1
				C269.4,310.9,269.8,311.7,270.5,311.9z"/>
		</g>
		<g>
			<path class="st17" d="M274.6,297.8c0.2,0.1,0.4,0,0.5-0.2l0.5-1.5c0.1-0.2,0-0.4-0.2-0.5c-0.2-0.1-0.4,0-0.5,0.2l-0.5,1.5
				C274.3,297.5,274.4,297.7,274.6,297.8z"/>
		</g>
	</g>
	<g>
		
			<rect x="281.3" y="315.1" transform="matrix(-0.9444 -0.3288 0.3288 -0.9444 452.8985 708.9142)" class="st17" width="10.2" height="2.2"/>
	</g>
	<g>
		<g>
			
				<rect x="281.1" y="307.4" transform="matrix(-0.3288 0.9444 -0.9444 -0.3288 671.717 139.6804)" class="st17" width="10.2" height="2.2"/>
		</g>
		<g>
			<polygon class="st17" points="289.4,305 285.9,303.8 288.3,302.5 			"/>
		</g>
	</g>
	<g>
		<g>
			
				<rect x="286.1" y="309.2" transform="matrix(-0.3288 0.9444 -0.9444 -0.3288 679.8712 137.3087)" class="st17" width="10.2" height="2.2"/>
		</g>
		<g>
			<polygon class="st17" points="294.3,306.7 290.9,305.5 293.3,304.2 			"/>
		</g>
	</g>
	<g>
		<g>
			
				<rect x="275.4" y="270.1" transform="matrix(-0.9444 -0.3288 0.3288 -0.9444 468.7091 629.0593)" class="st1" width="24.2" height="9.7"/>
		</g>
		<g>
			<path class="st17" d="M297.8,276.7c0.2,0,0.4-0.1,0.5-0.4c0.1-0.3-0.1-0.6-0.3-0.7l-8.7-3c-0.3-0.1-0.6,0.1-0.7,0.3
				c-0.1,0.3,0.1,0.6,0.3,0.7l8.7,3C297.6,276.7,297.7,276.7,297.8,276.7z"/>
		</g>
		<g>
			<path class="st17" d="M297,278.9c0.2,0,0.4-0.1,0.5-0.4c0.1-0.3-0.1-0.6-0.3-0.7l-5.7-2c-0.3-0.1-0.6,0.1-0.7,0.3
				c-0.1,0.3,0.1,0.6,0.3,0.7l5.7,2C296.9,278.9,296.9,278.9,297,278.9z"/>
		</g>
		<g>
			<path class="st17" d="M289.3,276.2c0.2,0,0.4-0.1,0.5-0.4c0.1-0.3-0.1-0.6-0.3-0.7l-10.9-3.8c-0.3-0.1-0.6,0.1-0.7,0.3
				c-0.1,0.3,0.1,0.6,0.3,0.7l10.9,3.8C289.2,276.2,289.3,276.2,289.3,276.2z"/>
		</g>
		<g>
			<path class="st17" d="M296.5,280.7c0.2,0,0.4-0.1,0.5-0.4c0.1-0.3-0.1-0.6-0.3-0.7l-12.6-4.4c-0.3-0.1-0.6,0.1-0.7,0.3
				c-0.1,0.3,0.1,0.6,0.3,0.7l12.6,4.4C296.4,280.7,296.4,280.7,296.5,280.7z"/>
		</g>
	</g>
	<g>
		
			<rect x="356.6" y="274" transform="matrix(-0.9444 -0.3288 0.3288 -0.9444 609.7162 665.89)" class="st4" width="9.1" height="14.8"/>
	</g>
	<g>
		
			<rect x="337.3" y="329.4" transform="matrix(-0.9444 -0.3288 0.3288 -0.9444 554.0196 767.2222)" class="st4" width="9.1" height="14.8"/>
	</g>
	<g>
		
			<rect x="290.5" y="251" transform="matrix(-0.9444 -0.3288 0.3288 -0.9444 488.6437 599.3442)" class="st1" width="9.1" height="14.8"/>
	</g>
</g>
<g>
	<g>
		<g>
			<g>
				<g>
					<g>
						<g>
							<g>
								<g>
									<path class="st3" d="M567.9,347.1c-0.4,0-0.7-0.3-0.7-0.7v-79.2c0-0.4,0.3-0.7,0.7-0.7c0.4,0,0.7,0.3,0.7,0.7v79.2
										C568.6,346.8,568.3,347.1,567.9,347.1z"/>
								</g>
							</g>
						</g>
					</g>
				</g>
			</g>
			<g>
				<g>
					<g>
						<g>
							<g>
								<g>
									<path class="st3" d="M549.9,347.1c-0.4,0-0.7-0.3-0.7-0.7v-79.2c0-0.4,0.3-0.7,0.7-0.7c0.4,0,0.7,0.3,0.7,0.7v79.2
										C550.6,346.8,550.3,347.1,549.9,347.1z"/>
								</g>
							</g>
						</g>
					</g>
				</g>
			</g>
			<g>
				<g>
					<g>
						<g>
							<g>
								<g>
									<path class="st3" d="M532.7,347.1c-0.4,0-0.7-0.3-0.7-0.7v-79.2c0-0.4,0.3-0.7,0.7-0.7c0.4,0,0.7,0.3,0.7,0.7v79.2
										C533.4,346.8,533.1,347.1,532.7,347.1z"/>
								</g>
							</g>
						</g>
					</g>
				</g>
			</g>
			<g>
				<g>
					<g>
						<g>
							<g>
								<g>
									<path class="st3" d="M514.7,347.1c-0.4,0-0.7-0.3-0.7-0.7v-79.2c0-0.4,0.3-0.7,0.7-0.7c0.4,0,0.7,0.3,0.7,0.7v79.2
										C515.4,346.8,515.1,347.1,514.7,347.1z"/>
								</g>
							</g>
						</g>
					</g>
				</g>
			</g>
			<g>
				<g>
					<g>
						<g>
							<g>
								<g>
									<path class="st3" d="M497.9,347.1c-0.4,0-0.7-0.3-0.7-0.7v-79.2c0-0.4,0.3-0.7,0.7-0.7s0.7,0.3,0.7,0.7v79.2
										C498.6,346.8,498.3,347.1,497.9,347.1z"/>
								</g>
							</g>
						</g>
					</g>
				</g>
			</g>
			<g>
				<g>
					<g>
						<g>
							<g>
								<g>
									<path class="st3" d="M479.9,347.1c-0.4,0-0.7-0.3-0.7-0.7v-79.2c0-0.4,0.3-0.7,0.7-0.7c0.4,0,0.7,0.3,0.7,0.7v79.2
										C480.6,346.8,480.3,347.1,479.9,347.1z"/>
								</g>
							</g>
						</g>
					</g>
				</g>
			</g>
			<g>
				<g>
					<g>
						<g>
							<g>
								<g>
									<path class="st3" d="M462.7,347.1c-0.4,0-0.7-0.3-0.7-0.7v-79.2c0-0.4,0.3-0.7,0.7-0.7s0.7,0.3,0.7,0.7v79.2
										C463.4,346.8,463.1,347.1,462.7,347.1z"/>
								</g>
							</g>
						</g>
					</g>
				</g>
			</g>
			<g>
				<g>
					<g>
						<g>
							<g>
								<g>
									<path class="st3" d="M444.7,347.1c-0.4,0-0.7-0.3-0.7-0.7v-79.2c0-0.4,0.3-0.7,0.7-0.7s0.7,0.3,0.7,0.7v79.2
										C445.4,346.8,445.1,347.1,444.7,347.1z"/>
								</g>
							</g>
						</g>
					</g>
				</g>
			</g>
			<g>
				<g>
					<g>
						<g>
							<g>
								<g>
									<path class="st3" d="M427.5,347.1c-0.4,0-0.7-0.3-0.7-0.7v-79.2c0-0.4,0.3-0.7,0.7-0.7c0.4,0,0.7,0.3,0.7,0.7v79.2
										C428.2,346.8,427.9,347.1,427.5,347.1z"/>
								</g>
							</g>
						</g>
					</g>
				</g>
			</g>
			<g>
				<g>
					<g>
						<g>
							<g>
								<g>
									<path class="st3" d="M408.5,347.1c-0.4,0-0.7-0.3-0.7-0.7v-79.2c0-0.4,0.3-0.7,0.7-0.7s0.7,0.3,0.7,0.7v79.2
										C409.2,346.8,408.9,347.1,408.5,347.1z"/>
								</g>
							</g>
						</g>
					</g>
				</g>
			</g>
			<g>
				<g>
					<g>
						<g>
							<g>
								<g>
									<path class="st3" d="M574.5,280H402.6c-0.4,0-0.7-0.3-0.7-0.7c0-0.4,0.3-0.7,0.7-0.7h171.9c0.4,0,0.7,0.3,0.7,0.7
										C575.1,279.7,574.8,280,574.5,280z"/>
								</g>
							</g>
						</g>
					</g>
				</g>
			</g>
			<g>
				<g>
					<g>
						<g>
							<g>
								<g>
									<path class="st3" d="M574.5,295.2H402.6c-0.4,0-0.7-0.3-0.7-0.7s0.3-0.7,0.7-0.7h171.9c0.4,0,0.7,0.3,0.7,0.7
										S574.8,295.2,574.5,295.2z"/>
								</g>
							</g>
						</g>
					</g>
				</g>
			</g>
			<g>
				<g>
					<g>
						<g>
							<g>
								<g>
									<path class="st3" d="M574.5,310.2H402.6c-0.4,0-0.7-0.3-0.7-0.7c0-0.4,0.3-0.7,0.7-0.7h171.9c0.4,0,0.7,0.3,0.7,0.7
										C575.1,309.9,574.8,310.2,574.5,310.2z"/>
								</g>
							</g>
						</g>
					</g>
				</g>
			</g>
			<g>
				<g>
					<g>
						<g>
							<g>
								<g>
									<path class="st3" d="M574.5,325.4H402.6c-0.4,0-0.7-0.3-0.7-0.7c0-0.4,0.3-0.7,0.7-0.7h171.9c0.4,0,0.7,0.3,0.7,0.7
										C575.1,325.1,574.8,325.4,574.5,325.4z"/>
								</g>
							</g>
						</g>
					</g>
				</g>
			</g>
			<g>
				<g>
					<g>
						<g>
							<g>
								<g>
									<path class="st3" d="M574.5,339.8H402.6c-0.4,0-0.7-0.3-0.7-0.7c0-0.4,0.3-0.7,0.7-0.7h171.9c0.4,0,0.7,0.3,0.7,0.7
										C575.1,339.5,574.8,339.8,574.5,339.8z"/>
								</g>
							</g>
						</g>
					</g>
				</g>
			</g>
		</g>
	</g>
	<g>
		<g>
			<g>
				<g>
					<g>
						<g>
							<g>
								<rect x="558.4" y="280" class="st0" width="12.5" height="44.7"/>
							</g>
						</g>
					</g>
				</g>
			</g>
		</g>
		<g>
			<g>
				<g>
					<g>
						<g>
							<g>
								<rect x="523.3" y="280" class="st0" width="12.5" height="44.7"/>
							</g>
						</g>
					</g>
				</g>
			</g>
		</g>
		<g>
			<g>
				<g>
					<g>
						<g>
							<g>
								<rect x="504.6" y="288.7" class="st0" width="12.5" height="36"/>
							</g>
						</g>
					</g>
				</g>
			</g>
		</g>
		<g>
			<g>
				<g>
					<g>
						<g>
							<g>
								<rect x="541.2" y="296.9" class="st0" width="12.5" height="28"/>
							</g>
						</g>
					</g>
				</g>
			</g>
		</g>
		<g>
			<g>
				<g>
					<g>
						<g>
							<g>
								<rect x="487" y="296.9" class="st0" width="12.5" height="28"/>
							</g>
						</g>
					</g>
				</g>
			</g>
		</g>
		<g>
			<g>
				<g>
					<g>
						<g>
							<g>
								<g>
									<g>
										<path class="st0" d="M483.3,292.7c-0.3,0-0.5-0.1-0.6-0.4c-0.2-0.3,0-0.8,0.3-0.9l45.8-21.2c0.2-0.1,0.5-0.1,0.7,0.1
											l17.4,14l17.6-13.8c0.3-0.2,0.7-0.2,1,0.1c0.2,0.3,0.2,0.7-0.1,1l-18,14.1c-0.3,0.2-0.6,0.2-0.9,0L529,271.5l-45.4,21
											C483.4,292.6,483.3,292.7,483.3,292.7z"/>
									</g>
								</g>
							</g>
						</g>
					</g>
				</g>
			</g>
		</g>
		<g>
			<g>
				<g>
					<g>
						<g>
							<g>
								<g>
									<g>
										<circle class="st1" cx="565.6" cy="270.4" r="3.3"/>
									</g>
								</g>
							</g>
						</g>
						<g>
							<g>
								<g>
									<g>
										<path class="st0" d="M565.6,274.4c-2.2,0-4-1.8-4-4c0-2.2,1.8-4,4-4c2.2,0,4,1.8,4,4C569.6,272.6,567.8,274.4,565.6,274.4
											z M565.6,267.9c-1.4,0-2.5,1.1-2.5,2.5c0,1.4,1.1,2.5,2.5,2.5c1.4,0,2.5-1.1,2.5-2.5C568.1,269,567,267.9,565.6,267.9z"/>
									</g>
								</g>
							</g>
						</g>
					</g>
				</g>
			</g>
		</g>
		<g>
			<g>
				<g>
					<g>
						<g>
							<g>
								<g>
									<g>
										<circle class="st1" cx="547.4" cy="284.4" r="3.3"/>
									</g>
								</g>
							</g>
						</g>
						<g>
							<g>
								<g>
									<g>
										<path class="st0" d="M547.4,288.5c-2.2,0-4-1.8-4-4s1.8-4,4-4c2.2,0,4,1.8,4,4S549.7,288.5,547.4,288.5z M547.4,281.9
											c-1.4,0-2.5,1.1-2.5,2.5c0,1.4,1.1,2.5,2.5,2.5c1.4,0,2.5-1.1,2.5-2.5C550,283.1,548.8,281.9,547.4,281.9z"/>
									</g>
								</g>
							</g>
						</g>
					</g>
				</g>
			</g>
		</g>
		<g>
			<g>
				<g>
					<g>
						<g>
							<g>
								<g>
									<g>
										<path class="st1" d="M525.7,270.7c0,1.8,1.5,3.3,3.3,3.3c1.8,0,3.3-1.5,3.3-3.3c0-1.8-1.5-3.3-3.3-3.3
											C527.2,267.5,525.7,268.9,525.7,270.7z"/>
									</g>
								</g>
							</g>
						</g>
						<g>
							<g>
								<g>
									<g>
										<path class="st0" d="M529,274.8c-2.2,0-4-1.8-4-4s1.8-4,4-4c2.2,0,4,1.8,4,4S531.2,274.8,529,274.8z M529,268.2
											c-1.4,0-2.5,1.1-2.5,2.5c0,1.4,1.1,2.5,2.5,2.5c1.4,0,2.5-1.1,2.5-2.5C531.5,269.3,530.4,268.2,529,268.2z"/>
									</g>
								</g>
							</g>
						</g>
					</g>
				</g>
			</g>
		</g>
		<g>
			<g>
				<g>
					<g>
						<g>
							<g>
								<g>
									<g>
										<path class="st1" d="M481,291.4c0,1.8,1.5,3.3,3.3,3.3c1.8,0,3.3-1.5,3.3-3.3s-1.5-3.3-3.3-3.3
											C482.5,288.2,481,289.6,481,291.4z"/>
									</g>
								</g>
							</g>
						</g>
						<g>
							<g>
								<g>
									<g>
										<path class="st0" d="M484.3,295.4c-2.2,0-4-1.8-4-4c0-2.2,1.8-4,4-4c2.2,0,4,1.8,4,4C488.3,293.6,486.5,295.4,484.3,295.4
											z M484.3,288.9c-1.4,0-2.5,1.1-2.5,2.5c0,1.4,1.1,2.5,2.5,2.5c1.4,0,2.5-1.1,2.5-2.5C486.8,290,485.7,288.9,484.3,288.9z"
											/>
									</g>
								</g>
							</g>
						</g>
					</g>
				</g>
			</g>
		</g>
	</g>
	<g>
		<g>
			<g>
				<g>
					<g>
						<g>
							<g>
								<path class="st0" d="M464.5,307.7c-3.7,13.7-17.9,21.8-31.6,18.1c-13.7-3.7-21.8-17.9-18.1-31.6c1-3.5,2.6-6.7,4.8-9.4
									l19.6,15.5l26.1,0.5C465.4,303,465.1,305.4,464.5,307.7z"/>
							</g>
						</g>
					</g>
				</g>
			</g>
		</g>
		<g>
			<g>
				<g>
					<g>
						<g>
							<g>
								<path class="st4" d="M471,296.5l-26.1-0.5l6.6-24.3c0,0,0.3,0.1,0.5,0.1C463.4,274.9,470.9,285.2,471,296.5z"/>
							</g>
						</g>
					</g>
				</g>
			</g>
		</g>
		<g>
			<g>
				<g>
					<g>
						<g>
							<g>
								<path class="st5" d="M445.9,276l-6.6,24.3l-19.6-15.5C425.8,277.2,435.9,273.5,445.9,276z"/>
							</g>
						</g>
					</g>
				</g>
			</g>
		</g>
	</g>
</g>
<g>
	<path class="st19" d="M494.7,191.8h27.4c0.4,0,0.7,0.3,0.7,0.7v16.3c0,0.4-0.3,0.7-0.7,0.7h-27.4c-0.4,0-0.7-0.3-0.7-0.7v-16.3
		C494,192.1,494.3,191.8,494.7,191.8z"/>
	<path class="st20" d="M494,202.6h28.5"/>
	<path class="st20" d="M494.7,205.4h27.5"/>
	<path class="st20" d="M504.5,199.4h-6.5c-0.6,0-1.1-0.5-1.1-1.1V196c0-0.6,0.5-1.1,1.1-1.1h6.5c0.6,0,1.1,0.5,1.1,1.1v2.4
		C505.6,198.9,505.1,199.4,504.5,199.4z"/>
</g>
<g>
	<polyline class="st21" points="503.9,141.1 499.6,141.1 499.6,126.4 521,126.4 521,141.1 508.5,141.1 	"/>
	<polyline class="st21" points="523.1,141.1 521,141.1 521,130.3 526.4,130.3 529.8,134.5 529.8,141.1 527.7,141.1 	"/>
	<line class="st21" x1="510.3" y1="130.3" x2="518.4" y2="130.3"/>
	<line class="st21" x1="507.4" y1="133.1" x2="518.4" y2="133.1"/>
	<line class="st21" x1="503.4" y1="135.7" x2="518.4" y2="135.7"/>
	<polyline class="st21" points="523.9,130.3 523.9,134.6 529.8,134.6 	"/>
	<circle class="st21" cx="506.2" cy="141.1" r="2.3"/>
	<circle class="st21" cx="525.4" cy="141.1" r="2.3"/>
</g>
<g>
	<g>
		
			<rect x="344.9" y="175.3" transform="matrix(-0.9654 0.2609 -0.2609 -0.9654 828.8376 302.1721)" class="st4" width="98.9" height="61.6"/>
	</g>
	<g>
		<path class="st17" d="M405,235.8c-0.2,0-0.5-0.2-0.5-0.4l-16.1-59.5c-0.1-0.2,0-0.5,0.2-0.6c0.2-0.1,0.5-0.1,0.7,0l30,23.2
			l14.2-35.2c0.1-0.3,0.5-0.4,0.7-0.3c0.3,0.1,0.4,0.5,0.3,0.7l-14.4,35.5l30.3,23.4c0.3,0.2,0.3,0.6,0.1,0.8
			c-0.2,0.3-0.6,0.3-0.8,0.1l-30-23.2l-14.2,35.2C405.5,235.6,405.3,235.8,405,235.8C405,235.8,405,235.8,405,235.8z M389.9,177.2
			l15.2,56.3l13.7-33.9L389.9,177.2z"/>
	</g>
	<g>
		<g>
			<path class="st17" d="M366.2,230.5c-0.5,0.1-0.9,0.4-1.1,0.8c-0.4-0.2-0.9-0.3-1.3-0.2c-0.5,0.1-0.9,0.4-1.1,0.8
				c-0.4-0.2-0.9-0.3-1.3-0.2c-0.5,0.1-0.9,0.5-1.1,0.9c-0.4-0.3-0.9-0.4-1.4-0.2c-0.5,0.1-0.9,0.4-1.1,0.8
				c-0.4-0.2-0.9-0.3-1.3-0.2c-0.3,0.1-0.6,0.2-0.8,0.4c-0.2-2.9,1.6-5.6,4.5-6.4c3-0.8,6.1,0.7,7.2,3.5
				C367.1,230.5,366.7,230.4,366.2,230.5z"/>
		</g>
		<g>
			<path class="st17" d="M364.4,239.8c0.6-0.2,1-0.8,0.8-1.4l-0.2-0.6c0-0.2-0.2-0.3-0.4-0.2c-0.2,0-0.3,0.2-0.2,0.4l0.2,0.6
				c0.1,0.3-0.1,0.5-0.4,0.6c-0.3,0.1-0.5-0.1-0.6-0.4l-1.7-6.1c0-0.2-0.2-0.3-0.4-0.2c-0.2,0-0.3,0.2-0.2,0.4l1.7,6.1
				C363.1,239.6,363.8,239.9,364.4,239.8z"/>
		</g>
		<g>
			<path class="st17" d="M360.5,228c0.2,0,0.3-0.2,0.2-0.4l-0.3-1.3c0-0.2-0.2-0.3-0.4-0.2c-0.2,0-0.3,0.2-0.2,0.4l0.3,1.3
				C360.2,228,360.4,228.1,360.5,228z"/>
		</g>
	</g>
	<g>
		
			<rect x="373.2" y="234.3" transform="matrix(-0.9654 0.2609 -0.2609 -0.9654 803.2412 363.7735)" class="st17" width="8.6" height="1.8"/>
	</g>
	<g>
		<g>
			
				<rect x="369.5" y="229.1" transform="matrix(0.2609 0.9654 -0.9654 0.2609 498.2636 -190.8236)" class="st17" width="8.6" height="1.8"/>
		</g>
		<g>
			<polygon class="st17" points="374.3,226 371.3,226.8 372.3,224.8 			"/>
		</g>
	</g>
	<g>
		<g>
			
				<rect x="373.7" y="227.9" transform="matrix(0.2609 0.9654 -0.9654 0.2609 500.2865 -195.7514)" class="st17" width="8.6" height="1.8"/>
		</g>
		<g>
			<polygon class="st17" points="378.5,224.9 375.5,225.7 376.6,223.6 			"/>
		</g>
	</g>
	<g>
		<g>
			
				<rect x="348.5" y="201.9" transform="matrix(-0.9654 0.2609 -0.2609 -0.9654 758.7423 311.257)" class="st1" width="20.4" height="8.2"/>
		</g>
		<g>
			<path class="st17" d="M359,204.6c0,0,0.1,0,0.1,0l7.5-2c0.3-0.1,0.5-0.4,0.4-0.7c-0.1-0.3-0.4-0.5-0.7-0.4l-7.5,2
				c-0.3,0.1-0.5,0.4-0.4,0.7C358.4,204.4,358.7,204.6,359,204.6z"/>
		</g>
		<g>
			<path class="st17" d="M362,205.8c0,0,0.1,0,0.1,0l4.9-1.3c0.3-0.1,0.5-0.4,0.4-0.7c-0.1-0.3-0.4-0.5-0.7-0.4l-4.9,1.3
				c-0.3,0.1-0.5,0.4-0.4,0.7C361.5,205.6,361.8,205.8,362,205.8z"/>
		</g>
		<g>
			<path class="st17" d="M351,208.8c0,0,0.1,0,0.1,0l9.3-2.5c0.3-0.1,0.5-0.4,0.4-0.7c-0.1-0.3-0.4-0.5-0.7-0.4l-9.3,2.5
				c-0.3,0.1-0.5,0.4-0.4,0.7C350.5,208.6,350.7,208.8,351,208.8z"/>
		</g>
		<g>
			<path class="st17" d="M356.6,208.9c0,0,0.1,0,0.1,0l10.8-2.9c0.3-0.1,0.5-0.4,0.4-0.7c-0.1-0.3-0.4-0.5-0.7-0.4l-10.8,2.9
				c-0.3,0.1-0.5,0.4-0.4,0.7C356.1,208.8,356.4,208.9,356.6,208.9z"/>
		</g>
	</g>
	<g>
		
			<rect x="409.1" y="169.4" transform="matrix(-0.9654 0.2609 -0.2609 -0.9654 857.3672 237.3746)" class="st18" width="7.6" height="12.4"/>
	</g>
	<g>
		
			<rect x="422" y="217" transform="matrix(-0.9654 0.2609 -0.2609 -0.9654 895.0688 327.5853)" class="st18" width="7.6" height="12.4"/>
	</g>
	<g>
		
			<rect x="352.2" y="184.7" transform="matrix(-0.9654 0.2609 -0.2609 -0.9654 749.5834 282.421)" class="st18" width="7.6" height="12.4"/>
	</g>
</g>
</svg>
