<?xml version="1.0" encoding="UTF-8" standalone="no" ?>
<!DOCTYPE svg PUBLIC "-//W3C//DTD SVG 1.1//EN" "http://www.w3.org/Graphics/SVG/1.1/DTD/svg11.dtd">
<svg xmlns="http://www.w3.org/2000/svg" xmlns:xlink="http://www.w3.org/1999/xlink" version="1.1" width="1080" height="1080" viewBox="0 0 1080 1080" xml:space="preserve">
<desc>Created with Fabric.js 5.2.4</desc>
<defs>
</defs>
<rect x="0" y="0" width="100%" height="100%" fill="transparent"></rect>
<g transform="matrix(1 0 0 1 540 540)" id="5fe6090d-eb18-4b7d-a3b7-6bea74864b46"  >
<rect style="stroke: none; stroke-width: 1; stroke-dasharray: none; stroke-linecap: butt; stroke-dashoffset: 0; stroke-linejoin: miter; stroke-miterlimit: 4; fill: rgb(255,255,255); fill-rule: nonzero; opacity: 1; visibility: hidden;" vector-effect="non-scaling-stroke"  x="-540" y="-540" rx="0" ry="0" width="1080" height="1080" />
</g>
<g transform="matrix(1 0 0 1 540 540)" id="7852a2d6-d5c0-4ab1-b041-0bdb8705f9aa"  >
</g>
<g transform="matrix(11.36 0 0 11.87 540 511.11)"  >
<g style="" vector-effect="non-scaling-stroke"   >
		<g transform="matrix(1 0 0 1 0 0)"  >
<path style="stroke: none; stroke-width: 1; stroke-dasharray: none; stroke-linecap: butt; stroke-dashoffset: 0; stroke-linejoin: miter; stroke-miterlimit: 4; fill: rgb(255,255,255); fill-rule: nonzero; opacity: 1;" vector-effect="non-scaling-stroke"  transform=" translate(-40, -40)" d="M 0 0 L 80 0 L 80 80 L 0 80 L 0 0 z" stroke-linecap="round" />
</g>
		<g transform="matrix(1 0 0 1 -0.05 -0.05)"  >
<path style="stroke: none; stroke-width: 1; stroke-dasharray: none; stroke-linecap: butt; stroke-dashoffset: 0; stroke-linejoin: miter; stroke-miterlimit: 4; fill: rgb(255,255,255); fill-rule: nonzero; opacity: 1;" vector-effect="non-scaling-stroke"  transform=" translate(-39.95, -39.95)" d="M 0 79.9 L 79.9 79.9 L 79.9 0 L 0 0 L 0 79.9 z" stroke-linecap="round" />
</g>
		<g transform="matrix(1 0 0 1 -0.04 13.2)"  >
<path style="stroke: none; stroke-width: 1; stroke-dasharray: none; stroke-linecap: butt; stroke-dashoffset: 0; stroke-linejoin: miter; stroke-miterlimit: 4; fill: rgb(18,49,85); fill-rule: nonzero; opacity: 1;" vector-effect="non-scaling-stroke"  transform=" translate(-39.96, -53.2)" d="M 63.3 46.8 L 45.5 36.5 C 42.5 34.8 38 34.6 35.4 36.1 L 17.1 46.6 L 8.600000000000001 48.6 L 8.600000000000001 52.9 C 8.600000000000001 53 8.600000000000001 53.1 8.600000000000001 53.199999999999996 L 8.600000000000001 53.3 L 8.600000000000001 53.3 C 8.700000000000001 54.4 9.500000000000002 55.5 11.100000000000001 56.4 L 34.5 69.9 C 37.5 71.60000000000001 42 71.80000000000001 44.6 70.30000000000001 L 47.2 68.80000000000001 L 69.6 55.90000000000001 C 70.8 55.20000000000001 71.39999999999999 54.20000000000001 71.3 53.20000000000001 L 71.3 53.20000000000001 L 71.3 48.90000000000001 L 63.3 46.8 z" stroke-linecap="round" />
</g>
		<g transform="matrix(1 0 0 1 -0.07 8.6)"  >
<path style="stroke: none; stroke-width: 1; stroke-dasharray: none; stroke-linecap: butt; stroke-dashoffset: 0; stroke-linejoin: miter; stroke-miterlimit: 4; fill: rgb(233,232,231); fill-rule: nonzero; opacity: 1;" vector-effect="non-scaling-stroke"  transform=" translate(-39.93, -48.6)" d="M 69.6 51.3 L 44.599999999999994 65.7 C 41.99999999999999 67.2 37.49999999999999 67 34.49999999999999 65.3 L 11 51.8 C 8 50.099999999999994 7.7 47.4 10.3 45.9 L 35.3 31.5 C 37.9 30 42.4 30.2 45.4 31.9 L 68.8 45.4 C 71.8 47.2 72.2 49.8 69.6 51.3" stroke-linecap="round" />
</g>
		<g transform="matrix(1 0 0 1 -3.85 8.45)"  >
<path style="stroke: none; stroke-width: 1; stroke-dasharray: none; stroke-linecap: butt; stroke-dashoffset: 0; stroke-linejoin: miter; stroke-miterlimit: 4; fill: rgb(3,49,88); fill-rule: nonzero; opacity: 1;" vector-effect="non-scaling-stroke"  transform=" translate(-36.15, -48.45)" d="M 23.2 42.6 L 49.099999999999994 57.6 L 49.099999999999994 54.300000000000004 L 23.199999999999996 39.300000000000004 L 23.2 42.6 z" stroke-linecap="round" />
</g>
		<g transform="matrix(1 0 0 1 12.65 13.9)"  >
<path style="stroke: none; stroke-width: 1; stroke-dasharray: none; stroke-linecap: butt; stroke-dashoffset: 0; stroke-linejoin: miter; stroke-miterlimit: 4; fill: rgb(0,97,178); fill-rule: nonzero; opacity: 1;" vector-effect="non-scaling-stroke"  transform=" translate(-52.65, -53.9)" d="M 49.1 54.3 L 49.1 57.599999999999994 L 56.2 53.49999999999999 L 56.2 50.199999999999996 L 49.1 54.3 z" stroke-linecap="round" />
</g>
		<g transform="matrix(1 0 0 1 -16.8 0.95)"  >
<path style="stroke: none; stroke-width: 1; stroke-dasharray: none; stroke-linecap: butt; stroke-dashoffset: 0; stroke-linejoin: miter; stroke-miterlimit: 4; fill: rgb(131,40,42); fill-rule: nonzero; opacity: 1;" vector-effect="non-scaling-stroke"  transform=" translate(-23.2, -40.95)" d="M 23.2 39.3 L 23.2 42.599999999999994 L 23.2 39.3 L 23.2 39.3 z" stroke-linecap="round" />
</g>
		<g transform="matrix(1 0 0 1 -3.65 -3.2)"  >
<path style="stroke: none; stroke-width: 1; stroke-dasharray: none; stroke-linecap: butt; stroke-dashoffset: 0; stroke-linejoin: miter; stroke-miterlimit: 4; fill: rgb(173,173,173); fill-rule: nonzero; opacity: 1;" vector-effect="non-scaling-stroke"  transform=" translate(-36.35, -36.8)" d="M 49.1 36.3 L 49.1 36.3 C 49.1 36.099999999999994 49.1 36 49 35.8 L 49 35.8 C 49 35.699999999999996 48.9 35.5 48.9 35.4 L 48.9 35.4 C 48.9 35.3 48.8 35.1 48.8 35 L 48.8 35 C 48.8 34.9 48.699999999999996 34.7 48.699999999999996 34.6 C 48.699999999999996 34.6 48.699999999999996 34.6 48.699999999999996 34.6 C 48.599999999999994 34.5 48.599999999999994 34.300000000000004 48.49999999999999 34.2 C 48.49999999999999 34.2 48.49999999999999 34.2 48.49999999999999 34.2 C 48.39999999999999 34.1 48.39999999999999 33.900000000000006 48.29999999999999 33.800000000000004 L 48.29999999999999 33.800000000000004 C 48.19999999999999 33.7 48.19999999999999 33.6 48.09999999999999 33.400000000000006 L 47.999999999999986 33.300000000000004 C 47.999999999999986 33.2 47.899999999999984 33.2 47.899999999999984 33.1 C 47.899999999999984 33 47.79999999999998 32.9 47.79999999999998 32.9 C 47.59999999999998 32.6 47.399999999999984 32.4 47.19999999999998 32.1 L 47.19999999999998 32.1 C 47.09999999999998 32 46.99999999999998 31.900000000000002 46.899999999999984 31.700000000000003 C 46.899999999999984 31.700000000000003 46.899999999999984 31.700000000000003 46.899999999999984 31.700000000000003 C 46.79999999999998 31.6 46.69999999999998 31.500000000000004 46.59999999999999 31.400000000000002 L 46.59999999999999 31.400000000000002 C 46.499999999999986 31.3 46.399999999999984 31.200000000000003 46.29999999999999 31.1 L 46.29999999999999 31.1 C 46.19999999999999 31 46.09999999999999 30.900000000000002 45.99999999999999 30.8 L 45.99999999999999 30.8 C 45.89999999999999 30.7 45.79999999999999 30.6 45.599999999999994 30.6 L 27 19.7 C 26.9 19.599999999999998 26.8 19.599999999999998 26.6 19.5 L 26.6 19.5 C 26.5 19.4 26.400000000000002 19.4 26.200000000000003 19.4 L 26.200000000000003 19.4 C 26.1 19.4 26.000000000000004 19.299999999999997 25.900000000000002 19.299999999999997 C 25.900000000000002 19.299999999999997 25.900000000000002 19.299999999999997 25.900000000000002 19.299999999999997 C 25.8 19.299999999999997 25.700000000000003 19.299999999999997 25.6 19.199999999999996 L 25.6 19.199999999999996 C 25.5 19.199999999999996 25.400000000000002 19.199999999999996 25.3 19.199999999999996 L 25.3 19.199999999999996 C 25.2 19.199999999999996 25.1 19.199999999999996 25 19.199999999999996 L 25 19.199999999999996 C 24.9 19.199999999999996 24.8 19.199999999999996 24.7 19.299999999999997 L 24.7 19.299999999999997 C 24.7 19.299999999999997 24.599999999999998 19.299999999999997 24.599999999999998 19.4 C 24.599999999999998 19.4 24.499999999999996 19.4 24.499999999999996 19.5 C 23.799999999999997 19.9 23.399999999999995 20.7 23.399999999999995 21.9 L 23.399999999999995 39.4 L 49.3 54.4 L 49.3 36.9 C 49.2 36.6 49.2 36.5 49.1 36.3" stroke-linecap="round" />
</g>
		<g transform="matrix(1 0 0 1 0.29 -5.38)"  >
<path style="stroke: none; stroke-width: 1; stroke-dasharray: none; stroke-linecap: butt; stroke-dashoffset: 0; stroke-linejoin: miter; stroke-miterlimit: 4; fill: rgb(233,232,231); fill-rule: nonzero; opacity: 1;" vector-effect="non-scaling-stroke"  transform=" translate(-16.2, -19.95)" d="M 32.2 17.8 C 32.2 17.7 32.2 17.7 32.2 17.6 C 32.2 17.6 32.2 17.5 32.2 17.5 L 32.2 17.5 L 32.2 17.4 C 32.2 17.299999999999997 32.2 17.299999999999997 32.2 17.2 C 32.2 17.099999999999998 32.2 17.099999999999998 32.2 17 L 32.2 17 L 32.2 16.8 C 32.2 16.7 32.2 16.7 32.2 16.6 L 32.2 16.5 L 32.2 16.5 L 32.2 16.4 C 32.2 16.299999999999997 32.2 16.299999999999997 32.1 16.2 C 32.1 16.2 32.1 16.099999999999998 32.1 16.099999999999998 L 32.1 16.099999999999998 L 32.1 16.099999999999998 C 32.1 15.999999999999998 32.1 15.999999999999998 32 15.899999999999999 C 32 15.799999999999999 32 15.799999999999999 31.9 15.7 L 31.9 15.7 L 31.9 15.7 C 31.9 15.7 31.9 15.6 31.9 15.6 C 31.9 15.5 31.9 15.5 31.799999999999997 15.4 C 31.799999999999997 15.4 31.799999999999997 15.3 31.699999999999996 15.3 L 31.699999999999996 15.3 C 31.699999999999996 15.3 31.699999999999996 15.3 31.699999999999996 15.3 C 31.699999999999996 15.200000000000001 31.599999999999994 15.200000000000001 31.599999999999994 15.100000000000001 C 31.599999999999994 15.000000000000002 31.499999999999993 15.000000000000002 31.499999999999993 14.900000000000002 C 31.499999999999993 14.900000000000002 31.499999999999993 14.900000000000002 31.499999999999993 14.900000000000002 L 31.499999999999993 14.900000000000002 C 31.499999999999993 14.800000000000002 31.39999999999999 14.800000000000002 31.39999999999999 14.800000000000002 C 31.39999999999999 14.700000000000003 31.29999999999999 14.700000000000003 31.29999999999999 14.600000000000003 L 31.19999999999999 14.500000000000004 L 31.19999999999999 14.500000000000004 C 31.19999999999999 14.400000000000004 31.099999999999987 14.400000000000004 31.099999999999987 14.300000000000004 C 31.099999999999987 14.200000000000005 30.999999999999986 14.100000000000005 30.899999999999988 14.100000000000005 L 30.899999999999988 14.100000000000005 C 30.799999999999986 14.000000000000005 30.69999999999999 13.900000000000006 30.69999999999999 13.800000000000004 C 30.599999999999987 13.700000000000005 30.599999999999987 13.700000000000005 30.49999999999999 13.600000000000005 C 30.49999999999999 13.500000000000005 30.399999999999988 13.500000000000005 30.399999999999988 13.400000000000006 C 30.399999999999988 13.300000000000006 30.299999999999986 13.300000000000006 30.299999999999986 13.200000000000006 C 30.299999999999986 13.100000000000007 30.199999999999985 13.100000000000007 30.199999999999985 13.000000000000007 L 30.199999999999985 13.000000000000007 L 30.199999999999985 13.000000000000007 C 30.199999999999985 13.000000000000007 30.099999999999984 12.900000000000007 30.099999999999984 12.900000000000007 C 29.999999999999982 12.800000000000008 29.999999999999982 12.800000000000008 29.899999999999984 12.700000000000008 C 29.899999999999984 12.700000000000008 29.899999999999984 12.700000000000008 29.899999999999984 12.700000000000008 L 29.899999999999984 12.700000000000008 C 29.899999999999984 12.700000000000008 29.799999999999983 12.700000000000008 29.799999999999983 12.600000000000009 C 29.69999999999998 12.500000000000009 29.69999999999998 12.500000000000009 29.599999999999984 12.500000000000009 C 29.599999999999984 12.500000000000009 29.599999999999984 12.500000000000009 29.499999999999982 12.40000000000001 C 29.499999999999982 12.40000000000001 29.499999999999982 12.40000000000001 29.499999999999982 12.40000000000001 L 29.39999999999998 12.40000000000001 L 29 11.9 C 29 11.9 28.9 11.8 28.9 11.8 L 28.9 11.8 L 28.9 11.8 C 28.799999999999997 11.8 28.799999999999997 11.700000000000001 28.7 11.700000000000001 C 28.7 11.700000000000001 28.599999999999998 11.600000000000001 28.5 11.600000000000001 L 28.5 11.600000000000001 L 10 0.9 C 10 0.9 9.9 0.9 9.9 0.8 L 9.7 0.7 C 9.7 0.7 9.6 0.7 9.6 0.7 C 9.6 0.7 9.6 0.7 9.6 0.7 C 9.6 0.7 9.6 0.7 9.6 0.7 C 9.5 0.7 9.5 0.7 9.4 0.6 C 9.4 0.6 9.3 0.6 9.3 0.5 L 9.3 0.5 L 9.3 0.5 C 9.3 0.5 9.200000000000001 0.5 9.200000000000001 0.5 C 9.100000000000001 0.5 9.100000000000001 0.5 9.000000000000002 0.5 L 8.900000000000002 0.5 L 8.900000000000002 0.5 C 8.900000000000002 0.5 8.900000000000002 0.5 8.800000000000002 0.5 C 8.700000000000003 0.5 8.700000000000003 0.5 8.600000000000003 0.5 C 8.600000000000003 0.5 8.500000000000004 0.5 8.500000000000004 0.5 C 8.500000000000004 0.5 8.500000000000004 0.5 8.500000000000004 0.5 C 8.500000000000004 0.5 8.500000000000004 0.5 8.500000000000004 0.5 C 8.400000000000004 0.5 8.400000000000004 0.5 8.300000000000004 0.5 C 8.300000000000004 0.5 8.300000000000004 0.5 8.200000000000005 0.5 L 8.100000000000005 0.5 C 8.100000000000005 0.5 8.100000000000005 0.5 8.000000000000005 0.5 C 7.900000000000006 0.5 7.900000000000006 0.5 7.800000000000005 0.5 L 7.800000000000005 0.5 C 7.800000000000005 0.5 7.800000000000005 0.5 7.800000000000005 0.5 C 7.7000000000000055 0.5 7.600000000000005 0.5 7.600000000000005 0.6 L 7.600000000000005 0.6 C 7.500000000000005 0.6 7.400000000000005 0.7 7.300000000000005 0.7 L 0.2 4.7 L 0.2 4.7 C 0.2 4.7 0.30000000000000004 4.7 0.30000000000000004 4.6000000000000005 C 0.30000000000000004 4.6000000000000005 0.4 4.6000000000000005 0.4 4.500000000000001 L 0.4 4.500000000000001 C 0.4 4.500000000000001 0.4 4.500000000000001 0.4 4.500000000000001 C 0.5 4.500000000000001 0.5 4.500000000000001 0.6000000000000001 4.400000000000001 C 0.6000000000000001 4.400000000000001 0.6000000000000001 4.400000000000001 0.6000000000000001 4.400000000000001 L 0.6000000000000001 4.400000000000001 L 0.6000000000000001 4.400000000000001 C 0.6000000000000001 4.400000000000001 0.6000000000000001 4.400000000000001 0.6000000000000001 4.400000000000001 C 0.7000000000000001 4.400000000000001 0.7000000000000001 4.400000000000001 0.8 4.400000000000001 L 0.9 4.400000000000001 C 0.9 4.400000000000001 0.9 4.400000000000001 0.9 4.400000000000001 L 0.9 4.400000000000001 C 0.9 4.400000000000001 0.9 4.400000000000001 1 4.400000000000001 C 1.1 4.400000000000001 1.1 4.400000000000001 1.2 4.400000000000001 C 1.2 4.400000000000001 1.2 4.400000000000001 1.2 4.400000000000001 L 1.2 4.400000000000001 C 1.2 4.400000000000001 1.2 4.400000000000001 1.2 4.400000000000001 C 1.2 4.400000000000001 1.3 4.400000000000001 1.3 4.400000000000001 C 1.4000000000000001 4.400000000000001 1.4000000000000001 4.400000000000001 1.5 4.400000000000001 L 1.5 4.400000000000001 C 1.5 4.400000000000001 1.5 4.400000000000001 1.5 4.400000000000001 C 1.5 4.400000000000001 1.5 4.400000000000001 1.5 4.400000000000001 C 1.5 4.400000000000001 1.5 4.400000000000001 1.6 4.400000000000001 C 1.7000000000000002 4.400000000000001 1.7000000000000002 4.400000000000001 1.8 4.400000000000001 C 1.8 4.400000000000001 1.9000000000000001 4.400000000000001 1.9000000000000001 4.400000000000001 L 1.9000000000000001 4.400000000000001 C 1.9000000000000001 4.400000000000001 1.9000000000000001 4.400000000000001 1.9000000000000001 4.400000000000001 L 1.9000000000000001 4.400000000000001 C 1.9000000000000001 4.400000000000001 2 4.400000000000001 2.1 4.500000000000001 C 2.1 4.500000000000001 2.2 4.500000000000001 2.3000000000000003 4.6000000000000005 L 2.3000000000000003 4.6000000000000005 L 2.3000000000000003 4.6000000000000005 L 2.3000000000000003 4.6000000000000005 L 2.4000000000000004 4.6000000000000005 C 2.4000000000000004 4.6000000000000005 2.5000000000000004 4.7 2.6000000000000005 4.7 C 2.6000000000000005 4.7 2.7000000000000006 4.7 2.7000000000000006 4.8 L 21.2 15.5 L 21.2 15.5 L 21.4 15.6 C 21.5 15.6 21.5 15.7 21.599999999999998 15.7 C 21.599999999999998 15.7 21.599999999999998 15.7 21.599999999999998 15.7 C 21.599999999999998 15.7 21.599999999999998 15.7 21.599999999999998 15.7 C 21.599999999999998 15.7 21.7 15.799999999999999 21.7 15.799999999999999 C 21.8 15.799999999999999 21.8 15.899999999999999 21.9 15.899999999999999 L 22 15.899999999999999 L 22 15.899999999999999 L 22.1 15.999999999999998 C 22.200000000000003 15.999999999999998 22.200000000000003 16.099999999999998 22.3 16.099999999999998 L 22.400000000000002 16.2 L 22.400000000000002 16.2 L 22.400000000000002 16.2 L 22.6 16.4 L 22.700000000000003 16.5 L 22.700000000000003 16.5 L 22.700000000000003 16.5 L 23 17 C 23 17.1 23.1 17.1 23.1 17.2 L 23.1 17.2 L 23.1 17.2 L 23.200000000000003 17.4 C 23.300000000000004 17.5 23.300000000000004 17.5 23.400000000000002 17.599999999999998 C 23.500000000000004 17.7 23.6 17.799999999999997 23.6 17.9 L 23.6 17.9 C 23.6 18 23.700000000000003 18.099999999999998 23.700000000000003 18.099999999999998 C 23.700000000000003 18.2 23.800000000000004 18.2 23.800000000000004 18.299999999999997 L 23.800000000000004 18.299999999999997 L 23.900000000000006 18.4 L 24.000000000000007 18.599999999999998 L 24.10000000000001 18.799999999999997 L 24.10000000000001 18.799999999999997 L 24.10000000000001 18.799999999999997 C 24.10000000000001 18.9 24.20000000000001 18.9 24.20000000000001 18.999999999999996 C 24.20000000000001 19.099999999999998 24.30000000000001 19.099999999999998 24.30000000000001 19.199999999999996 L 24.30000000000001 19.199999999999996 L 24.30000000000001 19.199999999999996 C 24.30000000000001 19.199999999999996 24.30000000000001 19.299999999999997 24.400000000000013 19.299999999999997 L 24.500000000000014 19.499999999999996 L 24.500000000000014 19.599999999999998 L 24.500000000000014 19.599999999999998 L 24.500000000000014 19.599999999999998 L 24.600000000000016 19.799999999999997 C 24.600000000000016 19.9 24.600000000000016 19.9 24.700000000000017 19.999999999999996 L 24.700000000000017 19.999999999999996 L 24.700000000000017 19.999999999999996 C 24.700000000000017 19.999999999999996 24.700000000000017 20.099999999999998 24.700000000000017 20.099999999999998 C 24.700000000000017 20.2 24.700000000000017 20.2 24.80000000000002 20.299999999999997 L 24.80000000000002 20.4 L 24.80000000000002 20.4 L 24.80000000000002 20.5 C 24.80000000000002 20.6 24.80000000000002 20.6 24.80000000000002 20.7 L 24.80000000000002 20.9 L 24.80000000000002 20.9 L 24.80000000000002 20.9 C 24.80000000000002 21 24.80000000000002 21 24.80000000000002 21.099999999999998 C 24.80000000000002 21.2 24.80000000000002 21.2 24.80000000000002 21.299999999999997 L 24.80000000000002 21.4 L 24.80000000000002 21.4 L 24.80000000000002 21.5 L 24.80000000000002 21.7 C 24.80000000000002 21.8 24.80000000000002 21.8 24.80000000000002 21.9 L 24.80000000000002 39.4 L 31.90000000000002 35.3 L 31.90000000000002 17.799999999999997 C 32.2 17.9 32.2 17.9 32.2 17.8" stroke-linecap="round" />
</g>
		<g transform="matrix(1 0 0 1 -3.75 -10.35)"  >
<path style="stroke: none; stroke-width: 1; stroke-dasharray: none; stroke-linecap: butt; stroke-dashoffset: 0; stroke-linejoin: miter; stroke-miterlimit: 4; fill: rgb(233,232,231); fill-rule: nonzero; opacity: 1;" vector-effect="non-scaling-stroke"  transform=" translate(-36.25, -29.65)" d="M 49.2 36.6 C 49.2 36.5 49.2 36.5 49.2 36.4 L 49.2 36.3 L 49.2 36.3 L 49.2 36.199999999999996 C 49.2 36.099999999999994 49.2 36.099999999999994 49.2 35.99999999999999 C 49.2 35.89999999999999 49.2 35.89999999999999 49.2 35.79999999999999 C 49.2 35.69999999999999 49.2 35.69999999999999 49.2 35.59999999999999 L 49.2 35.399999999999984 C 49.2 35.399999999999984 49.2 35.399999999999984 49.2 35.29999999999998 L 49.2 35.29999999999998 L 49.2 35.19999999999998 C 49.2 35.09999999999998 49.2 35.09999999999998 49.1 34.99999999999998 C 49.1 34.99999999999998 49.1 34.89999999999998 49.1 34.799999999999976 L 49.1 34.799999999999976 C 49.1 34.799999999999976 49.1 34.799999999999976 49.1 34.799999999999976 L 49 34.59999999999997 C 49 34.49999999999997 49 34.49999999999997 48.9 34.39999999999997 L 48.9 34.39999999999997 L 48.9 34.39999999999997 L 48.9 34.29999999999997 C 48.9 34.19999999999997 48.9 34.19999999999997 48.8 34.099999999999966 L 48.5 34 L 48.5 34 L 48.5 34 C 48.5 33.9 48.4 33.9 48.4 33.8 C 48.4 33.699999999999996 48.3 33.699999999999996 48.3 33.599999999999994 L 48.3 33.599999999999994 L 48.3 33.599999999999994 C 48.3 33.49999999999999 48.199999999999996 33.49999999999999 48.199999999999996 33.39999999999999 C 48.199999999999996 33.29999999999999 48.099999999999994 33.29999999999999 48.099999999999994 33.19999999999999 C 48.099999999999994 33.19999999999999 48.099999999999994 33.09999999999999 47.99999999999999 33.09999999999999 L 47.99999999999999 33.09999999999999 C 47.99999999999999 32.999999999999986 47.89999999999999 32.999999999999986 47.89999999999999 32.899999999999984 C 47.79999999999999 32.79999999999998 47.79999999999999 32.69999999999998 47.69999999999999 32.69999999999998 C 47.69999999999999 32.69999999999998 47.69999999999999 32.69999999999998 47.69999999999999 32.69999999999998 C 47.59999999999999 32.59999999999998 47.499999999999986 32.49999999999998 47.499999999999986 32.399999999999984 C 47.399999999999984 32.29999999999998 47.399999999999984 32.29999999999998 47.29999999999998 32.19999999999998 C 47.29999999999998 32.09999999999998 47.19999999999998 32.09999999999998 47.19999999999998 31.999999999999982 C 47.19999999999998 31.999999999999982 47.19999999999998 31.999999999999982 47.19999999999998 31.999999999999982 L 47.19999999999998 31.999999999999982 C 47.19999999999998 31.89999999999998 47.09999999999998 31.89999999999998 47.09999999999998 31.799999999999983 C 47.09999999999998 31.69999999999998 46.99999999999998 31.69999999999998 46.99999999999998 31.599999999999984 L 46.99999999999998 31.599999999999984 L 46.99999999999998 31.599999999999984 L 46.89999999999998 31.499999999999982 C 46.799999999999976 31.39999999999998 46.799999999999976 31.39999999999998 46.699999999999974 31.299999999999983 L 46.699999999999974 31.299999999999983 L 46.699999999999974 31.299999999999983 L 46.59999999999997 31.19999999999998 C 46.49999999999997 31.19999999999998 46.49999999999997 31.09999999999998 46.39999999999997 31.09999999999998 C 46.39999999999997 31.09999999999998 46.39999999999997 31.09999999999998 46.29999999999997 30.99999999999998 C 46.29999999999997 30.99999999999998 46.29999999999997 30.99999999999998 46.29999999999997 30.99999999999998 L 46.19999999999997 30.99999999999998 L 46 30.7 C 46 30.7 45.9 30.599999999999998 45.9 30.599999999999998 L 45.9 30.599999999999998 L 45.9 30.599999999999998 C 45.8 30.599999999999998 45.8 30.499999999999996 45.699999999999996 30.499999999999996 L 45.49999999999999 30.399999999999995 L 45.49999999999999 30.399999999999995 L 27 19.7 L 26.9 19.599999999999998 C 26.9 19.599999999999998 26.799999999999997 19.499999999999996 26.7 19.499999999999996 L 26.599999999999998 19.499999999999996 C 26.599999999999998 19.499999999999996 26.599999999999998 19.499999999999996 26.599999999999998 19.499999999999996 L 26.599999999999998 19.499999999999996 C 26.599999999999998 19.499999999999996 26.499999999999996 19.499999999999996 26.499999999999996 19.399999999999995 C 26.499999999999996 19.399999999999995 26.399999999999995 19.399999999999995 26.399999999999995 19.299999999999994 L 26.399999999999995 19.299999999999994 L 26.399999999999995 19.299999999999994 L 26.299999999999994 19.299999999999994 C 26.199999999999992 19.299999999999994 26.199999999999992 19.299999999999994 26.099999999999994 19.299999999999994 L 25.999999999999993 19.299999999999994 L 25.999999999999993 19.299999999999994 C 25.999999999999993 19.299999999999994 25.999999999999993 19.299999999999994 25.999999999999993 19.299999999999994 C 25.89999999999999 19.299999999999994 25.89999999999999 19.299999999999994 25.799999999999994 19.299999999999994 L 25.699999999999992 19.299999999999994 C 25.699999999999992 19.299999999999994 25.699999999999992 19.299999999999994 25.699999999999992 19.299999999999994 C 25.699999999999992 19.299999999999994 25.699999999999992 19.299999999999994 25.699999999999992 19.299999999999994 C 25.59999999999999 19.299999999999994 25.59999999999999 19.299999999999994 25.499999999999993 19.299999999999994 C 25.499999999999993 19.299999999999994 25.39999999999999 19.299999999999994 25.39999999999999 19.299999999999994 L 25.29999999999999 19.299999999999994 C 25.29999999999999 19.299999999999994 25.29999999999999 19.299999999999994 25.19999999999999 19.299999999999994 C 25.099999999999987 19.299999999999994 25.099999999999987 19.299999999999994 24.99999999999999 19.299999999999994 L 24.99999999999999 19.299999999999994 L 24.99999999999999 19.299999999999994 C 24.899999999999988 19.299999999999994 24.899999999999988 19.299999999999994 24.79999999999999 19.399999999999995 L 24.79999999999999 19.399999999999995 C 24.69999999999999 19.399999999999995 24.59999999999999 19.499999999999996 24.49999999999999 19.499999999999996 L 23.29999999999999 20.199999999999996 C 23.39999999999999 20.099999999999994 23.49999999999999 20.099999999999994 23.59999999999999 20.099999999999994 C 23.699999999999992 20.099999999999994 23.699999999999992 20.099999999999994 23.79999999999999 19.999999999999993 L 23.89999999999999 19.999999999999993 C 23.999999999999993 19.999999999999993 24.09999999999999 19.999999999999993 24.199999999999992 19.999999999999993 L 24.299999999999994 19.999999999999993 C 24.399999999999995 19.999999999999993 24.499999999999993 19.999999999999993 24.599999999999994 19.999999999999993 C 24.599999999999994 19.999999999999993 24.599999999999994 19.999999999999993 24.599999999999994 19.999999999999993 C 24.699999999999996 19.999999999999993 24.799999999999994 19.999999999999993 24.899999999999995 19.999999999999993 L 24.899999999999995 19.999999999999993 C 24.999999999999996 19.999999999999993 25.099999999999994 20.099999999999994 25.199999999999996 20.099999999999994 L 25.199999999999996 20.099999999999994 C 25.299999999999997 20.099999999999994 25.399999999999995 20.199999999999996 25.599999999999994 20.199999999999996 L 25.599999999999994 20.199999999999996 C 25.699999999999996 20.299999999999997 25.899999999999995 20.299999999999997 25.999999999999993 20.399999999999995 L 44.2 31 C 44.300000000000004 31.1 44.400000000000006 31.1 44.6 31.2 L 44.6 31.2 C 44.7 31.3 44.800000000000004 31.4 44.9 31.4 L 44.9 31.4 C 45 31.5 45.1 31.599999999999998 45.199999999999996 31.7 L 45.199999999999996 31.7 C 45.3 31.8 45.4 31.9 45.49999999999999 32 L 45.49999999999999 32 C 45.599999999999994 32.1 45.699999999999996 32.2 45.79999999999999 32.4 L 45.79999999999999 32.4 C 45.89999999999999 32.5 45.99999999999999 32.6 46.09999999999999 32.8 L 46.09999999999999 32.8 L 46.09999999999999 32.9 C 46.19999999999999 33 46.19999999999999 33.1 46.29999999999999 33.199999999999996 C 46.39999999999999 33.3 46.39999999999999 33.4 46.49999999999999 33.4 L 46.599999999999994 33.6 L 46.699999999999996 33.7 C 46.8 33.800000000000004 46.8 33.900000000000006 46.9 34 L 46.9 34.1 C 47 34.2 47 34.4 47.1 34.5 L 47.1 34.5 C 47.2 34.6 47.2 34.8 47.300000000000004 34.9 C 47.300000000000004 34.9 47.300000000000004 34.9 47.300000000000004 34.9 C 47.400000000000006 35 47.400000000000006 35.199999999999996 47.400000000000006 35.3 L 47.400000000000006 35.3 C 47.400000000000006 35.4 47.50000000000001 35.599999999999994 47.50000000000001 35.699999999999996 L 47.50000000000001 35.8 C 47.50000000000001 35.9 47.60000000000001 36.099999999999994 47.60000000000001 36.199999999999996 L 47.60000000000001 36.199999999999996 C 47.60000000000001 36.3 47.60000000000001 36.49999999999999 47.70000000000001 36.599999999999994 L 47.70000000000001 36.599999999999994 C 47.70000000000001 36.699999999999996 47.70000000000001 36.89999999999999 47.70000000000001 36.99999999999999 L 47.70000000000001 39.99999999999999 L 48.90000000000001 39.29999999999999 L 48.90000000000001 36.29999999999999 L 49.2 36.6" stroke-linecap="round" />
</g>
		<g transform="matrix(1 0 0 1 -5.05 -9.3)"  >
<path style="stroke: none; stroke-width: 1; stroke-dasharray: none; stroke-linecap: butt; stroke-dashoffset: 0; stroke-linejoin: miter; stroke-miterlimit: 4; fill: rgb(206,205,204); fill-rule: nonzero; opacity: 1;" vector-effect="non-scaling-stroke"  transform=" translate(-34.95, -30.7)" d="M 44.2 31 C 46.300000000000004 32.2 47.900000000000006 35.1 47.900000000000006 37.4 L 47.900000000000006 40.4 C 44.60000000000001 42.3 40.00000000000001 42.1 34.900000000000006 39.1 C 29.800000000000004 36.2 25.300000000000004 31.200000000000003 22.000000000000007 25.400000000000002 L 22.000000000000007 22.400000000000002 C 22.000000000000007 20.000000000000004 23.700000000000006 19.1 25.700000000000006 20.3 L 44.2 31 z" stroke-linecap="round" />
</g>
		<g transform="matrix(1 0 0 1 4.8 -16.05)"  >
<path style="stroke: none; stroke-width: 1; stroke-dasharray: none; stroke-linecap: butt; stroke-dashoffset: 0; stroke-linejoin: miter; stroke-miterlimit: 4; fill: rgb(1,36,59); fill-rule: nonzero; opacity: 1;" vector-effect="non-scaling-stroke"  transform=" translate(-44.8, -23.95)" d="M 45.8 21.4 C 45.8 21.4 45.8 21.5 45.8 21.5 L 45.8 21.5 C 45.8 21.5 45.8 21.6 45.8 21.6 L 45.8 21.6 C 45.8 21.6 45.699999999999996 21.700000000000003 45.699999999999996 21.700000000000003 C 45.699999999999996 21.700000000000003 45.699999999999996 21.700000000000003 45.599999999999994 21.700000000000003 C 45.599999999999994 21.700000000000003 45.599999999999994 21.700000000000003 45.49999999999999 21.800000000000004 C 45.39999999999999 21.900000000000006 45.29999999999999 21.900000000000006 45.199999999999996 21.900000000000006 L 45.199999999999996 21.900000000000006 C 45.099999999999994 21.900000000000006 44.99999999999999 21.900000000000006 44.8 21.900000000000006 L 44.8 21.900000000000006 C 44.699999999999996 21.900000000000006 44.5 21.900000000000006 44.4 21.900000000000006 L 44.4 21.900000000000006 C 44.3 21.900000000000006 44.199999999999996 21.800000000000004 44.1 21.800000000000004 C 43.9 21.700000000000003 43.800000000000004 21.500000000000004 43.800000000000004 21.400000000000006 L 43.800000000000004 26.000000000000007 C 43.800000000000004 26.200000000000006 43.900000000000006 26.300000000000008 44.1 26.400000000000006 C 44.1 26.400000000000006 44.2 26.400000000000006 44.2 26.500000000000007 C 44.2 26.500000000000007 44.300000000000004 26.500000000000007 44.300000000000004 26.500000000000007 L 44.400000000000006 26.500000000000007 C 44.400000000000006 26.500000000000007 44.400000000000006 26.500000000000007 44.400000000000006 26.500000000000007 L 44.400000000000006 26.500000000000007 L 44.50000000000001 26.500000000000007 C 44.50000000000001 26.500000000000007 44.60000000000001 26.500000000000007 44.60000000000001 26.500000000000007 C 44.60000000000001 26.500000000000007 44.70000000000001 26.500000000000007 44.70000000000001 26.500000000000007 L 44.80000000000001 26.500000000000007 C 44.80000000000001 26.500000000000007 44.90000000000001 26.500000000000007 44.90000000000001 26.500000000000007 C 44.90000000000001 26.500000000000007 45.000000000000014 26.500000000000007 45.000000000000014 26.500000000000007 C 45.000000000000014 26.500000000000007 45.000000000000014 26.500000000000007 45.100000000000016 26.500000000000007 C 45.100000000000016 26.500000000000007 45.100000000000016 26.500000000000007 45.100000000000016 26.500000000000007 L 45.20000000000002 26.500000000000007 C 45.30000000000002 26.500000000000007 45.40000000000002 26.400000000000006 45.40000000000002 26.400000000000006 L 45.40000000000002 26.400000000000006 C 45.40000000000002 26.400000000000006 45.40000000000002 26.400000000000006 45.50000000000002 26.400000000000006 C 45.50000000000002 26.400000000000006 45.60000000000002 26.400000000000006 45.60000000000002 26.300000000000004 L 45.60000000000002 26.300000000000004 C 45.60000000000002 26.300000000000004 45.60000000000002 26.300000000000004 45.700000000000024 26.200000000000003 L 45.700000000000024 26.200000000000003 L 45.700000000000024 26.200000000000003 L 45.700000000000024 26.200000000000003 C 45.700000000000024 26.200000000000003 45.700000000000024 26.200000000000003 45.700000000000024 26.1 C 45.700000000000024 26.1 45.700000000000024 26.1 45.700000000000024 26.1 L 45.700000000000024 26.1 C 45.700000000000024 26.1 45.700000000000024 26.1 45.700000000000024 26.1 C 45.700000000000024 26.1 45.700000000000024 26.1 45.700000000000024 26 L 45.700000000000024 25.7 C 45.8 25.8 45.8 21.4 45.8 21.4 z" stroke-linecap="round" />
</g>
		<g transform="matrix(1 0 0 1 4.75 -16.05)"  >
<path style="stroke: none; stroke-width: 1; stroke-dasharray: none; stroke-linecap: butt; stroke-dashoffset: 0; stroke-linejoin: miter; stroke-miterlimit: 4; fill: rgb(1,36,59); fill-rule: nonzero; opacity: 1;" vector-effect="non-scaling-stroke"  transform=" translate(-44.75, -23.95)" d="M 45.8 21.4 C 45.8 21.4 45.8 21.5 45.8 21.5 L 45.8 21.5 C 45.8 21.5 45.8 21.6 45.699999999999996 21.6 L 45.699999999999996 21.6 C 45.699999999999996 21.6 45.599999999999994 21.700000000000003 45.599999999999994 21.700000000000003 C 45.599999999999994 21.700000000000003 45.599999999999994 21.700000000000003 45.49999999999999 21.700000000000003 C 45.49999999999999 21.700000000000003 45.49999999999999 21.700000000000003 45.39999999999999 21.800000000000004 C 45.29999999999999 21.900000000000006 45.19999999999999 21.900000000000006 45.099999999999994 21.900000000000006 L 45.099999999999994 21.900000000000006 C 44.99999999999999 21.900000000000006 44.89999999999999 21.900000000000006 44.699999999999996 21.900000000000006 L 44.699999999999996 21.900000000000006 C 44.599999999999994 21.900000000000006 44.4 21.900000000000006 44.3 21.900000000000006 L 44.3 21.900000000000006 C 44.199999999999996 21.900000000000006 44.099999999999994 21.800000000000004 44 21.800000000000004 C 43.8 21.700000000000003 43.7 21.500000000000004 43.7 21.400000000000006 L 43.7 26.000000000000007 C 43.7 26.200000000000006 43.800000000000004 26.300000000000008 44 26.400000000000006 C 44 26.400000000000006 44.1 26.400000000000006 44.2 26.500000000000007 C 44.2 26.500000000000007 44.300000000000004 26.500000000000007 44.300000000000004 26.500000000000007 L 44.400000000000006 26.500000000000007 C 44.400000000000006 26.500000000000007 44.400000000000006 26.500000000000007 44.400000000000006 26.500000000000007 L 44.400000000000006 26.500000000000007 L 44.50000000000001 26.500000000000007 C 44.50000000000001 26.500000000000007 44.60000000000001 26.500000000000007 44.60000000000001 26.500000000000007 C 44.60000000000001 26.500000000000007 44.70000000000001 26.500000000000007 44.70000000000001 26.500000000000007 L 44.80000000000001 26.500000000000007 C 44.80000000000001 26.500000000000007 44.90000000000001 26.500000000000007 44.90000000000001 26.500000000000007 C 44.90000000000001 26.500000000000007 45.000000000000014 26.500000000000007 45.000000000000014 26.500000000000007 C 45.000000000000014 26.500000000000007 45.000000000000014 26.500000000000007 45.100000000000016 26.500000000000007 C 45.100000000000016 26.500000000000007 45.100000000000016 26.500000000000007 45.100000000000016 26.500000000000007 L 45.20000000000002 26.500000000000007 C 45.30000000000002 26.500000000000007 45.40000000000002 26.400000000000006 45.40000000000002 26.400000000000006 L 45.40000000000002 26.400000000000006 C 45.40000000000002 26.400000000000006 45.40000000000002 26.400000000000006 45.50000000000002 26.400000000000006 C 45.50000000000002 26.400000000000006 45.60000000000002 26.400000000000006 45.60000000000002 26.300000000000004 L 45.60000000000002 26.300000000000004 C 45.60000000000002 26.300000000000004 45.60000000000002 26.300000000000004 45.700000000000024 26.200000000000003 L 45.700000000000024 26.200000000000003 L 45.700000000000024 26.200000000000003 L 45.700000000000024 26.200000000000003 C 45.700000000000024 26.200000000000003 45.700000000000024 26.200000000000003 45.700000000000024 26.1 C 45.700000000000024 26.1 45.700000000000024 26.1 45.700000000000024 26.1 L 45.700000000000024 26.1 C 45.700000000000024 26.1 45.700000000000024 26.1 45.700000000000024 26.1 C 45.700000000000024 26.1 45.700000000000024 26.1 45.700000000000024 26 L 45.700000000000024 25.7 C 45.8 25.8 45.8 21.4 45.8 21.4 z" stroke-linecap="round" />
</g>
		<g transform="matrix(1 0 0 1 -1.05 -21.77)"  >
<path style="stroke: none; stroke-width: 1; stroke-dasharray: none; stroke-linecap: butt; stroke-dashoffset: 0; stroke-linejoin: miter; stroke-miterlimit: 4; fill: rgb(1,36,59); fill-rule: nonzero; opacity: 1;" vector-effect="non-scaling-stroke"  transform=" translate(-38.95, -18.23)" d="M 45.5 21 C 45.9 21.2 45.9 21.6 45.5 21.9 C 45.1 22.099999999999998 44.4 22.099999999999998 44 21.9 C 43.6 21.7 43.6 21.299999999999997 44 21 C 44.5 20.8 45.1 20.7 45.5 21 M 34.2 14.4 C 34.2 14.4 34.2 14.5 34.2 14.5 L 34.2 14.5 C 34.2 14.5 34.2 14.6 34.1 14.6 L 34.1 14.6 C 34.1 14.6 34 14.7 34 14.7 C 34 14.7 34 14.7 33.9 14.799999999999999 C 33.9 14.799999999999999 33.9 14.799999999999999 33.8 14.899999999999999 C 33.699999999999996 14.999999999999998 33.599999999999994 14.999999999999998 33.5 14.999999999999998 L 33.5 14.999999999999998 C 33.4 14.999999999999998 33.3 14.999999999999998 33.1 14.999999999999998 L 33.1 14.999999999999998 C 33 14.999999999999998 32.800000000000004 14.999999999999998 32.7 14.999999999999998 L 32.7 14.999999999999998 C 32.6 14.999999999999998 32.5 14.899999999999999 32.400000000000006 14.899999999999999 C 32.2 14.799999999999999 32.10000000000001 14.599999999999998 32.10000000000001 14.499999999999998 L 32.10000000000001 19.099999999999998 C 32.10000000000001 19.299999999999997 32.20000000000001 19.4 32.400000000000006 19.499999999999996 C 32.400000000000006 19.499999999999996 32.50000000000001 19.599999999999998 32.60000000000001 19.599999999999998 C 32.60000000000001 19.599999999999998 32.70000000000001 19.599999999999998 32.70000000000001 19.599999999999998 C 32.70000000000001 19.599999999999998 32.70000000000001 19.599999999999998 32.80000000000001 19.599999999999998 C 32.80000000000001 19.599999999999998 32.80000000000001 19.599999999999998 32.80000000000001 19.599999999999998 L 32.80000000000001 19.599999999999998 L 32.90000000000001 19.599999999999998 C 32.90000000000001 19.599999999999998 33.000000000000014 19.599999999999998 33.000000000000014 19.599999999999998 C 33.000000000000014 19.599999999999998 33.100000000000016 19.599999999999998 33.100000000000016 19.599999999999998 L 33.20000000000002 19.599999999999998 C 33.20000000000002 19.599999999999998 33.30000000000002 19.599999999999998 33.30000000000002 19.599999999999998 C 33.30000000000002 19.599999999999998 33.40000000000002 19.599999999999998 33.40000000000002 19.599999999999998 C 33.40000000000002 19.599999999999998 33.40000000000002 19.599999999999998 33.50000000000002 19.599999999999998 C 33.50000000000002 19.599999999999998 33.50000000000002 19.599999999999998 33.50000000000002 19.599999999999998 C 33.50000000000002 19.599999999999998 33.60000000000002 19.599999999999998 33.60000000000002 19.599999999999998 C 33.700000000000024 19.599999999999998 33.800000000000026 19.499999999999996 33.800000000000026 19.499999999999996 L 33.800000000000026 19.499999999999996 C 33.800000000000026 19.499999999999996 33.800000000000026 19.499999999999996 33.90000000000003 19.499999999999996 C 33.90000000000003 19.499999999999996 34.00000000000003 19.499999999999996 34.00000000000003 19.399999999999995 C 34.00000000000003 19.399999999999995 34.00000000000003 19.399999999999995 34.00000000000003 19.399999999999995 C 34.00000000000003 19.399999999999995 34.00000000000003 19.399999999999995 34.10000000000003 19.299999999999994 C 34.10000000000003 19.299999999999994 34.10000000000003 19.299999999999994 34.10000000000003 19.299999999999994 C 34.10000000000003 19.299999999999994 34.10000000000003 19.299999999999994 34.10000000000003 19.299999999999994 L 34.10000000000003 19.299999999999994 C 34.10000000000003 19.299999999999994 34.10000000000003 19.299999999999994 34.10000000000003 19.199999999999992 L 34.10000000000003 19.199999999999992 L 34.10000000000003 19.199999999999992 C 34.10000000000003 19.199999999999992 34.10000000000003 19.199999999999992 34.10000000000003 19.199999999999992 C 34.10000000000003 19.199999999999992 34.10000000000003 19.199999999999992 34.10000000000003 19.09999999999999 L 34.10000000000003 18.79999999999999 L 34.2 14.4 L 34.2 14.4 z" stroke-linecap="round" />
</g>
		<g transform="matrix(1 0 0 1 -6.8 -23)"  >
<path style="stroke: none; stroke-width: 1; stroke-dasharray: none; stroke-linecap: butt; stroke-dashoffset: 0; stroke-linejoin: miter; stroke-miterlimit: 4; fill: rgb(1,36,59); fill-rule: nonzero; opacity: 1;" vector-effect="non-scaling-stroke"  transform=" translate(-33.2, -17)" d="M 34.2 14.4 C 34.2 14.4 34.2 14.5 34.2 14.5 L 34.2 14.5 C 34.2 14.5 34.2 14.6 34.2 14.6 L 34.2 14.6 C 34.2 14.6 34.1 14.7 34.1 14.7 C 34.1 14.7 34.1 14.7 34 14.799999999999999 C 34 14.799999999999999 34 14.799999999999999 33.9 14.899999999999999 C 33.8 14.999999999999998 33.699999999999996 14.999999999999998 33.6 14.999999999999998 L 33.6 14.999999999999998 C 33.5 14.999999999999998 33.4 14.999999999999998 33.2 14.999999999999998 L 33.2 14.999999999999998 C 33.1 14.999999999999998 32.900000000000006 14.999999999999998 32.800000000000004 14.999999999999998 L 32.800000000000004 14.999999999999998 C 32.7 14.999999999999998 32.6 14.899999999999999 32.50000000000001 14.899999999999999 C 32.300000000000004 14.799999999999999 32.20000000000001 14.599999999999998 32.20000000000001 14.499999999999998 L 32.20000000000001 19.099999999999998 C 32.20000000000001 19.299999999999997 32.30000000000001 19.4 32.50000000000001 19.499999999999996 C 32.50000000000001 19.499999999999996 32.60000000000001 19.599999999999998 32.70000000000001 19.599999999999998 C 32.70000000000001 19.599999999999998 32.80000000000001 19.599999999999998 32.80000000000001 19.599999999999998 C 32.80000000000001 19.599999999999998 32.80000000000001 19.599999999999998 32.90000000000001 19.599999999999998 C 32.90000000000001 19.599999999999998 32.90000000000001 19.599999999999998 32.90000000000001 19.599999999999998 L 32.90000000000001 19.599999999999998 L 33.000000000000014 19.599999999999998 C 33.000000000000014 19.599999999999998 33.100000000000016 19.599999999999998 33.100000000000016 19.599999999999998 C 33.100000000000016 19.599999999999998 33.20000000000002 19.599999999999998 33.20000000000002 19.599999999999998 L 33.30000000000002 19.599999999999998 C 33.30000000000002 19.599999999999998 33.40000000000002 19.599999999999998 33.40000000000002 19.599999999999998 C 33.40000000000002 19.599999999999998 33.50000000000002 19.599999999999998 33.50000000000002 19.599999999999998 C 33.50000000000002 19.599999999999998 33.50000000000002 19.599999999999998 33.60000000000002 19.599999999999998 C 33.60000000000002 19.599999999999998 33.60000000000002 19.599999999999998 33.60000000000002 19.599999999999998 C 33.60000000000002 19.599999999999998 33.700000000000024 19.599999999999998 33.700000000000024 19.599999999999998 C 33.800000000000026 19.599999999999998 33.90000000000003 19.499999999999996 33.90000000000003 19.499999999999996 L 33.90000000000003 19.499999999999996 C 33.90000000000003 19.499999999999996 33.90000000000003 19.499999999999996 34.00000000000003 19.499999999999996 C 34.00000000000003 19.499999999999996 34.10000000000003 19.499999999999996 34.10000000000003 19.399999999999995 C 34.10000000000003 19.399999999999995 34.10000000000003 19.399999999999995 34.10000000000003 19.399999999999995 C 34.10000000000003 19.399999999999995 34.10000000000003 19.399999999999995 34.20000000000003 19.299999999999994 L 34.20000000000003 19.299999999999994 C 34.20000000000003 19.299999999999994 34.20000000000003 19.299999999999994 34.20000000000003 19.299999999999994 L 34.20000000000003 19.299999999999994 C 34.20000000000003 19.299999999999994 34.20000000000003 19.299999999999994 34.20000000000003 19.199999999999992 L 34.20000000000003 19.199999999999992 L 34.20000000000003 19.199999999999992 C 34.20000000000003 19.199999999999992 34.20000000000003 19.199999999999992 34.20000000000003 19.199999999999992 C 34.20000000000003 19.199999999999992 34.20000000000003 19.199999999999992 34.20000000000003 19.09999999999999 L 34.20000000000003 18.79999999999999 L 34.2 14.4 L 34.2 14.4 z" stroke-linecap="round" />
</g>
		<g transform="matrix(1 0 0 1 -6.95 -25.55)"  >
<path style="stroke: none; stroke-width: 1; stroke-dasharray: none; stroke-linecap: butt; stroke-dashoffset: 0; stroke-linejoin: miter; stroke-miterlimit: 4; fill: rgb(1,36,59); fill-rule: nonzero; opacity: 1;" vector-effect="non-scaling-stroke"  transform=" translate(-33.05, -14.45)" d="M 33.8 14 C 34.199999999999996 14.2 34.199999999999996 14.6 33.8 14.9 C 33.4 15.1 32.699999999999996 15.1 32.3 14.9 C 31.9 14.700000000000001 31.9 14.3 32.3 14 C 32.8 13.8 33.4 13.8 33.8 14" stroke-linecap="round" />
</g>
		<g transform="matrix(1 0 0 1 -0.14 -21.44)"  >
<path style="stroke: none; stroke-width: 1; stroke-dasharray: none; stroke-linecap: butt; stroke-dashoffset: 0; stroke-linejoin: miter; stroke-miterlimit: 4; fill: rgb(245,74,79); fill-rule: nonzero; opacity: 1;" vector-effect="non-scaling-stroke"  transform=" translate(-9.5, -6.5)" d="M 18.8 10.2 L 18.8 10.2 L 18.8 10.2 L 18.8 10.1 L 18.8 10 L 18.8 10 L 18.8 10 L 18.8 9.9 L 18.8 9.8 L 18.8 9.700000000000001 L 18.8 9.700000000000001 L 18.8 9.700000000000001 L 18.8 9.700000000000001 L 18.8 9.600000000000001 L 18.8 9.500000000000002 L 18.8 9.500000000000002 C 18.8 9.500000000000002 18.8 9.500000000000002 18.8 9.400000000000002 L 18.8 9.400000000000002 C 18.8 9.400000000000002 18.8 9.400000000000002 18.8 9.400000000000002 L 18.8 9.400000000000002 L 18.8 9.300000000000002 L 18.8 9.200000000000003 L 18.8 9.100000000000003 L 18.8 9.000000000000004 L 18.8 9.000000000000004 L 18.8 9.000000000000004 C 18.8 9.000000000000004 18.8 8.900000000000004 18.7 8.900000000000004 C 18.7 8.900000000000004 18.7 8.800000000000004 18.599999999999998 8.800000000000004 L 18.599999999999998 8.700000000000005 L 18.599999999999998 8.700000000000005 L 18.599999999999998 8.700000000000005 L 18.599999999999998 8.700000000000005 L 18.599999999999998 8.700000000000005 L 18.599999999999998 8.700000000000005 L 18.599999999999998 8.700000000000005 L 18.599999999999998 8.700000000000005 L 18.599999999999998 8.700000000000005 L 18.599999999999998 8.700000000000005 L 18.599999999999998 8.700000000000005 C 18.599999999999998 8.700000000000005 18.599999999999998 8.700000000000005 18.599999999999998 8.700000000000005 C 18.599999999999998 8.700000000000005 18.599999999999998 8.700000000000005 18.599999999999998 8.700000000000005 L 18.599999999999998 8.700000000000005 L 18.599999999999998 8.700000000000005 C 18.599999999999998 8.700000000000005 18.599999999999998 8.700000000000005 18.599999999999998 8.700000000000005 L 4 0.6 L 4 0.6 L 4 0.6 C 4 0.6 4 0.6 4 0.6 L 4 0.6 L 4 0.6 C 4 0.6 4 0.6 4 0.6 L 4 0.6 L 4 0.6 L 4 0.6 L 4 0.6 L 4 0.6 L 4 0.6 L 4 0.6 L 4 0.6 L 4 0.6 C 4 0.6 4 0.6 3.9 0.6 L 3.8 0.6 L 3.8 0.6 C 3.8 0.6 3.8 0.6 3.8 0.6 C 3.8 0.6 3.8 0.6 3.6999999999999997 0.6 C 3.6999999999999997 0.6 3.5999999999999996 0.6 3.5999999999999996 0.6 L 0.2 2.3 C 0.2 2.3 0.30000000000000004 2.3 0.30000000000000004 2.1999999999999997 L 0.30000000000000004 2.1999999999999997 C 0.4 2.1999999999999997 0.4 2.1999999999999997 0.5 2.1999999999999997 L 0.5 2.1999999999999997 C 0.6 2.1999999999999997 0.6 2.1999999999999997 0.7 2.1999999999999997 L 0.7 2.1999999999999997 C 0.7999999999999999 2.1999999999999997 0.7999999999999999 2.3 0.8999999999999999 2.3 L 14.700000000000001 10.2 C 14.8 10.2 14.8 10.299999999999999 14.9 10.299999999999999 L 14.9 10.299999999999999 C 15 10.399999999999999 15 10.399999999999999 15.1 10.499999999999998 L 15.1 10.499999999999998 C 15.2 10.599999999999998 15.299999999999999 10.799999999999999 15.4 10.899999999999999 L 15.4 10.899999999999999 C 15.4 10.999999999999998 15.5 11.099999999999998 15.5 11.099999999999998 L 15.5 11.099999999999998 C 15.5 11.199999999999998 15.6 11.299999999999997 15.6 11.299999999999997 C 15.6 11.299999999999997 15.6 11.299999999999997 15.6 11.299999999999997 C 15.7 11.499999999999996 15.7 11.599999999999998 15.7 11.799999999999997 C 15.7 11.899999999999997 15.7 11.999999999999996 15.7 11.999999999999996 L 15.7 11.999999999999996 C 15.7 12.099999999999996 15.7 12.099999999999996 15.6 12.199999999999996 L 15.6 12.199999999999996 C 15.6 12.199999999999996 15.6 12.299999999999995 15.5 12.299999999999995 C 15.5 12.299999999999995 15.5 12.299999999999995 15.5 12.299999999999995 C 15.5 12.299999999999995 15.4 12.399999999999995 15.4 12.399999999999995 L 18.5 10.599999999999994 C 18.5 10.599999999999994 18.6 10.499999999999995 18.6 10.499999999999995 L 18.6 10.499999999999995 C 18.6 10.499999999999995 18.6 10.499999999999995 18.6 10.499999999999995 C 18.6 10.499999999999995 18.6 10.499999999999995 18.6 10.399999999999995 L 18.6 10.399999999999995 L 18.6 10.399999999999995 L 18.6 10.299999999999995 L 18.6 10.199999999999996 L 18.6 10.099999999999996 L 18.6 10.099999999999996 L 18.6 10.099999999999996 L 18.6 10.099999999999996 L 18.6 10.099999999999996 L 18.6 10.099999999999996 L 18.8 10.2 L 18.8 10.2 L 18.8 10.2 C 18.8 10.3 18.8 10.3 18.8 10.2" stroke-linecap="round" />
</g>
		<g transform="matrix(1 0 0 1 -0.14 -21.44)"  >
<path style="stroke: none; stroke-width: 1; stroke-dasharray: none; stroke-linecap: butt; stroke-dashoffset: 0; stroke-linejoin: miter; stroke-miterlimit: 4; fill: rgb(206,205,204); fill-rule: nonzero; opacity: 1;" vector-effect="non-scaling-stroke"  transform=" translate(-9.5, -6.5)" d="M 18.8 10.2 L 18.8 10.2 L 18.8 10.2 L 18.8 10.1 L 18.8 10 L 18.8 10 L 18.8 10 L 18.8 9.9 L 18.8 9.8 L 18.8 9.700000000000001 L 18.8 9.700000000000001 L 18.8 9.700000000000001 L 18.8 9.700000000000001 L 18.8 9.600000000000001 L 18.8 9.500000000000002 L 18.8 9.500000000000002 C 18.8 9.500000000000002 18.8 9.500000000000002 18.8 9.400000000000002 L 18.8 9.400000000000002 C 18.8 9.400000000000002 18.8 9.400000000000002 18.8 9.400000000000002 L 18.8 9.400000000000002 L 18.8 9.300000000000002 L 18.8 9.200000000000003 L 18.8 9.100000000000003 L 18.8 9.000000000000004 L 18.8 9.000000000000004 L 18.8 9.000000000000004 C 18.8 9.000000000000004 18.8 8.900000000000004 18.7 8.900000000000004 C 18.7 8.900000000000004 18.7 8.800000000000004 18.599999999999998 8.800000000000004 L 18.599999999999998 8.700000000000005 L 18.599999999999998 8.700000000000005 L 18.599999999999998 8.700000000000005 L 18.599999999999998 8.700000000000005 L 18.599999999999998 8.700000000000005 L 18.599999999999998 8.700000000000005 L 18.599999999999998 8.700000000000005 L 18.599999999999998 8.700000000000005 L 18.599999999999998 8.700000000000005 L 18.599999999999998 8.700000000000005 L 18.599999999999998 8.700000000000005 C 18.599999999999998 8.700000000000005 18.599999999999998 8.700000000000005 18.599999999999998 8.700000000000005 C 18.599999999999998 8.700000000000005 18.599999999999998 8.700000000000005 18.599999999999998 8.700000000000005 L 18.599999999999998 8.700000000000005 L 18.599999999999998 8.700000000000005 C 18.599999999999998 8.700000000000005 18.599999999999998 8.700000000000005 18.599999999999998 8.700000000000005 L 4 0.6 L 4 0.6 L 4 0.6 C 4 0.6 4 0.6 4 0.6 L 4 0.6 L 4 0.6 C 4 0.6 4 0.6 4 0.6 L 4 0.6 L 4 0.6 L 4 0.6 L 4 0.6 L 4 0.6 L 4 0.6 L 4 0.6 L 4 0.6 L 4 0.6 C 4 0.6 4 0.6 3.9 0.6 L 3.8 0.6 L 3.8 0.6 C 3.8 0.6 3.8 0.6 3.8 0.6 C 3.8 0.6 3.8 0.6 3.6999999999999997 0.6 C 3.6999999999999997 0.6 3.5999999999999996 0.6 3.5999999999999996 0.6 L 0.2 2.3 C 0.2 2.3 0.30000000000000004 2.3 0.30000000000000004 2.1999999999999997 L 0.30000000000000004 2.1999999999999997 C 0.4 2.1999999999999997 0.4 2.1999999999999997 0.5 2.1999999999999997 L 0.5 2.1999999999999997 C 0.6 2.1999999999999997 0.6 2.1999999999999997 0.7 2.1999999999999997 L 0.7 2.1999999999999997 C 0.7999999999999999 2.1999999999999997 0.7999999999999999 2.3 0.8999999999999999 2.3 L 14.700000000000001 10.2 C 14.8 10.2 14.8 10.299999999999999 14.9 10.299999999999999 L 14.9 10.299999999999999 C 15 10.399999999999999 15 10.399999999999999 15.1 10.499999999999998 L 15.1 10.499999999999998 C 15.2 10.599999999999998 15.299999999999999 10.799999999999999 15.4 10.899999999999999 L 15.4 10.899999999999999 C 15.4 10.999999999999998 15.5 11.099999999999998 15.5 11.099999999999998 L 15.5 11.099999999999998 C 15.5 11.199999999999998 15.6 11.299999999999997 15.6 11.299999999999997 C 15.6 11.299999999999997 15.6 11.299999999999997 15.6 11.299999999999997 C 15.7 11.499999999999996 15.7 11.599999999999998 15.7 11.799999999999997 C 15.7 11.899999999999997 15.7 11.999999999999996 15.7 11.999999999999996 L 15.7 11.999999999999996 C 15.7 12.099999999999996 15.7 12.099999999999996 15.6 12.199999999999996 L 15.6 12.199999999999996 C 15.6 12.199999999999996 15.6 12.299999999999995 15.5 12.299999999999995 C 15.5 12.299999999999995 15.5 12.299999999999995 15.5 12.299999999999995 C 15.5 12.299999999999995 15.4 12.399999999999995 15.4 12.399999999999995 L 18.5 10.599999999999994 C 18.5 10.599999999999994 18.6 10.499999999999995 18.6 10.499999999999995 L 18.6 10.499999999999995 C 18.6 10.499999999999995 18.6 10.499999999999995 18.6 10.499999999999995 C 18.6 10.499999999999995 18.6 10.499999999999995 18.6 10.399999999999995 L 18.6 10.399999999999995 L 18.6 10.399999999999995 L 18.6 10.299999999999995 L 18.6 10.199999999999996 L 18.6 10.099999999999996 L 18.6 10.099999999999996 L 18.6 10.099999999999996 L 18.6 10.099999999999996 L 18.6 10.099999999999996 L 18.6 10.099999999999996 L 18.8 10.2 L 18.8 10.2 L 18.8 10.2 C 18.8 10.3 18.8 10.3 18.8 10.2" stroke-linecap="round" />
</g>
		<g transform="matrix(1 0 0 1 -1.9 -20.4)"  >
<path style="stroke: none; stroke-width: 1; stroke-dasharray: none; stroke-linecap: butt; stroke-dashoffset: 0; stroke-linejoin: miter; stroke-miterlimit: 4; fill: rgb(173,173,173); fill-rule: nonzero; opacity: 1;" vector-effect="non-scaling-stroke"  transform=" translate(-38.1, -19.6)" d="M 45 22.4 C 45.6 22.7 46 23.5 46 24.099999999999998 C 46 24.7 45.5 24.999999999999996 45 24.7 L 31.2 16.799999999999997 C 30.599999999999998 16.499999999999996 30.2 15.699999999999998 30.2 15.099999999999998 C 30.2 14.499999999999998 30.7 14.199999999999998 31.2 14.499999999999998 C 31.3 14.5 45 22.4 45 22.4 z" stroke-linecap="round" />
</g>
		<g transform="matrix(1 0 0 1 -5.65 0.2)"  >
<path style="stroke: none; stroke-width: 1; stroke-dasharray: none; stroke-linecap: butt; stroke-dashoffset: 0; stroke-linejoin: miter; stroke-miterlimit: 4; fill: rgb(233,232,231); fill-rule: nonzero; opacity: 1;" vector-effect="non-scaling-stroke"  transform=" translate(-34.35, -40.2)" d="M 32.7 40.4 L 32.7 37.8 L 36.1 39.8 L 36.1 42.4 C 36.1 42.4 32.7 40.4 32.7 40.4 z M 36.9 39.3 L 31.799999999999997 36.4 L 31.799999999999997 41.1 L 36.9 44 L 36.9 39.3 z" stroke-linecap="round" />
</g>
		<g transform="matrix(1 0 0 1 -5.6 0.1)"  >
<path style="stroke: none; stroke-width: 1; stroke-dasharray: none; stroke-linecap: butt; stroke-dashoffset: 0; stroke-linejoin: miter; stroke-miterlimit: 4; fill: rgb(206,205,204); fill-rule: nonzero; opacity: 1;" vector-effect="non-scaling-stroke"  transform=" translate(-34.4, -40.1)" d="M 36.1 39.8 L 32.7 37.8 L 32.7 40.4 L 36.1 42.4 L 36.1 39.8 z" stroke-linecap="round" />
</g>
		<g transform="matrix(1 0 0 1 -2.5 1.3)"  >
<path style="stroke: none; stroke-width: 1; stroke-dasharray: none; stroke-linecap: butt; stroke-dashoffset: 0; stroke-linejoin: miter; stroke-miterlimit: 4; fill: rgb(173,173,173); fill-rule: nonzero; opacity: 1;" vector-effect="non-scaling-stroke"  transform=" translate(-37.5, -41.3)" d="M 36.9 39.3 L 36.9 44 L 38.1 43.3 L 38.1 38.599999999999994 L 36.9 39.3 z" stroke-linecap="round" />
</g>
		<g transform="matrix(1 0 0 1 -4.3 -2.95)"  >
<path style="stroke: none; stroke-width: 1; stroke-dasharray: none; stroke-linecap: butt; stroke-dashoffset: 0; stroke-linejoin: miter; stroke-miterlimit: 4; fill: rgb(173,173,173); fill-rule: nonzero; opacity: 1;" vector-effect="non-scaling-stroke"  transform=" translate(-35.7, -37.05)" d="M 38.1 38.5 C 38.1 38.5 38.1 38.4 38.1 38.4 C 38.1 38.4 38.1 38.3 38.1 38.3 C 38.1 38.3 38.1 38.199999999999996 38.1 38.199999999999996 C 38.1 38.199999999999996 38.1 38.099999999999994 38.1 38.099999999999994 C 38.1 38.099999999999994 38.1 37.99999999999999 38.1 37.99999999999999 C 38.1 37.99999999999999 38.1 37.89999999999999 38.1 37.89999999999999 L 38.1 37.79999999999999 C 38.1 37.79999999999999 38.1 37.69999999999999 38.1 37.69999999999999 C 38.1 37.69999999999999 38.1 37.59999999999999 38.1 37.59999999999999 L 38.1 37.59999999999999 C 38.1 37.59999999999999 38.1 37.59999999999999 38.1 37.59999999999999 C 38.1 37.59999999999999 38.1 37.499999999999986 38.1 37.499999999999986 L 38.1 37.399999999999984 L 38.1 37.29999999999998 C 38.1 37.29999999999998 38.1 37.19999999999998 38.1 37.19999999999998 C 38.1 37.19999999999998 38.1 37.09999999999998 38.1 37.09999999999998 L 38.1 37.09999999999998 C 38.1 37.09999999999998 38.1 37.09999999999998 38.1 37.09999999999998 C 38.1 37.09999999999998 38.1 36.99999999999998 38 36.99999999999998 C 38 36.99999999999998 38 36.89999999999998 37.9 36.89999999999998 C 37.9 36.89999999999998 37.8 36.799999999999976 37.8 36.699999999999974 C 37.8 36.59999999999997 37.699999999999996 36.59999999999997 37.699999999999996 36.49999999999997 C 37.699999999999996 36.49999999999997 37.699999999999996 36.49999999999997 37.699999999999996 36.49999999999997 C 37.699999999999996 36.49999999999997 37.699999999999996 36.49999999999997 37.699999999999996 36.49999999999997 C 37.599999999999994 36.39999999999997 37.599999999999994 36.29999999999997 37.49999999999999 36.199999999999974 C 37.39999999999999 36.09999999999997 37.39999999999999 35.99999999999997 37.29999999999999 35.99999999999997 L 37.29999999999999 35.99999999999997 L 37.29999999999999 35.99999999999997 C 37.29999999999999 35.99999999999997 37.19999999999999 35.89999999999997 37.19999999999999 35.89999999999997 L 37.09999999999999 35.79999999999997 L 36.999999999999986 35.69999999999997 C 36.999999999999986 35.69999999999997 36.899999999999984 35.599999999999966 36.899999999999984 35.599999999999966 L 36.899999999999984 35.599999999999966 L 36.899999999999984 35.599999999999966 C 36.899999999999984 35.599999999999966 36.79999999999998 35.599999999999966 36.79999999999998 35.499999999999964 C 36.79999999999998 35.499999999999964 36.69999999999998 35.39999999999996 36.69999999999998 35.39999999999996 L 36.59999999999998 35.29999999999996 C 36.59999999999998 35.29999999999996 36.49999999999998 35.19999999999996 36.49999999999998 35.19999999999996 C 36.49999999999998 35.19999999999996 36.49999999999998 35.19999999999996 36.39999999999998 35.19999999999996 L 36.39999999999998 35.19999999999996 C 36.39999999999998 35.19999999999996 36.39999999999998 35.19999999999996 36.39999999999998 35.19999999999996 C 36.39999999999998 35.19999999999996 36.299999999999976 35.09999999999996 36.299999999999976 35.09999999999996 L 36.199999999999974 34.99999999999996 C 36.199999999999974 34.99999999999996 36.09999999999997 34.899999999999956 36.09999999999997 34.899999999999956 C 36.09999999999997 34.899999999999956 35.99999999999997 34.799999999999955 35.99999999999997 34.799999999999955 L 35.99999999999997 34.799999999999955 C 35.99999999999997 34.799999999999955 35.89999999999997 34.799999999999955 35.89999999999997 34.799999999999955 L 35.79999999999997 34.69999999999995 C 35.79999999999997 34.69999999999995 35.79999999999997 34.69999999999995 35.69999999999997 34.69999999999995 L 35.69999999999997 34.69999999999995 C 35.69999999999997 34.69999999999995 35.69999999999997 34.69999999999995 35.69999999999997 34.69999999999995 C 35.69999999999997 34.69999999999995 35.599999999999966 34.69999999999995 35.599999999999966 34.69999999999995 C 35.599999999999966 34.69999999999995 35.499999999999964 34.69999999999995 35.499999999999964 34.69999999999995 C 35.499999999999964 34.69999999999995 35.499999999999964 34.69999999999995 35.499999999999964 34.69999999999995 C 35.499999999999964 34.69999999999995 35.499999999999964 34.69999999999995 35.499999999999964 34.69999999999995 L 35.39999999999996 34.69999999999995 L 35.29999999999996 34.69999999999995 C 35.29999999999996 34.69999999999995 35.29999999999996 34.69999999999995 35.29999999999996 34.69999999999995 L 35.29999999999996 34.69999999999995 L 35.29999999999996 34.69999999999995 C 35.29999999999996 34.69999999999995 35.19999999999996 34.69999999999995 35.19999999999996 34.69999999999995 C 35.19999999999996 34.69999999999995 35.19999999999996 34.69999999999995 35.09999999999996 34.69999999999995 L 35.09999999999996 34.69999999999995 L 35.09999999999996 34.69999999999995 C 35.09999999999996 34.69999999999995 34.99999999999996 34.69999999999995 34.99999999999996 34.69999999999995 L 34.899999999999956 34.69999999999995 C 34.899999999999956 34.69999999999995 34.899999999999956 34.69999999999995 34.899999999999956 34.69999999999995 C 34.899999999999956 34.69999999999995 34.799999999999955 34.69999999999995 34.799999999999955 34.69999999999995 L 34.799999999999955 34.69999999999995 C 34.799999999999955 34.69999999999995 34.799999999999955 34.69999999999995 34.69999999999995 34.69999999999995 C 34.69999999999995 34.69999999999995 34.59999999999995 34.69999999999995 34.59999999999995 34.69999999999995 L 34.59999999999995 34.69999999999995 C 34.49999999999995 34.69999999999995 34.49999999999995 34.799999999999955 34.39999999999995 34.799999999999955 L 33.29999999999995 35.49999999999996 C 33.29999999999995 35.49999999999996 33.39999999999995 35.49999999999996 33.39999999999995 35.49999999999996 C 33.39999999999995 35.49999999999996 33.39999999999995 35.49999999999996 33.49999999999995 35.49999999999996 L 33.49999999999995 35.49999999999996 L 33.49999999999995 35.49999999999996 C 33.49999999999995 35.49999999999996 33.59999999999995 35.49999999999996 33.59999999999995 35.49999999999996 L 33.59999999999995 35.49999999999996 L 33.59999999999995 35.49999999999996 C 33.59999999999995 35.49999999999996 33.59999999999995 35.49999999999996 33.59999999999995 35.49999999999996 C 33.59999999999995 35.49999999999996 33.69999999999995 35.49999999999996 33.69999999999995 35.49999999999996 C 33.69999999999995 35.49999999999996 33.69999999999995 35.49999999999996 33.69999999999995 35.49999999999996 L 33.69999999999995 35.49999999999996 L 33.69999999999995 35.49999999999996 C 33.69999999999995 35.49999999999996 33.69999999999995 35.49999999999996 33.69999999999995 35.49999999999996 C 33.69999999999995 35.49999999999996 33.799999999999955 35.49999999999996 33.799999999999955 35.49999999999996 L 33.799999999999955 35.49999999999996 L 33.799999999999955 35.49999999999996 L 33.799999999999955 35.49999999999996 L 33.899999999999956 35.49999999999996 C 33.899999999999956 35.49999999999996 33.99999999999996 35.49999999999996 33.99999999999996 35.49999999999996 L 33.99999999999996 35.49999999999996 C 33.99999999999996 35.49999999999996 33.99999999999996 35.49999999999996 33.99999999999996 35.49999999999996 C 33.99999999999996 35.49999999999996 33.99999999999996 35.49999999999996 33.99999999999996 35.49999999999996 L 33.99999999999996 35.49999999999996 C 33.99999999999996 35.49999999999996 34.09999999999996 35.49999999999996 34.09999999999996 35.49999999999996 L 34.19999999999996 35.49999999999996 L 34.19999999999996 35.49999999999996 C 34.19999999999996 35.49999999999996 34.19999999999996 35.49999999999996 34.19999999999996 35.49999999999996 L 34.19999999999996 35.49999999999996 L 34.29999999999996 35.49999999999996 L 34.39999999999996 35.49999999999996 L 34.39999999999996 35.49999999999996 L 34.39999999999996 35.49999999999996 L 34.39999999999996 35.49999999999996 L 34.499999999999964 35.49999999999996 C 34.499999999999964 35.49999999999996 34.599999999999966 35.49999999999996 34.599999999999966 35.59999999999996 C 34.599999999999966 35.59999999999996 34.69999999999997 35.59999999999996 34.69999999999997 35.59999999999996 L 34.69999999999997 35.59999999999996 C 34.69999999999997 35.59999999999996 34.79999999999997 35.59999999999996 34.79999999999997 35.69999999999996 C 34.79999999999997 35.69999999999996 34.89999999999997 35.69999999999996 34.89999999999997 35.79999999999996 C 34.89999999999997 35.79999999999996 34.99999999999997 35.89999999999996 34.99999999999997 35.89999999999996 C 34.99999999999997 35.89999999999996 35.09999999999997 35.999999999999964 35.09999999999997 35.999999999999964 L 35.09999999999997 35.999999999999964 L 35.09999999999997 35.999999999999964 C 35.09999999999997 35.999999999999964 35.09999999999997 35.999999999999964 35.199999999999974 35.999999999999964 L 35.299999999999976 36.099999999999966 C 35.299999999999976 36.099999999999966 35.39999999999998 36.19999999999997 35.39999999999998 36.19999999999997 C 35.39999999999998 36.19999999999997 35.49999999999998 36.29999999999997 35.49999999999998 36.29999999999997 L 35.59999999999998 36.39999999999997 L 35.59999999999998 36.39999999999997 L 35.59999999999998 36.39999999999997 L 35.69999999999998 36.49999999999997 L 35.79999999999998 36.59999999999997 C 35.79999999999998 36.59999999999997 35.899999999999984 36.699999999999974 35.899999999999984 36.699999999999974 C 35.899999999999984 36.699999999999974 35.999999999999986 36.799999999999976 35.999999999999986 36.799999999999976 L 35.999999999999986 36.799999999999976 L 35.999999999999986 36.799999999999976 C 36.09999999999999 36.89999999999998 36.09999999999999 36.89999999999998 36.19999999999999 36.99999999999998 C 36.29999999999999 37.09999999999998 36.29999999999999 37.19999999999998 36.39999999999999 37.299999999999976 L 36.39999999999999 37.299999999999976 L 36.39999999999999 37.299999999999976 L 36.49999999999999 37.49999999999998 C 36.49999999999999 37.59999999999998 36.599999999999994 37.59999999999998 36.599999999999994 37.69999999999998 L 36.699999999999996 37.79999999999998 C 36.699999999999996 37.79999999999998 36.699999999999996 37.899999999999984 36.8 37.899999999999984 L 36.8 37.899999999999984 L 36.8 37.899999999999984 L 36.8 37.999999999999986 L 36.8 38.09999999999999 L 36.8 38.19999999999999 L 36.8 38.19999999999999 L 36.8 38.29999999999999 L 36.8 38.39999999999999 L 36.8 38.39999999999999 L 36.8 38.39999999999999 L 36.8 38.49999999999999 C 36.8 38.49999999999999 36.8 38.599999999999994 36.8 38.599999999999994 L 36.8 38.699999999999996 L 36.8 38.8 L 36.8 38.9 C 36.8 38.9 36.8 39 36.8 39 C 36.8 39 36.8 39.1 36.8 39.1 L 36.8 39.2 C 36.8 39.2 36.8 39.300000000000004 36.8 39.300000000000004 L 36.8 39.400000000000006 L 38 38.7 C 38.1 38.5 38.1 38.5 38.1 38.5" stroke-linecap="round" />
</g>
		<g transform="matrix(1 0 0 1 -5.55 -2.95)"  >
<path style="stroke: none; stroke-width: 1; stroke-dasharray: none; stroke-linecap: butt; stroke-dashoffset: 0; stroke-linejoin: miter; stroke-miterlimit: 4; fill: rgb(233,232,231); fill-rule: nonzero; opacity: 1;" vector-effect="non-scaling-stroke"  transform=" translate(-34.45, -37.05)" d="M 36.9 39.3 C 36.9 38.9 36.8 38.5 36.699999999999996 38.099999999999994 C 36.699999999999996 38.099999999999994 36.699999999999996 38.099999999999994 36.699999999999996 38.099999999999994 C 36.699999999999996 37.99999999999999 36.599999999999994 37.89999999999999 36.599999999999994 37.89999999999999 C 36.599999999999994 37.79999999999999 36.49999999999999 37.599999999999994 36.49999999999999 37.49999999999999 L 36.49999999999999 37.49999999999999 C 36.39999999999999 37.29999999999999 36.29999999999999 37.099999999999994 36.199999999999996 36.89999999999999 L 36.199999999999996 36.89999999999999 C 36.099999999999994 36.69999999999999 35.99999999999999 36.49999999999999 35.8 36.29999999999999 L 35.8 36.29999999999999 C 35.699999999999996 36.09999999999999 35.5 35.89999999999999 35.4 35.79999999999999 L 35.4 35.79999999999999 C 35.3 35.59999999999999 35.1 35.49999999999999 34.9 35.39999999999999 L 34.9 35.39999999999999 C 34.699999999999996 35.29999999999999 34.6 35.099999999999994 34.4 35.099999999999994 C 34.3 35.099999999999994 34.199999999999996 34.99999999999999 34.1 34.99999999999999 L 34.1 34.99999999999999 C 34 34.99999999999999 33.9 34.89999999999999 33.9 34.89999999999999 C 33.9 34.89999999999999 33.9 34.89999999999999 33.9 34.89999999999999 C 33.8 34.89999999999999 33.699999999999996 34.89999999999999 33.699999999999996 34.79999999999999 L 33.699999999999996 34.79999999999999 C 33.599999999999994 34.79999999999999 33.599999999999994 34.79999999999999 33.49999999999999 34.79999999999999 L 33.49999999999999 34.79999999999999 C 33.39999999999999 34.79999999999999 33.39999999999999 34.79999999999999 33.29999999999999 34.79999999999999 L 33.29999999999999 34.79999999999999 C 33.19999999999999 34.79999999999999 33.19999999999999 34.79999999999999 33.09999999999999 34.79999999999999 C 33.09999999999999 34.79999999999999 33.09999999999999 34.79999999999999 33.09999999999999 34.79999999999999 C 32.999999999999986 34.79999999999999 32.999999999999986 34.79999999999999 32.899999999999984 34.89999999999999 L 32.899999999999984 34.89999999999999 C 32.899999999999984 34.89999999999999 32.899999999999984 34.89999999999999 32.79999999999998 34.89999999999999 C 32.79999999999998 34.89999999999999 32.69999999999998 34.89999999999999 32.69999999999998 34.89999999999999 L 32.69999999999998 34.89999999999999 L 32.69999999999998 34.89999999999999 C 32.19999999999998 35.19999999999999 31.999999999999982 35.69999999999999 31.999999999999982 36.49999999999999 C 31.8 36.3 36.9 39.3 36.9 39.3 z" stroke-linecap="round" />
</g>
</g>
</g>
</svg>