<?xml version="1.0" encoding="UTF-8" standalone="no" ?>
<!DOCTYPE svg PUBLIC "-//W3C//DTD SVG 1.1//EN" "http://www.w3.org/Graphics/SVG/1.1/DTD/svg11.dtd">
<svg xmlns="http://www.w3.org/2000/svg" xmlns:xlink="http://www.w3.org/1999/xlink" version="1.1" width="1080" height="1080" viewBox="0 0 1080 1080" xml:space="preserve">
<desc>Created with Fabric.js 5.2.4</desc>
<defs>
</defs>
<rect x="0" y="0" width="100%" height="100%" fill="transparent"></rect>
<g transform="matrix(1 0 0 1 540 540)" id="cff9f87c-a1bf-486b-8317-ec908d6ea44f"  >
<rect style="stroke: none; stroke-width: 1; stroke-dasharray: none; stroke-linecap: butt; stroke-dashoffset: 0; stroke-linejoin: miter; stroke-miterlimit: 4; fill: rgb(255,255,255); fill-rule: nonzero; opacity: 1; visibility: hidden;" vector-effect="non-scaling-stroke"  x="-540" y="-540" rx="0" ry="0" width="1080" height="1080" />
</g>
<g transform="matrix(1 0 0 1 540 540)" id="32dc56d8-3258-462c-817a-075f758273c9"  >
</g>
<g transform="matrix(6.98 0 0 6.98 540 540)"  >
<g style="" vector-effect="non-scaling-stroke"   >
		<g transform="matrix(1 0 0 1 -27.7 23.6)"  >
<path style="stroke: none; stroke-width: 1; stroke-dasharray: none; stroke-linecap: butt; stroke-dashoffset: 0; stroke-linejoin: miter; stroke-miterlimit: 4; fill: rgb(234,234,233); fill-rule: nonzero; opacity: 1;" vector-effect="non-scaling-stroke"  transform=" translate(-47.3, -98.9)" d="M 19.3 66.4 L 19.3 131.4 L 75.3 150 L 75.3 47.8 L 19.3 66.4 z" stroke-linecap="round" />
</g>
		<g transform="matrix(1 0 0 1 24.95 23.6)"  >
<path style="stroke: none; stroke-width: 1; stroke-dasharray: none; stroke-linecap: butt; stroke-dashoffset: 0; stroke-linejoin: miter; stroke-miterlimit: 4; fill: rgb(209,209,209); fill-rule: nonzero; opacity: 1;" vector-effect="non-scaling-stroke"  transform=" translate(-99.95, -98.9)" d="M 74.7 47.8 L 69.1 85 L 74.69999999999999 150 L 130.79999999999998 131.4 L 130.79999999999998 66.4 L 74.7 47.8 z" stroke-linecap="round" />
</g>
		<g transform="matrix(1 0 0 1 18.65 -22.2)"  >
<path style="stroke: none; stroke-width: 1; stroke-dasharray: none; stroke-linecap: butt; stroke-dashoffset: 0; stroke-linejoin: miter; stroke-miterlimit: 4; fill: rgb(18,49,85); fill-rule: nonzero; opacity: 1;" vector-effect="non-scaling-stroke"  transform=" translate(-93.65, -53.1)" d="M 80.3 56.4 L 80.89999999999999 58.199999999999996 L 79 62.5 L 82.2 66.2 L 86.60000000000001 65 L 88.2 65.8 L 89.9 70.2 L 94.80000000000001 70.60000000000001 L 97.00000000000001 66.60000000000001 L 98.70000000000002 65.9 L 103.00000000000001 67.80000000000001 L 106.70000000000002 64.60000000000001 L 105.50000000000001 60.20000000000001 L 106.30000000000001 58.60000000000001 L 110.60000000000001 56.900000000000006 L 111.00000000000001 52.00000000000001 L 107.00000000000001 49.800000000000004 L 106.40000000000002 48.1 L 108.30000000000003 43.800000000000004 L 105.10000000000002 40.1 L 100.70000000000002 41.300000000000004 L 99.10000000000002 40.50000000000001 L 97.5 36 L 92.6 35.6 L 90.39999999999999 39.6 L 88.69999999999999 40.2 L 84.39999999999999 38.300000000000004 L 80.69999999999999 41.50000000000001 L 81.89999999999999 45.900000000000006 L 81 47.6 L 76.7 49.300000000000004 L 76.3 54.2 L 80.3 56.4 z" stroke-linecap="round" />
</g>
		<g transform="matrix(1 0 0 1 18.84 -22.15)"  >
<path style="stroke: none; stroke-width: 1; stroke-dasharray: none; stroke-linecap: butt; stroke-dashoffset: 0; stroke-linejoin: miter; stroke-miterlimit: 4; fill: rgb(255,255,255); fill-rule: nonzero; opacity: 1;" vector-effect="non-scaling-stroke"  transform=" translate(-93.84, -53.15)" d="M 94.3 46.5 C 90.7 46.2 87.5 49 87.2 52.7 C 86.9 56.400000000000006 89.7 59.5 93.4 59.800000000000004 C 97 60.1 100.2 57.300000000000004 100.5 53.6 C 100.7 49.9 97.9 46.7 94.3 46.5 z" stroke-linecap="round" />
</g>
		<g transform="matrix(1 0 0 1 -11.35 -14.9)"  >
<path style="stroke: none; stroke-width: 1; stroke-dasharray: none; stroke-linecap: butt; stroke-dashoffset: 0; stroke-linejoin: miter; stroke-miterlimit: 4; fill: rgb(0,94,184); fill-rule: nonzero; opacity: 1;" vector-effect="non-scaling-stroke"  transform=" translate(-63.65, -60.4)" d="M 44.6 67.4 L 45.7 69.9 L 43.7 76.4 L 49 81.30000000000001 L 55.3 78.80000000000001 L 57.8 79.70000000000002 L 61 85.80000000000001 L 68.2 85.60000000000001 L 70.8 79.4 L 73.2 78.2 L 79.8 80.2 L 84.7 74.9 L 82.2 68.60000000000001 L 83.10000000000001 66.10000000000001 L 89.00000000000001 62.900000000000006 L 88.80000000000001 55.7 L 82.60000000000001 53.1 L 81.50000000000001 50.7 L 83.50000000000001 44.2 L 78.20000000000002 39.300000000000004 L 71.90000000000002 41.800000000000004 L 69.4 41 L 66.30000000000001 35 L 59.10000000000001 35.2 L 56.50000000000001 41.400000000000006 L 54.10000000000001 42.50000000000001 L 47.60000000000001 40.50000000000001 L 42.70000000000001 45.800000000000004 L 45.20000000000001 52.1 L 44.30000000000001 54.6 L 38.30000000000001 57.7 L 38.500000000000014 64.9 L 44.6 67.4 z" stroke-linecap="round" />
</g>
		<g transform="matrix(1 0 0 1 -11.3 -14.9)"  >
<path style="stroke: none; stroke-width: 1; stroke-dasharray: none; stroke-linecap: butt; stroke-dashoffset: 0; stroke-linejoin: miter; stroke-miterlimit: 4; fill: rgb(255,255,255); fill-rule: nonzero; opacity: 1;" vector-effect="non-scaling-stroke"  transform=" translate(-63.7, -60.4)" d="M 63.3 50.7 C 58 50.900000000000006 53.8 55.400000000000006 54 60.800000000000004 C 54.2 66.10000000000001 58.7 70.30000000000001 64.1 70.10000000000001 C 69.39999999999999 69.9 73.6 65.4 73.39999999999999 60.00000000000001 C 73.1 54.7 68.6 50.5 63.3 50.7 z" stroke-linecap="round" />
</g>
		<g transform="matrix(1 0 0 1 -27.7 32.9)"  >
<path style="stroke: none; stroke-width: 1; stroke-dasharray: none; stroke-linecap: butt; stroke-dashoffset: 0; stroke-linejoin: miter; stroke-miterlimit: 4; fill: rgb(209,209,209); fill-rule: nonzero; opacity: 1;" vector-effect="non-scaling-stroke"  transform=" translate(-47.3, -108.2)" d="M 19.3 66.4 L 19.3 131.4 L 75.3 150 L 75.3 85 L 19.3 66.4 z" stroke-linecap="round" />
</g>
		<g transform="matrix(1 0 0 1 25.65 33.5)"  >
<path style="stroke: none; stroke-width: 1; stroke-dasharray: none; stroke-linecap: butt; stroke-dashoffset: 0; stroke-linejoin: miter; stroke-miterlimit: 4; fill: rgb(188,188,188); fill-rule: nonzero; opacity: 1;" vector-effect="non-scaling-stroke"  transform=" translate(-100.65, -108.8)" d="M 72.6 85.6 L 72.6 150.6 L 128.7 132 L 128.7 67 L 72.6 85.6 z" stroke-linecap="round" />
</g>
		<g transform="matrix(1 0 0 1 36.4 13.2)"  >
<path style="stroke: none; stroke-width: 1; stroke-dasharray: none; stroke-linecap: butt; stroke-dashoffset: 0; stroke-linejoin: miter; stroke-miterlimit: 4; fill: rgb(234,234,233); fill-rule: nonzero; opacity: 1;" vector-effect="non-scaling-stroke"  transform=" translate(-111.4, -88.5)" d="M 91.4 110.6 L 75.3 85 L 131.4 66.4 L 147.5 92 L 91.4 110.6 z" stroke-linecap="round" />
</g>
		<g transform="matrix(1 0 0 1 -36.4 13.2)"  >
<path style="stroke: none; stroke-width: 1; stroke-dasharray: none; stroke-linecap: butt; stroke-dashoffset: 0; stroke-linejoin: miter; stroke-miterlimit: 4; fill: rgb(234,234,233); fill-rule: nonzero; opacity: 1;" vector-effect="non-scaling-stroke"  transform=" translate(-38.6, -88.5)" d="M 58.6 110.6 L 74.7 85 L 18.6 66.4 L 2.5 92 L 58.6 110.6 z" stroke-linecap="round" />
</g>
		<g transform="matrix(1 0 0 1 -4.45 -66.55)"  >
<path style="stroke: none; stroke-width: 1; stroke-dasharray: none; stroke-linecap: butt; stroke-dashoffset: 0; stroke-linejoin: miter; stroke-miterlimit: 4; fill: rgb(237,139,0); fill-rule: nonzero; opacity: 1;" vector-effect="non-scaling-stroke"  transform=" translate(-70.55, -8.75)" d="M 67.4 0 L 73.7 0 L 73.7 17.5 L 67.4 17.5 L 67.4 0 z" stroke-linecap="round" />
</g>
		<g transform="matrix(1 0 0 1 19.5 -62.55)"  >
<path style="stroke: none; stroke-width: 1; stroke-dasharray: none; stroke-linecap: butt; stroke-dashoffset: 0; stroke-linejoin: miter; stroke-miterlimit: 4; fill: rgb(251,176,64); fill-rule: nonzero; opacity: 1;" vector-effect="non-scaling-stroke"  transform=" translate(-94.5, -12.75)" d="M 94.7 3.5 L 100.60000000000001 5.8 L 94.3 22 L 88.39999999999999 19.7 L 94.7 3.5 z" stroke-linecap="round" />
</g>
		<g transform="matrix(1 0 0 1 -29.15 -62.55)"  >
<path style="stroke: none; stroke-width: 1; stroke-dasharray: none; stroke-linecap: butt; stroke-dashoffset: 0; stroke-linejoin: miter; stroke-miterlimit: 4; fill: rgb(251,176,64); fill-rule: nonzero; opacity: 1;" vector-effect="non-scaling-stroke"  transform=" translate(-45.85, -12.75)" d="M 52 19.7 L 46.1 22 L 39.7 5.8 L 45.6 3.5 L 52 19.7 z" stroke-linecap="round" />
</g>
		<g transform="matrix(1 0 0 1 -50.7 -49.35)"  >
<path style="stroke: none; stroke-width: 1; stroke-dasharray: none; stroke-linecap: butt; stroke-dashoffset: 0; stroke-linejoin: miter; stroke-miterlimit: 4; fill: rgb(237,139,0); fill-rule: nonzero; opacity: 1;" vector-effect="non-scaling-stroke"  transform=" translate(-24.3, -25.95)" d="M 33 29.2 L 28.9 34 L 15.6 22.7 L 19.7 17.9 L 33 29.2 z" stroke-linecap="round" />
</g>
		<g transform="matrix(1 0 0 1 41.1 -49.35)"  >
<path style="stroke: none; stroke-width: 1; stroke-dasharray: none; stroke-linecap: butt; stroke-dashoffset: 0; stroke-linejoin: miter; stroke-miterlimit: 4; fill: rgb(237,139,0); fill-rule: nonzero; opacity: 1;" vector-effect="non-scaling-stroke"  transform=" translate(-116.1, -25.95)" d="M 120.7 17.9 L 124.8 22.7 L 111.5 34 L 107.4 29.2 L 120.7 17.9 z" stroke-linecap="round" />
</g>
		<g transform="matrix(1 0 0 1 52.4 54.6)"  >
<circle style="stroke: none; stroke-width: 1; stroke-dasharray: none; stroke-linecap: butt; stroke-dashoffset: 0; stroke-linejoin: miter; stroke-miterlimit: 4; fill: rgb(0,94,184); fill-rule: nonzero; opacity: 1;" vector-effect="non-scaling-stroke"  cx="0" cy="0" r="20.1" />
</g>
		<g transform="matrix(1 0 0 1 52.4 54.6)"  >
<path style="stroke: none; stroke-width: 1; stroke-dasharray: none; stroke-linecap: butt; stroke-dashoffset: 0; stroke-linejoin: miter; stroke-miterlimit: 4; fill: rgb(255,255,255); fill-rule: nonzero; opacity: 1;" vector-effect="non-scaling-stroke"  transform=" translate(-127.4, -129.9)" d="M 134.9 120.9 L 124.9 130.9 L 119.9 125.9 L 115.9 129.9 L 124.9 138.9 L 138.9 124.9 L 134.9 120.9 z" stroke-linecap="round" />
</g>
</g>
</g>
</svg>